<svg width="17" height="16" viewBox="0 0 17 16" fill="none" xmlns="http://www.w3.org/2000/svg">
<path d="M8.95313 0.00244141C6.78125 0.00244141 6.50938 0.0118164 5.65625 0.0493164C4.80313 0.0899414 4.225 0.224316 3.71563 0.421191C3.19063 0.624316 2.74375 0.899316 2.29688 1.34307C1.85 1.78682 1.57813 2.23369 1.375 2.76182C1.17813 3.27119 1.04375 3.85244 1.00313 4.70244C0.962503 5.55557 0.956253 5.82744 0.956253 7.99932C0.956253 10.1712 0.965628 10.4431 1.00313 11.2962C1.04375 12.1462 1.17813 12.7274 1.375 13.2368C1.57813 13.7618 1.85313 14.2087 2.29688 14.6556C2.74063 15.0993 3.1875 15.3743 3.71563 15.5774C4.225 15.7743 4.80625 15.9087 5.65625 15.9493C6.50938 15.9899 6.78125 15.9962 8.95313 15.9962C11.125 15.9962 11.3969 15.9868 12.25 15.9493C13.1 15.9087 13.6813 15.7743 14.1906 15.5774C14.7156 15.3743 15.1625 15.0993 15.6094 14.6556C16.0531 14.2118 16.3281 13.7649 16.5313 13.2368C16.7281 12.7274 16.8625 12.1462 16.9031 11.2962C16.9438 10.4431 16.95 10.1712 16.95 7.99932C16.95 5.82744 16.9406 5.55557 16.9031 4.70244C16.8625 3.85244 16.7281 3.27119 16.5313 2.76182C16.3281 2.23682 16.0531 1.78994 15.6094 1.34307C15.1656 0.899316 14.7188 0.624316 14.1906 0.421191C13.6813 0.224316 13.1 0.0899414 12.25 0.0493164C11.3969 0.0118164 11.125 0.00244141 8.95313 0.00244141ZM8.95313 1.44307C11.0875 1.44307 11.3438 1.45244 12.1875 1.48994C12.9688 1.52744 13.3906 1.65557 13.6719 1.76807C14.0469 1.91182 14.3125 2.08682 14.5938 2.36494C14.8719 2.64619 15.0469 2.91182 15.1906 3.28682C15.3 3.56807 15.4313 3.98994 15.4656 4.77119C15.5031 5.61494 15.5125 5.86807 15.5125 8.00556C15.5125 10.1431 15.5031 10.3962 15.4625 11.2399C15.4219 12.0212 15.2906 12.4431 15.1813 12.7243C15.0313 13.0993 14.8625 13.3649 14.5813 13.6462C14.3031 13.9243 14.0313 14.0993 13.6625 14.2431C13.3813 14.3524 12.9531 14.4837 12.1719 14.5181C11.3219 14.5556 11.0719 14.5649 8.93125 14.5649C6.79063 14.5649 6.54063 14.5556 5.69063 14.5149C4.90938 14.4743 4.48125 14.3431 4.2 14.2337C3.82188 14.0837 3.55938 13.9149 3.28125 13.6337C3 13.3556 2.82188 13.0837 2.68125 12.7149C2.57188 12.4337 2.44063 12.0056 2.4 11.2243C2.36875 10.3837 2.35938 10.1243 2.35938 7.99619C2.35938 5.86494 2.36875 5.60557 2.4 4.75557C2.44063 3.97432 2.56875 3.54619 2.68125 3.26494C2.82188 2.88369 3 2.62432 3.28125 2.34307C3.55938 2.06494 3.82188 1.88369 4.2 1.74307C4.48125 1.63369 4.9 1.50244 5.68125 1.46182C6.53125 1.43057 6.78125 1.42119 8.92188 1.42119L8.95313 1.44307ZM8.95313 3.89307C6.68438 3.89307 4.84375 5.73369 4.84375 8.00244C4.84375 10.2712 6.68438 12.1118 8.95313 12.1118C11.2219 12.1118 13.0625 10.2712 13.0625 8.00244C13.0625 5.73369 11.2219 3.89307 8.95313 3.89307ZM8.95313 10.6681C7.48125 10.6681 6.2875 9.47432 6.2875 8.00244C6.2875 6.53057 7.48125 5.33682 8.95313 5.33682C10.425 5.33682 11.6188 6.53057 11.6188 8.00244C11.6188 9.47432 10.425 10.6681 8.95313 10.6681ZM14.1844 3.73369C14.1844 4.26494 13.7531 4.69307 13.225 4.69307C12.6938 4.69307 12.2656 4.26182 12.2656 3.73369C12.2656 3.20557 12.6969 2.77432 13.225 2.77432C13.7531 2.77119 14.1844 3.20244 14.1844 3.73369Z" fill="white"/>
</svg>
