<svg width="20" height="21" viewBox="0 0 20 21" fill="none" xmlns="http://www.w3.org/2000/svg">
<path d="M1.66667 2.99951H6.66667C7.55073 2.99951 8.39857 3.3507 9.02369 3.97582C9.64882 4.60094 10 5.44879 10 6.33284V17.9995C10 17.3365 9.73661 16.7006 9.26777 16.2317C8.79893 15.7629 8.16305 15.4995 7.5 15.4995H1.66667V2.99951Z" stroke="white" stroke-linecap="round" stroke-linejoin="round"/>
<path d="M18.3333 2.99951H13.3333C12.4493 2.99951 11.6014 3.3507 10.9763 3.97582C10.3512 4.60094 10 5.44879 10 6.33284V17.9995C10 17.3365 10.2634 16.7006 10.7322 16.2317C11.2011 15.7629 11.837 15.4995 12.5 15.4995H18.3333V2.99951Z" fill="white" fill-opacity="0.5" stroke="white" stroke-linecap="round" stroke-linejoin="round"/>
</svg>
