<svg width="256" height="49" viewBox="0 0 256 49" fill="none" xmlns="http://www.w3.org/2000/svg">
<g clip-path="url(#clip0_302_162)">
<path d="M33.2084 48.4309C27.0919 49.1682 20.9104 49.1682 14.7939 48.4309C7.33263 47.5313 1.45261 41.6513 0.55299 34.19C-0.18433 28.0734 -0.18433 21.892 0.55299 15.7755C1.45493 8.31651 7.33494 2.4365 14.7963 1.53688C20.9128 0.799557 27.0942 0.799557 33.2107 1.53688C40.672 2.4365 46.552 8.31651 47.4516 15.7778C48.189 21.8943 48.189 28.0758 47.4516 34.1923C46.552 41.6536 40.672 47.5336 33.2107 48.4332L33.2084 48.4309Z" fill="#00ADE6"/>
<path d="M37.8433 11.1431H24.0012V24.9852H37.8433V11.1431Z" fill="white"/>
<path d="M24.0035 24.9829H10.1613V38.8251H24.0035V24.9829Z" fill="#00223A"/>
<path d="M77.2444 19.1945C76.9824 17.546 75.5959 15.1114 72.0368 15.1114C69.3402 15.1114 67.4668 16.9084 67.4668 18.9325C67.4668 20.6182 68.5148 21.8911 70.5761 22.3409L74.3971 23.1269C79.0784 24.0636 81.5895 27.0222 81.5895 30.7691C81.5895 34.8892 78.2553 38.8216 72.1875 38.8216C65.445 38.8216 62.3357 34.4765 61.9253 30.6554L66.1197 29.4567C66.3817 32.2275 68.3664 34.7756 72.1875 34.7756C75.371 34.7756 77.0195 33.1642 77.0195 31.1053C77.0195 29.3825 75.7466 27.996 73.4604 27.5091L69.7159 26.7231C65.6699 25.9 62.9733 23.2405 62.9733 19.2687C62.9733 14.8123 67.0564 11.1396 71.9997 11.1396C78.2553 11.1396 80.6899 14.9607 81.2881 17.9193L77.2421 19.1922L77.2444 19.1945Z" fill="white"/>
<path d="M88.5569 29.1207C88.5569 32.791 90.9173 34.8523 93.6509 34.8523C96.3846 34.8523 97.8082 32.8675 98.2209 31.481L102.042 32.8675C101.179 35.7148 98.4458 38.8241 93.6509 38.8241C88.2949 38.8241 84.2119 34.6668 84.2119 29.123C84.2119 23.5792 88.2949 19.459 93.5396 19.459C98.4458 19.459 101.142 22.5312 101.894 25.4526L97.9983 26.8762C97.5856 25.2648 96.3498 23.4679 93.5791 23.4679C90.8083 23.4679 88.5593 25.4526 88.5593 29.123L88.5569 29.1207Z" fill="white"/>
<path d="M123.204 29.1205C123.204 34.7385 119.195 38.8216 113.728 38.8216C108.261 38.8216 104.289 34.7385 104.289 29.1205C104.289 23.5025 108.298 19.4565 113.728 19.4565C119.158 19.4565 123.204 23.5396 123.204 29.1205ZM118.822 29.1205C118.822 25.3366 116.424 23.3889 113.728 23.3889C111.031 23.3889 108.634 25.3366 108.634 29.1205C108.634 32.9045 111.068 34.9264 113.728 34.9264C116.387 34.9264 118.822 32.9416 118.822 29.1205Z" fill="white"/>
<path d="M144.892 29.1205C144.892 34.7385 140.883 38.8216 135.416 38.8216C129.949 38.8216 125.977 34.7385 125.977 29.1205C125.977 23.5025 129.986 19.4565 135.416 19.4565C140.846 19.4565 144.892 23.5396 144.892 29.1205ZM140.51 29.1205C140.51 25.3366 138.113 23.3889 135.416 23.3889C132.72 23.3889 130.322 25.3366 130.322 29.1205C130.322 32.9045 132.757 34.9264 135.416 34.9264C138.076 34.9264 140.51 32.9416 140.51 29.1205Z" fill="white"/>
<path d="M149.087 38.8264V11.1421H153.432V38.8264H149.087Z" fill="white"/>
<path d="M161.222 32.267C161.373 33.9156 162.609 35.3763 164.93 35.3763C166.727 35.3763 167.663 34.4025 167.663 33.2779C167.663 32.3041 166.989 31.5552 165.528 31.2561L162.831 30.6579C159.611 29.9461 157.925 27.8477 157.925 25.339C157.925 22.1555 160.847 19.459 164.631 19.459C169.725 19.459 171.373 22.7561 171.672 24.553L168.002 25.601C167.851 24.553 167.065 22.8673 164.631 22.8673C163.096 22.8673 162.008 23.8412 162.008 24.9657C162.008 25.9395 162.72 26.6513 163.845 26.8762L166.615 27.4373C170.061 28.1863 171.86 30.2846 171.86 32.9812C171.86 35.6777 169.613 38.8241 164.967 38.8241C159.685 38.8241 157.663 35.3786 157.438 33.3174L161.222 32.2693V32.267Z" fill="white"/>
<path d="M176.168 48.9843V20.0201H180.363V22.4918C181.262 20.9174 183.358 19.6074 186.168 19.6074C191.561 19.6074 194.597 23.7276 194.597 29.1207C194.597 34.5138 191.262 38.7105 186.02 38.7105C183.398 38.7105 181.413 37.586 180.476 36.2018V48.9843H176.168ZM185.345 23.4656C182.498 23.4656 180.439 25.7123 180.439 29.1207C180.439 32.5291 182.5 34.8523 185.345 34.8523C188.19 34.8523 190.251 32.6056 190.251 29.1207C190.251 25.6358 188.267 23.4656 185.345 23.4656Z" fill="white"/>
<path d="M203.175 27.8106L207.857 27.0988C208.905 26.9481 209.206 26.4241 209.206 25.7888C209.206 24.2539 208.158 23.0181 205.761 23.0181C203.363 23.0181 202.202 24.4788 202.014 26.3151L198.044 25.4155C198.381 22.2691 201.228 19.459 205.724 19.459C211.342 19.459 213.477 22.6424 213.477 26.2757V35.3415C213.477 36.99 213.665 38.0752 213.702 38.263H209.656C209.619 38.1517 209.468 37.4004 209.468 35.9397C208.606 37.3262 206.809 38.8241 203.85 38.8241C200.029 38.8241 197.669 36.2017 197.669 33.3174C197.669 30.0597 200.066 28.2605 203.175 27.8106ZM209.206 30.695V29.8719L204.448 30.5837C203.099 30.8086 202.014 31.5575 202.014 33.0554C202.014 34.2912 202.951 35.4157 204.673 35.4157C207.108 35.4157 209.206 34.2541 209.206 30.695Z" fill="white"/>
<path d="M221.604 29.1207C221.604 32.791 223.964 34.8523 226.698 34.8523C229.431 34.8523 230.855 32.8675 231.268 31.481L235.089 32.8675C234.226 35.7148 231.493 38.8241 226.698 38.8241C221.342 38.8241 217.259 34.6668 217.259 29.123C217.259 23.5792 221.342 19.459 226.586 19.459C231.493 19.459 234.189 22.5312 234.94 25.4526L231.045 26.8762C230.632 25.2648 229.397 23.4679 226.626 23.4679C223.855 23.4679 221.606 25.4526 221.606 29.123L221.604 29.1207Z" fill="white"/>
<path d="M254.904 33.0529C253.93 36.2364 251.046 38.8216 246.663 38.8216C241.72 38.8216 237.336 35.2255 237.336 29.0463C237.336 23.2776 241.607 19.4565 246.214 19.4565C251.832 19.4565 255.129 23.164 255.129 28.9327C255.129 29.6445 255.055 30.2427 255.017 30.3193H241.683C241.794 33.09 243.967 35.0771 246.666 35.0771C249.365 35.0771 250.635 33.6905 251.236 31.8936L254.906 33.0552L254.904 33.0529ZM250.747 27.1335C250.672 24.998 249.249 23.0875 246.251 23.0875C243.517 23.0875 241.943 25.1858 241.794 27.1335H250.747Z" fill="white"/>
</g>
<defs>
<clipPath id="clip0_302_162">
<rect width="255.129" height="48" fill="white" transform="translate(0 0.983887)"/>
</clipPath>
</defs>
</svg>
