<?xml version="1.0" encoding="UTF-8"?>
<svg id="Layer_1" data-name="Layer 1" xmlns="http://www.w3.org/2000/svg" viewBox="0 0 500 500">
  <defs>
    <style>
      .cls-1 {
        fill: #fff;
      }

      .cls-2 {
        fill: #00ade9;
      }

      .cls-3 {
        fill: #00233c;
      }
    </style>
  </defs>
  <g id="Logomark">
    <path class="cls-2" d="M345.81,493.89h0c-63.74,7.69-128.17,7.69-191.91,0h0C76.14,484.52,14.85,423.23,5.48,345.47h0c-7.69-63.74-7.69-128.17,0-191.91h0C14.85,75.8,76.14,14.51,153.9,5.13h0c63.74-7.69,128.17-7.69,191.91,0h0c77.76,9.38,139.05,70.67,148.42,148.42h0c7.69,63.74,7.69,128.17,0,191.91h0c-9.38,77.76-70.67,139.05-148.42,148.43Z"/>
    <g>
      <rect class="cls-1" x="249.86" y="105.26" width="144.26" height="144.26"/>
      <rect class="cls-3" x="105.6" y="249.51" width="144.26" height="144.26"/>
    </g>
  </g>
</svg>