<svg width="24" height="24" viewBox="0 0 24 24" fill="none" xmlns="http://www.w3.org/2000/svg">
<path d="M18.3054 12.6346C18.2946 10.8078 19.1223 9.43104 20.7938 8.41586C19.8589 7.07658 18.4446 6.33997 16.5804 6.19801C14.8152 6.05872 12.8839 7.22658 12.1768 7.22658C11.4295 7.22658 9.72054 6.24622 8.37589 6.24622C5.60089 6.28908 2.65179 8.45872 2.65179 12.873C2.65179 14.1775 2.89018 15.5248 3.36697 16.9123C4.00447 18.7391 6.30268 23.215 8.7 23.1427C9.95357 23.1132 10.8402 22.2534 12.4714 22.2534C14.0545 22.2534 14.8741 23.1427 16.2723 23.1427C18.6911 23.1078 20.7696 19.0391 21.375 17.2069C18.1313 15.6775 18.3054 12.7284 18.3054 12.6346ZM15.4902 4.46497C16.8482 2.85247 16.725 1.38461 16.6848 0.856934C15.4848 0.926576 14.0973 1.6739 13.3071 2.59265C12.4366 3.57836 11.925 4.79711 12.0348 6.17122C13.3313 6.27033 14.5152 5.60336 15.4902 4.46497Z" fill="white"/>
</svg>
