<svg width="24" height="24" viewBox="0 0 24 24" fill="none" xmlns="http://www.w3.org/2000/svg">
<g clip-path="url(#clip0_527_340)">
<path d="M14.3231 10.9597L17.7752 7.95573L2.41579 0.177075C2.18931 0.0632411 1.9491 0.0126482 1.71576 0L14.3231 10.9597Z" fill="white"/>
<path d="M0.205891 0.765137C0.0754933 0.973832 0 1.22047 0 1.49241V22.5074C0 22.7794 0.0754933 23.0197 0.205891 23.2347L13.129 12.0031L0.205891 0.765137Z" fill="white"/>
<path d="M23.1559 10.6817L19.2851 8.72119L15.5173 11.9971L19.2851 15.273L23.1559 13.3125C24.2814 12.7433 24.2814 11.2508 23.1559 10.6753V10.6817Z" fill="white"/>
<path d="M14.3231 13.0405L1.71576 24.0002C1.9491 23.9876 2.18931 23.9433 2.41579 23.8231L17.7752 16.0445L14.3231 13.0405Z" fill="white"/>
</g>
<defs>
<clipPath id="clip0_527_340">
<rect width="24" height="24" fill="white"/>
</clipPath>
</defs>
</svg>
