<svg width="16" height="14" viewBox="0 0 16 14" fill="none" xmlns="http://www.w3.org/2000/svg">
<path d="M15.925 2.05742C15.3375 2.3168 14.7094 2.4918 14.0469 2.57305C14.7219 2.1668 15.2406 1.52617 15.4844 0.763672C14.8531 1.13242 14.15 1.40117 13.4063 1.55117C12.8094 0.913672 11.9625 0.513672 11.0188 0.513672C9.2125 0.513672 7.74687 1.9793 7.74687 3.78242C7.74687 4.0418 7.77813 4.2918 7.83125 4.5293C5.1125 4.40117 2.7 3.09492 1.0875 1.11992C0.803126 1.60117 0.64375 2.15742 0.64375 2.7668C0.64375 3.9043 1.22188 4.9043 2.1 5.4918C1.5625 5.47305 1.05938 5.32617 0.618751 5.08242V5.12305C0.618751 6.71055 1.74375 8.03242 3.24375 8.33242C2.96875 8.40742 2.67813 8.44492 2.38125 8.44492C2.17188 8.44492 1.97188 8.42617 1.77188 8.38867C2.19063 9.68867 3.39688 10.6355 4.83438 10.6605C3.71875 11.5387 2.3 12.0605 0.778125 12.0605C0.51875 12.0605 0.259375 12.0449 0 12.0168C1.45625 12.9449 3.17188 13.4855 5.025 13.4855C11.0406 13.4855 14.3313 8.50117 14.3313 4.18555C14.3313 4.04805 14.3313 3.90742 14.3219 3.7668C14.9594 3.30742 15.5188 2.7293 15.9563 2.07305L15.925 2.05742Z" fill="white"/>
</svg>
