<svg width="17" height="18" viewBox="0 0 17 18" fill="none" xmlns="http://www.w3.org/2000/svg">
<path d="M14.6094 14.6464H12.2344V10.9276C12.2344 10.0401 12.2156 8.89951 10.9969 8.89951C9.75937 8.89951 9.56875 9.86514 9.56875 10.862V14.6464H7.19375V6.99639H9.475V8.04014H9.50625C9.825 7.44014 10.6 6.80576 11.7562 6.80576C14.1625 6.80576 14.6062 8.39014 14.6062 10.4495L14.6094 14.6464ZM4.51562 5.94951C3.75 5.94951 3.1375 5.33076 3.1375 4.57139C3.1375 3.81201 3.75312 3.19326 4.51562 3.19326C5.27812 3.19326 5.89375 3.81201 5.89375 4.57139C5.89375 5.33076 5.275 5.94951 4.51562 5.94951ZM5.70625 14.6464H3.325V6.99639H5.70625V14.6464ZM15.7969 0.983887H2.13437C1.48125 0.983887 0.949997 1.49951 0.949997 2.14014V15.8589C0.949997 16.4964 1.47812 17.0151 2.13437 17.0151H15.7937C16.4469 17.0151 16.9812 16.4995 16.9812 15.8589V2.14014C16.9812 1.49951 16.4469 0.983887 15.7969 0.983887Z" fill="white"/>
</svg>
