<svg width="20" height="21" viewBox="0 0 20 21" fill="none" xmlns="http://www.w3.org/2000/svg">
<path d="M16.8362 4.87144L16.8365 4.87169C17.1926 5.22767 17.4751 5.65033 17.6679 6.11553C17.8606 6.58073 17.9599 7.07935 17.9599 7.5829C17.9599 8.08645 17.8606 8.58507 17.6679 9.05027C17.4751 9.51547 17.1926 9.93813 16.8365 10.2941L16.8363 10.2942L15.953 11.1776L10 17.1306L4.04699 11.1776L3.16366 10.2942C2.44457 9.57515 2.04059 8.59985 2.04059 7.5829C2.04059 6.56595 2.44457 5.59066 3.16366 4.87157C3.88275 4.15247 4.85805 3.74849 5.875 3.74849C6.89195 3.74849 7.86724 4.15247 8.58633 4.87157L9.46967 5.7549C9.76256 6.04779 10.2374 6.04779 10.5303 5.7549L11.4137 4.87157L11.4138 4.87144C11.7698 4.51529 12.1924 4.23277 12.6576 4.04001C13.1228 3.84726 13.6214 3.74805 14.125 3.74805C14.6286 3.74805 15.1272 3.84726 15.5924 4.04001C16.0576 4.23277 16.4802 4.51529 16.8362 4.87144Z" fill="white" fill-opacity="0.5" stroke="white" stroke-width="1.5" stroke-linecap="round" stroke-linejoin="round"/>
</svg>
