<svg width="178" height="40" viewBox="0 0 178 40" fill="none" xmlns="http://www.w3.org/2000/svg">
<path d="M27.671 39.5395C22.5791 40.1505 17.4253 40.1505 12.3246 39.5395C6.10804 38.7868 1.21098 33.8897 0.458269 27.6732C-0.152756 22.5725 -0.152756 17.4275 0.458269 12.3267C1.21098 6.11023 6.10804 1.21318 12.3246 0.460466C17.4164 -0.150559 22.5703 -0.150559 27.671 0.460466C33.8875 1.21318 38.7846 6.11023 39.5373 12.3267C40.1483 17.4186 40.1483 22.5725 39.5373 27.6732C38.7846 33.8897 33.8875 38.7868 27.671 39.5395Z" fill="#00ADE6"/>
<path d="M31.5232 8.46582H19.9934V19.9956H31.5232V8.46582Z" fill="white"/>
<path d="M19.9934 19.9956H8.46362V31.5254H19.9934V19.9956Z" fill="#00223A"/>
<path d="M57.4316 29.264C56.3902 29.264 55.4222 29.0733 54.5276 28.692C53.6476 28.3107 52.8849 27.7827 52.2396 27.108C51.6089 26.4187 51.1469 25.6193 50.8536 24.71L53.3396 23.632C53.7356 24.5707 54.3076 25.3113 55.0556 25.854C55.8036 26.382 56.6469 26.646 57.5856 26.646C58.1136 26.646 58.5682 26.5653 58.9496 26.404C59.3456 26.228 59.6462 25.9933 59.8516 25.7C60.0716 25.4067 60.1816 25.0547 60.1816 24.644C60.1816 24.16 60.0349 23.764 59.7416 23.456C59.4629 23.1333 59.0376 22.884 58.4656 22.708L55.3196 21.696C54.0436 21.3 53.0829 20.706 52.4376 19.914C51.7922 19.122 51.4696 18.1907 51.4696 17.12C51.4696 16.1813 51.6969 15.3527 52.1516 14.634C52.6209 13.9153 53.2662 13.358 54.0876 12.962C54.9236 12.5513 55.8769 12.346 56.9476 12.346C57.9302 12.346 58.8322 12.522 59.6536 12.874C60.4749 13.2113 61.1789 13.688 61.7656 14.304C62.3669 14.9053 62.8142 15.6167 63.1076 16.438L60.6436 17.538C60.3209 16.7167 59.8369 16.086 59.1916 15.646C58.5462 15.1913 57.7982 14.964 56.9476 14.964C56.4489 14.964 56.0089 15.052 55.6276 15.228C55.2462 15.3893 54.9456 15.624 54.7256 15.932C54.5202 16.2253 54.4176 16.5773 54.4176 16.988C54.4176 17.4427 54.5642 17.846 54.8576 18.198C55.1509 18.5353 55.5982 18.7993 56.1996 18.99L59.2136 19.936C60.5189 20.3613 61.4942 20.948 62.1396 21.696C62.7996 22.444 63.1296 23.368 63.1296 24.468C63.1296 25.4067 62.8876 26.2353 62.4036 26.954C61.9196 27.6727 61.2522 28.2373 60.4016 28.648C59.5509 29.0587 58.5609 29.264 57.4316 29.264ZM71.3457 29.264C70.1577 29.264 69.087 28.9927 68.1337 28.45C67.195 27.8927 66.4544 27.1447 65.9117 26.206C65.369 25.2527 65.0977 24.182 65.0977 22.994C65.0977 21.806 65.369 20.7427 65.9117 19.804C66.4544 18.8653 67.195 18.1247 68.1337 17.582C69.087 17.0393 70.1577 16.768 71.3457 16.768C72.1964 16.768 72.9884 16.922 73.7217 17.23C74.455 17.5233 75.0857 17.934 75.6137 18.462C76.1564 18.9753 76.545 19.5913 76.7797 20.31L74.2497 21.41C74.0297 20.8087 73.6557 20.3247 73.1277 19.958C72.6144 19.5913 72.0204 19.408 71.3457 19.408C70.715 19.408 70.1504 19.562 69.6517 19.87C69.1677 20.178 68.7864 20.6033 68.5077 21.146C68.229 21.6887 68.0897 22.312 68.0897 23.016C68.0897 23.72 68.229 24.3433 68.5077 24.886C68.7864 25.4287 69.1677 25.854 69.6517 26.162C70.1504 26.47 70.715 26.624 71.3457 26.624C72.035 26.624 72.6364 26.4407 73.1497 26.074C73.663 25.7073 74.0297 25.216 74.2497 24.6L76.7797 25.744C76.545 26.4187 76.1637 27.0273 75.6357 27.57C75.1077 28.098 74.477 28.516 73.7437 28.824C73.0104 29.1173 72.211 29.264 71.3457 29.264ZM84.8185 29.264C83.6451 29.264 82.5745 28.9927 81.6065 28.45C80.6531 27.9073 79.8905 27.1667 79.3185 26.228C78.7611 25.2893 78.4825 24.2187 78.4825 23.016C78.4825 21.8133 78.7611 20.7427 79.3185 19.804C79.8905 18.8653 80.6531 18.1247 81.6065 17.582C82.5598 17.0393 83.6305 16.768 84.8185 16.768C85.9918 16.768 87.0551 17.0393 88.0085 17.582C88.9618 18.1247 89.7171 18.8653 90.2745 19.804C90.8465 20.728 91.1325 21.7987 91.1325 23.016C91.1325 24.2187 90.8465 25.2893 90.2745 26.228C89.7025 27.1667 88.9398 27.9073 87.9865 28.45C87.0331 28.9927 85.9771 29.264 84.8185 29.264ZM84.8185 26.624C85.4638 26.624 86.0285 26.47 86.5125 26.162C87.0111 25.854 87.3998 25.4287 87.6785 24.886C87.9718 24.3287 88.1185 23.7053 88.1185 23.016C88.1185 22.312 87.9718 21.696 87.6785 21.168C87.3998 20.6253 87.0111 20.2 86.5125 19.892C86.0285 19.5693 85.4638 19.408 84.8185 19.408C84.1585 19.408 83.5791 19.5693 83.0805 19.892C82.5818 20.2 82.1858 20.6253 81.8925 21.168C81.6138 21.696 81.4745 22.312 81.4745 23.016C81.4745 23.7053 81.6138 24.3287 81.8925 24.886C82.1858 25.4287 82.5818 25.854 83.0805 26.162C83.5791 26.47 84.1585 26.624 84.8185 26.624ZM99.17 29.264C97.9967 29.264 96.926 28.9927 95.958 28.45C95.0047 27.9073 94.242 27.1667 93.67 26.228C93.1127 25.2893 92.834 24.2187 92.834 23.016C92.834 21.8133 93.1127 20.7427 93.67 19.804C94.242 18.8653 95.0047 18.1247 95.958 17.582C96.9114 17.0393 97.982 16.768 99.17 16.768C100.343 16.768 101.407 17.0393 102.36 17.582C103.313 18.1247 104.069 18.8653 104.626 19.804C105.198 20.728 105.484 21.7987 105.484 23.016C105.484 24.2187 105.198 25.2893 104.626 26.228C104.054 27.1667 103.291 27.9073 102.338 28.45C101.385 28.9927 100.329 29.264 99.17 29.264ZM99.17 26.624C99.8154 26.624 100.38 26.47 100.864 26.162C101.363 25.854 101.751 25.4287 102.03 24.886C102.323 24.3287 102.47 23.7053 102.47 23.016C102.47 22.312 102.323 21.696 102.03 21.168C101.751 20.6253 101.363 20.2 100.864 19.892C100.38 19.5693 99.8154 19.408 99.17 19.408C98.51 19.408 97.9307 19.5693 97.432 19.892C96.9334 20.2 96.5374 20.6253 96.244 21.168C95.9654 21.696 95.826 22.312 95.826 23.016C95.826 23.7053 95.9654 24.3287 96.244 24.886C96.5374 25.4287 96.9334 25.854 97.432 26.162C97.9307 26.47 98.51 26.624 99.17 26.624ZM107.67 29V12.346H110.552V29H107.67ZM117.767 29.264C116.491 29.264 115.376 28.9633 114.423 28.362C113.484 27.746 112.839 26.9173 112.487 25.876L114.643 24.842C114.951 25.5167 115.376 26.0447 115.919 26.426C116.476 26.8073 117.092 26.998 117.767 26.998C118.295 26.998 118.713 26.8807 119.021 26.646C119.329 26.4113 119.483 26.1033 119.483 25.722C119.483 25.4873 119.417 25.2967 119.285 25.15C119.167 24.9887 118.999 24.8567 118.779 24.754C118.573 24.6367 118.346 24.5413 118.097 24.468L116.139 23.918C115.127 23.6247 114.357 23.1773 113.829 22.576C113.315 21.9747 113.059 21.2633 113.059 20.442C113.059 19.7087 113.242 19.0707 113.609 18.528C113.99 17.9707 114.511 17.538 115.171 17.23C115.845 16.922 116.615 16.768 117.481 16.768C118.61 16.768 119.607 17.0393 120.473 17.582C121.338 18.1247 121.954 18.8873 122.321 19.87L120.121 20.904C119.915 20.3613 119.571 19.9287 119.087 19.606C118.603 19.2833 118.06 19.122 117.459 19.122C116.975 19.122 116.593 19.232 116.315 19.452C116.036 19.672 115.897 19.958 115.897 20.31C115.897 20.53 115.955 20.7207 116.073 20.882C116.19 21.0433 116.351 21.1753 116.557 21.278C116.777 21.3807 117.026 21.476 117.305 21.564L119.219 22.136C120.201 22.4293 120.957 22.8693 121.485 23.456C122.027 24.0427 122.299 24.7613 122.299 25.612C122.299 26.3307 122.108 26.9687 121.727 27.526C121.345 28.0687 120.817 28.494 120.143 28.802C119.468 29.11 118.676 29.264 117.767 29.264ZM124.513 33.4V17.032H127.219V19.408L126.955 18.814C127.366 18.1687 127.923 17.67 128.627 17.318C129.331 16.9513 130.145 16.768 131.069 16.768C132.199 16.768 133.218 17.0467 134.127 17.604C135.037 18.1613 135.755 18.9093 136.283 19.848C136.826 20.7867 137.097 21.8427 137.097 23.016C137.097 24.1747 136.833 25.2307 136.305 26.184C135.777 27.1373 135.059 27.8927 134.149 28.45C133.24 28.9927 132.206 29.264 131.047 29.264C130.182 29.264 129.383 29.0953 128.649 28.758C127.931 28.406 127.359 27.9073 126.933 27.262L127.395 26.69V33.4H124.513ZM130.717 26.624C131.377 26.624 131.964 26.47 132.477 26.162C132.991 25.854 133.387 25.4287 133.665 24.886C133.959 24.3433 134.105 23.72 134.105 23.016C134.105 22.312 133.959 21.696 133.665 21.168C133.387 20.6253 132.991 20.2 132.477 19.892C131.964 19.5693 131.377 19.408 130.717 19.408C130.087 19.408 129.515 19.562 129.001 19.87C128.503 20.178 128.107 20.6107 127.813 21.168C127.535 21.7107 127.395 22.3267 127.395 23.016C127.395 23.72 127.535 24.3433 127.813 24.886C128.107 25.4287 128.503 25.854 129.001 26.162C129.515 26.47 130.087 26.624 130.717 26.624ZM142.925 29.264C142.089 29.264 141.363 29.1247 140.747 28.846C140.131 28.5673 139.654 28.1713 139.317 27.658C138.979 27.13 138.811 26.5213 138.811 25.832C138.811 25.172 138.957 24.5853 139.251 24.072C139.544 23.544 139.999 23.104 140.615 22.752C141.231 22.4 142.008 22.1507 142.947 22.004L146.863 21.366V23.566L143.497 24.138C142.925 24.2407 142.499 24.424 142.221 24.688C141.942 24.952 141.803 25.2967 141.803 25.722C141.803 26.1327 141.957 26.4627 142.265 26.712C142.587 26.9467 142.983 27.064 143.453 27.064C144.054 27.064 144.582 26.9393 145.037 26.69C145.506 26.426 145.865 26.0667 146.115 25.612C146.379 25.1573 146.511 24.6587 146.511 24.116V21.036C146.511 20.5227 146.305 20.0973 145.895 19.76C145.499 19.408 144.971 19.232 144.311 19.232C143.695 19.232 143.145 19.4007 142.661 19.738C142.191 20.0607 141.847 20.4933 141.627 21.036L139.273 19.892C139.507 19.2613 139.874 18.7187 140.373 18.264C140.886 17.7947 141.487 17.428 142.177 17.164C142.866 16.9 143.614 16.768 144.421 16.768C145.403 16.768 146.269 16.9513 147.017 17.318C147.765 17.67 148.344 18.1687 148.755 18.814C149.18 19.4447 149.393 20.1853 149.393 21.036V29H146.665V26.954L147.281 26.91C146.973 27.4233 146.606 27.856 146.181 28.208C145.755 28.5453 145.271 28.8093 144.729 29C144.186 29.176 143.585 29.264 142.925 29.264ZM157.82 29.264C156.632 29.264 155.562 28.9927 154.608 28.45C153.67 27.8927 152.929 27.1447 152.386 26.206C151.844 25.2527 151.572 24.182 151.572 22.994C151.572 21.806 151.844 20.7427 152.386 19.804C152.929 18.8653 153.67 18.1247 154.608 17.582C155.562 17.0393 156.632 16.768 157.82 16.768C158.671 16.768 159.463 16.922 160.196 17.23C160.93 17.5233 161.56 17.934 162.088 18.462C162.631 18.9753 163.02 19.5913 163.254 20.31L160.724 21.41C160.504 20.8087 160.13 20.3247 159.602 19.958C159.089 19.5913 158.495 19.408 157.82 19.408C157.19 19.408 156.625 19.562 156.126 19.87C155.642 20.178 155.261 20.6033 154.982 21.146C154.704 21.6887 154.564 22.312 154.564 23.016C154.564 23.72 154.704 24.3433 154.982 24.886C155.261 25.4287 155.642 25.854 156.126 26.162C156.625 26.47 157.19 26.624 157.82 26.624C158.51 26.624 159.111 26.4407 159.624 26.074C160.138 25.7073 160.504 25.216 160.724 24.6L163.254 25.744C163.02 26.4187 162.638 27.0273 162.11 27.57C161.582 28.098 160.952 28.516 160.218 28.824C159.485 29.1173 158.686 29.264 157.82 29.264ZM171.117 29.264C169.885 29.264 168.807 28.9853 167.883 28.428C166.959 27.8707 166.24 27.1153 165.727 26.162C165.214 25.2087 164.957 24.1527 164.957 22.994C164.957 21.7913 165.214 20.728 165.727 19.804C166.255 18.8653 166.966 18.1247 167.861 17.582C168.77 17.0393 169.782 16.768 170.897 16.768C171.836 16.768 172.657 16.922 173.361 17.23C174.08 17.538 174.688 17.9633 175.187 18.506C175.686 19.0487 176.067 19.672 176.331 20.376C176.595 21.0653 176.727 21.8133 176.727 22.62C176.727 22.8253 176.712 23.038 176.683 23.258C176.668 23.478 176.632 23.6687 176.573 23.83H167.333V21.63H174.945L173.581 22.664C173.713 21.9893 173.676 21.388 173.471 20.86C173.28 20.332 172.958 19.914 172.503 19.606C172.063 19.298 171.528 19.144 170.897 19.144C170.296 19.144 169.76 19.298 169.291 19.606C168.822 19.8993 168.462 20.3393 168.213 20.926C167.978 21.498 167.89 22.1947 167.949 23.016C167.89 23.7493 167.986 24.402 168.235 24.974C168.499 25.5313 168.88 25.964 169.379 26.272C169.892 26.58 170.479 26.734 171.139 26.734C171.799 26.734 172.356 26.5947 172.811 26.316C173.28 26.0373 173.647 25.6633 173.911 25.194L176.243 26.338C176.008 26.91 175.642 27.416 175.143 27.856C174.644 28.296 174.05 28.6407 173.361 28.89C172.686 29.1393 171.938 29.264 171.117 29.264Z" fill="white"/>
</svg>
