<svg width="178" height="41" viewBox="0 0 178 41" fill="none" xmlns="http://www.w3.org/2000/svg">
<path d="M27.671 39.6821C22.5791 40.2931 17.4253 40.2931 12.3246 39.6821C6.10804 38.9294 1.21098 34.0323 0.458269 27.8158C-0.152756 22.7151 -0.152756 17.5701 0.458269 12.4693C1.21098 6.25281 6.10804 1.35576 12.3246 0.603044C17.4164 -0.00798088 22.5703 -0.00798088 27.671 0.603044C33.8875 1.35576 38.7846 6.25281 39.5373 12.4693C40.1483 17.5612 40.1483 22.7151 39.5373 27.8158C38.7846 34.0323 33.8875 38.9294 27.671 39.6821Z" fill="#00ADE6"/>
<path d="M31.5232 8.6084H19.9934V20.1382H31.5232V8.6084Z" fill="white"/>
<path d="M19.9934 20.1382H8.46362V31.668H19.9934V20.1382Z" fill="#00223A"/>
<path d="M57.4316 29.4066C56.4049 29.4066 55.4516 29.2159 54.5716 28.8346C53.6916 28.4386 52.9436 27.9032 52.3276 27.2286C51.7116 26.5539 51.2569 25.7766 50.9636 24.8966L53.1636 23.9726C53.5596 24.9846 54.1389 25.7619 54.9016 26.3046C55.6643 26.8472 56.5443 27.1186 57.5416 27.1186C58.1283 27.1186 58.6416 27.0306 59.0816 26.8546C59.5216 26.6639 59.8589 26.3999 60.0936 26.0626C60.3429 25.7252 60.4676 25.3366 60.4676 24.8966C60.4676 24.2952 60.2989 23.8186 59.9616 23.4666C59.6243 23.1146 59.1256 22.8359 58.4656 22.6306L55.3856 21.6626C54.1536 21.2812 53.2149 20.7019 52.5696 19.9246C51.9243 19.1326 51.6016 18.2086 51.6016 17.1526C51.6016 16.2286 51.8289 15.4219 52.2836 14.7326C52.7383 14.0286 53.3616 13.4786 54.1536 13.0826C54.9603 12.6866 55.8769 12.4886 56.9036 12.4886C57.8863 12.4886 58.7809 12.6646 59.5876 13.0166C60.3943 13.3539 61.0836 13.8232 61.6556 14.4246C62.2423 15.0259 62.6676 15.7226 62.9316 16.5146L60.7756 17.4606C60.4529 16.5952 59.9469 15.9279 59.2576 15.4586C58.5829 14.9892 57.7983 14.7546 56.9036 14.7546C56.3609 14.7546 55.8843 14.8499 55.4736 15.0406C55.0629 15.2166 54.7403 15.4806 54.5056 15.8326C54.2856 16.1699 54.1756 16.5659 54.1756 17.0206C54.1756 17.5486 54.3443 18.0179 54.6816 18.4286C55.0189 18.8392 55.5323 19.1472 56.2216 19.3526L59.0816 20.2546C60.3869 20.6506 61.3696 21.2226 62.0296 21.9706C62.6896 22.7039 63.0196 23.6206 63.0196 24.7206C63.0196 25.6299 62.7776 26.4366 62.2936 27.1406C61.8243 27.8446 61.1716 28.4019 60.3356 28.8126C59.4996 29.2086 58.5316 29.4066 57.4316 29.4066ZM71.3457 29.4066C70.1577 29.4066 69.1017 29.1352 68.1777 28.5926C67.2684 28.0352 66.5424 27.2872 65.9997 26.3486C65.4717 25.4099 65.2077 24.3466 65.2077 23.1586C65.2077 21.9852 65.4717 20.9292 65.9997 19.9906C66.5277 19.0519 67.2537 18.3186 68.1777 17.7906C69.1017 17.2479 70.1577 16.9766 71.3457 16.9766C72.1524 16.9766 72.9077 17.1232 73.6117 17.4166C74.3157 17.6952 74.9244 18.0839 75.4377 18.5826C75.9657 19.0812 76.3544 19.6606 76.6037 20.3206L74.4257 21.3326C74.1764 20.7166 73.7731 20.2252 73.2157 19.8586C72.6731 19.4772 72.0497 19.2866 71.3457 19.2866C70.6711 19.2866 70.0624 19.4552 69.5197 19.7926C68.9917 20.1152 68.5737 20.5772 68.2657 21.1786C67.9577 21.7652 67.8037 22.4326 67.8037 23.1806C67.8037 23.9286 67.9577 24.6032 68.2657 25.2046C68.5737 25.7912 68.9917 26.2532 69.5197 26.5906C70.0624 26.9279 70.6711 27.0966 71.3457 27.0966C72.0644 27.0966 72.6877 26.9132 73.2157 26.5466C73.7584 26.1652 74.1617 25.6592 74.4257 25.0286L76.6037 26.0626C76.3691 26.6932 75.9877 27.2652 75.4597 27.7786C74.9464 28.2772 74.3377 28.6732 73.6337 28.9666C72.9297 29.2599 72.1671 29.4066 71.3457 29.4066ZM84.7755 29.4066C83.6315 29.4066 82.5829 29.1352 81.6295 28.5926C80.6909 28.0499 79.9429 27.3092 79.3855 26.3706C78.8282 25.4319 78.5495 24.3686 78.5495 23.1806C78.5495 21.9779 78.8282 20.9146 79.3855 19.9906C79.9429 19.0519 80.6909 18.3186 81.6295 17.7906C82.5682 17.2479 83.6169 16.9766 84.7755 16.9766C85.9489 16.9766 86.9975 17.2479 87.9215 17.7906C88.8602 18.3186 89.6009 19.0519 90.1435 19.9906C90.7009 20.9146 90.9795 21.9779 90.9795 23.1806C90.9795 24.3832 90.7009 25.4539 90.1435 26.3926C89.5862 27.3312 88.8382 28.0719 87.8995 28.6146C86.9609 29.1426 85.9195 29.4066 84.7755 29.4066ZM84.7755 27.0966C85.4795 27.0966 86.1029 26.9279 86.6455 26.5906C87.1882 26.2532 87.6135 25.7912 87.9215 25.2046C88.2442 24.6032 88.4055 23.9286 88.4055 23.1806C88.4055 22.4326 88.2442 21.7652 87.9215 21.1786C87.6135 20.5919 87.1882 20.1299 86.6455 19.7926C86.1029 19.4552 85.4795 19.2866 84.7755 19.2866C84.0862 19.2866 83.4629 19.4552 82.9055 19.7926C82.3629 20.1299 81.9302 20.5919 81.6075 21.1786C81.2995 21.7652 81.1455 22.4326 81.1455 23.1806C81.1455 23.9286 81.2995 24.6032 81.6075 25.2046C81.9302 25.7912 82.3629 26.2532 82.9055 26.5906C83.4629 26.9279 84.0862 27.0966 84.7755 27.0966ZM99.1486 29.4066C98.0046 29.4066 96.9559 29.1352 96.0026 28.5926C95.0639 28.0499 94.3159 27.3092 93.7586 26.3706C93.2013 25.4319 92.9226 24.3686 92.9226 23.1806C92.9226 21.9779 93.2013 20.9146 93.7586 19.9906C94.3159 19.0519 95.0639 18.3186 96.0026 17.7906C96.9413 17.2479 97.9899 16.9766 99.1486 16.9766C100.322 16.9766 101.371 17.2479 102.295 17.7906C103.233 18.3186 103.974 19.0519 104.517 19.9906C105.074 20.9146 105.353 21.9779 105.353 23.1806C105.353 24.3832 105.074 25.4539 104.517 26.3926C103.959 27.3312 103.211 28.0719 102.273 28.6146C101.334 29.1426 100.293 29.4066 99.1486 29.4066ZM99.1486 27.0966C99.8526 27.0966 100.476 26.9279 101.019 26.5906C101.561 26.2532 101.987 25.7912 102.295 25.2046C102.617 24.6032 102.779 23.9286 102.779 23.1806C102.779 22.4326 102.617 21.7652 102.295 21.1786C101.987 20.5919 101.561 20.1299 101.019 19.7926C100.476 19.4552 99.8526 19.2866 99.1486 19.2866C98.4593 19.2866 97.8359 19.4552 97.2786 19.7926C96.7359 20.1299 96.3033 20.5919 95.9806 21.1786C95.6726 21.7652 95.5186 22.4326 95.5186 23.1806C95.5186 23.9286 95.6726 24.6032 95.9806 25.2046C96.3033 25.7912 96.7359 26.2532 97.2786 26.5906C97.8359 26.9279 98.4593 27.0966 99.1486 27.0966ZM107.78 29.1426V12.4886H110.266V29.1426H107.78ZM117.572 29.4066C116.355 29.4066 115.284 29.1059 114.36 28.5046C113.451 27.9032 112.813 27.0966 112.446 26.0846L114.36 25.1826C114.683 25.8572 115.123 26.3926 115.68 26.7886C116.252 27.1846 116.883 27.3826 117.572 27.3826C118.159 27.3826 118.636 27.2506 119.002 26.9866C119.369 26.7226 119.552 26.3632 119.552 25.9086C119.552 25.6152 119.472 25.3806 119.31 25.2046C119.149 25.0139 118.944 24.8599 118.694 24.7426C118.46 24.6252 118.218 24.5372 117.968 24.4786L116.098 23.9506C115.072 23.6572 114.302 23.2172 113.788 22.6306C113.29 22.0292 113.04 21.3326 113.04 20.5406C113.04 19.8219 113.224 19.1986 113.59 18.6706C113.957 18.1279 114.463 17.7099 115.108 17.4166C115.754 17.1232 116.48 16.9766 117.286 16.9766C118.372 16.9766 119.34 17.2479 120.19 17.7906C121.041 18.3186 121.642 19.0592 121.994 20.0126L120.08 20.9146C119.846 20.3426 119.472 19.8879 118.958 19.5506C118.46 19.2132 117.895 19.0446 117.264 19.0446C116.722 19.0446 116.289 19.1766 115.966 19.4406C115.644 19.6899 115.482 20.0199 115.482 20.4306C115.482 20.7092 115.556 20.9439 115.702 21.1346C115.849 21.3106 116.04 21.4572 116.274 21.5746C116.509 21.6772 116.751 21.7652 117 21.8386L118.936 22.4106C119.919 22.6892 120.674 23.1292 121.202 23.7306C121.73 24.3172 121.994 25.0212 121.994 25.8426C121.994 26.5466 121.804 27.1699 121.422 27.7126C121.056 28.2406 120.542 28.6586 119.882 28.9666C119.222 29.2599 118.452 29.4066 117.572 29.4066ZM124.43 33.5426V17.2406H126.806V19.7046L126.52 19.1326C126.96 18.4579 127.547 17.9299 128.28 17.5486C129.013 17.1672 129.849 16.9766 130.788 16.9766C131.917 16.9766 132.929 17.2479 133.824 17.7906C134.733 18.3332 135.445 19.0739 135.958 20.0126C136.486 20.9512 136.75 22.0072 136.75 23.1806C136.75 24.3539 136.486 25.4099 135.958 26.3486C135.445 27.2872 134.741 28.0352 133.846 28.5926C132.951 29.1352 131.932 29.4066 130.788 29.4066C129.864 29.4066 129.021 29.2159 128.258 28.8346C127.51 28.4532 126.931 27.9032 126.52 27.1846L126.916 26.7226V33.5426H124.43ZM130.546 27.0966C131.25 27.0966 131.873 26.9279 132.416 26.5906C132.959 26.2532 133.384 25.7912 133.692 25.2046C134.015 24.6032 134.176 23.9286 134.176 23.1806C134.176 22.4326 134.015 21.7652 133.692 21.1786C133.384 20.5919 132.959 20.1299 132.416 19.7926C131.873 19.4552 131.25 19.2866 130.546 19.2866C129.857 19.2866 129.233 19.4552 128.676 19.7926C128.133 20.1299 127.701 20.5919 127.378 21.1786C127.07 21.7652 126.916 22.4326 126.916 23.1806C126.916 23.9286 127.07 24.6032 127.378 25.2046C127.701 25.7912 128.133 26.2532 128.676 26.5906C129.233 26.9279 129.857 27.0966 130.546 27.0966ZM142.732 29.4066C141.926 29.4066 141.214 29.2672 140.598 28.9886C139.997 28.6952 139.528 28.2992 139.19 27.8006C138.853 27.2872 138.684 26.6859 138.684 25.9966C138.684 25.3512 138.824 24.7719 139.102 24.2586C139.396 23.7452 139.843 23.3126 140.444 22.9606C141.046 22.6086 141.801 22.3592 142.71 22.2126L146.846 21.5306V23.4886L143.194 24.1266C142.534 24.2439 142.05 24.4566 141.742 24.7646C141.434 25.0579 141.28 25.4392 141.28 25.9086C141.28 26.3632 141.449 26.7372 141.786 27.0306C142.138 27.3092 142.586 27.4486 143.128 27.4486C143.803 27.4486 144.39 27.3019 144.888 27.0086C145.402 26.7152 145.798 26.3266 146.076 25.8426C146.355 25.3439 146.494 24.7939 146.494 24.1926V21.1346C146.494 20.5479 146.274 20.0712 145.834 19.7046C145.409 19.3232 144.837 19.1326 144.118 19.1326C143.458 19.1326 142.879 19.3086 142.38 19.6606C141.896 19.9979 141.537 20.4379 141.302 20.9806L139.234 19.9466C139.454 19.3599 139.814 18.8466 140.312 18.4066C140.811 17.9519 141.39 17.5999 142.05 17.3506C142.725 17.1012 143.436 16.9766 144.184 16.9766C145.123 16.9766 145.952 17.1526 146.67 17.5046C147.404 17.8566 147.968 18.3479 148.364 18.9786C148.775 19.5946 148.98 20.3132 148.98 21.1346V29.1426H146.604V26.9866L147.11 27.0526C146.832 27.5366 146.472 27.9546 146.032 28.3066C145.607 28.6586 145.116 28.9299 144.558 29.1206C144.016 29.3112 143.407 29.4066 142.732 29.4066ZM157.541 29.4066C156.353 29.4066 155.297 29.1352 154.373 28.5926C153.464 28.0352 152.738 27.2872 152.195 26.3486C151.667 25.4099 151.403 24.3466 151.403 23.1586C151.403 21.9852 151.667 20.9292 152.195 19.9906C152.723 19.0519 153.449 18.3186 154.373 17.7906C155.297 17.2479 156.353 16.9766 157.541 16.9766C158.348 16.9766 159.103 17.1232 159.807 17.4166C160.511 17.6952 161.12 18.0839 161.633 18.5826C162.161 19.0812 162.55 19.6606 162.799 20.3206L160.621 21.3326C160.372 20.7166 159.968 20.2252 159.411 19.8586C158.868 19.4772 158.245 19.2866 157.541 19.2866C156.866 19.2866 156.258 19.4552 155.715 19.7926C155.187 20.1152 154.769 20.5772 154.461 21.1786C154.153 21.7652 153.999 22.4326 153.999 23.1806C153.999 23.9286 154.153 24.6032 154.461 25.2046C154.769 25.7912 155.187 26.2532 155.715 26.5906C156.258 26.9279 156.866 27.0966 157.541 27.0966C158.26 27.0966 158.883 26.9132 159.411 26.5466C159.954 26.1652 160.357 25.6592 160.621 25.0286L162.799 26.0626C162.564 26.6932 162.183 27.2652 161.655 27.7786C161.142 28.2772 160.533 28.6732 159.829 28.9666C159.125 29.2599 158.362 29.4066 157.541 29.4066ZM170.817 29.4066C169.629 29.4066 168.573 29.1352 167.649 28.5926C166.74 28.0352 166.028 27.2872 165.515 26.3486C165.002 25.3952 164.745 24.3319 164.745 23.1586C164.745 21.9559 165.002 20.8926 165.515 19.9686C166.043 19.0446 166.747 18.3186 167.627 17.7906C168.507 17.2479 169.504 16.9766 170.619 16.9766C171.514 16.9766 172.313 17.1306 173.017 17.4386C173.721 17.7466 174.315 18.1719 174.799 18.7146C175.283 19.2426 175.65 19.8512 175.899 20.5406C176.163 21.2299 176.295 21.9632 176.295 22.7406C176.295 22.9312 176.288 23.1292 176.273 23.3346C176.258 23.5399 176.229 23.7306 176.185 23.9066H166.703V21.9266H174.777L173.589 22.8286C173.736 22.1099 173.684 21.4719 173.435 20.9146C173.2 20.3426 172.834 19.8952 172.335 19.5726C171.851 19.2352 171.279 19.0666 170.619 19.0666C169.959 19.0666 169.372 19.2352 168.859 19.5726C168.346 19.8952 167.95 20.3646 167.671 20.9806C167.392 21.5819 167.282 22.3152 167.341 23.1806C167.268 23.9872 167.378 24.6912 167.671 25.2926C167.979 25.8939 168.404 26.3632 168.947 26.7006C169.504 27.0379 170.135 27.2066 170.839 27.2066C171.558 27.2066 172.166 27.0452 172.665 26.7226C173.178 26.3999 173.582 25.9819 173.875 25.4686L175.899 26.4586C175.664 27.0159 175.298 27.5219 174.799 27.9766C174.315 28.4166 173.728 28.7686 173.039 29.0326C172.364 29.2819 171.624 29.4066 170.817 29.4066Z" fill="#00223A"/>
</svg>
