<svg width="24" height="25" viewBox="0 0 24 25" fill="none" xmlns="http://www.w3.org/2000/svg">
<circle cx="12" cy="12.5" r="12" fill="#00111C"/>
<rect x="3" y="8.75" width="18" height="7.5" rx="3.75" fill="white"/>
<path d="M5.98368 14L5 11H5.59636L6.09435 12.5583C6.16198 12.7791 6.22346 13.0061 6.27879 13.2699C6.32797 13.0061 6.4079 12.7546 6.47552 12.5583L6.97966 11H7.56987L8.06786 12.5583C8.11705 12.7055 8.21541 13.0552 8.2646 13.2699C8.31378 13.0307 8.36911 12.8221 8.45519 12.5583L8.95932 11H9.56183L8.53511 14H7.98794L7.46536 12.3926C7.36699 12.092 7.30551 11.8589 7.27477 11.6933C7.24403 11.8405 7.18869 12.0368 7.07803 12.3988L6.55545 14H5.98368Z" fill="#00111C"/>
<path d="M10.7028 14L9.71908 11H10.3154L10.8134 12.5583C10.8811 12.7791 10.9425 13.0061 10.9979 13.2699C11.0471 13.0061 11.127 12.7546 11.1946 12.5583L11.6987 11H12.289L12.7869 12.5583C12.8361 12.7055 12.9345 13.0552 12.9837 13.2699C13.0329 13.0307 13.0882 12.8221 13.1743 12.5583L13.6784 11H14.2809L13.2542 14H12.707L12.1844 12.3926C12.0861 12.092 12.0246 11.8589 11.9939 11.6933C11.9631 11.8405 11.9078 12.0368 11.7971 12.3988L11.2745 14H10.7028Z" fill="#00111C"/>
<path d="M15.4219 14L14.4382 11H15.0345L15.5325 12.5583C15.6001 12.7791 15.6616 13.0061 15.717 13.2699C15.7661 13.0061 15.8461 12.7546 15.9137 12.5583L16.4178 11H17.008L17.506 12.5583C17.5552 12.7055 17.6536 13.0552 17.7028 13.2699C17.752 13.0307 17.8073 12.8221 17.8934 12.5583L18.3975 11H19L17.9733 14H17.4261L16.9035 12.3926C16.8052 12.092 16.7437 11.8589 16.7129 11.6933C16.6822 11.8405 16.6269 12.0368 16.5162 12.3988L15.9936 14H15.4219Z" fill="#00111C"/>
</svg>
