<svg width="32" height="38" viewBox="0 0 32 38" fill="none" xmlns="http://www.w3.org/2000/svg">
<path d="M26.509 20.0582C26.4911 17.0135 27.8706 14.7189 30.6563 13.0269C29.0982 10.7948 26.7411 9.5671 23.634 9.3305C20.692 9.09835 17.4732 11.0448 16.2947 11.0448C15.0491 11.0448 12.2009 9.41086 9.95986 9.41086C5.33486 9.48228 0.419678 13.0984 0.419678 20.4555C0.419678 22.6296 0.816999 24.8751 1.61164 27.1876C2.67414 30.2323 6.5045 37.6921 10.5 37.5716C12.5893 37.5225 14.067 36.0894 16.7857 36.0894C19.4241 36.0894 20.7902 37.5716 23.1206 37.5716C27.1518 37.5135 30.6161 30.7323 31.625 27.6787C26.2188 25.1296 26.509 20.2144 26.509 20.0582ZM21.817 6.4421C24.0804 3.7546 23.875 1.30818 23.8081 0.428711C21.8081 0.544782 19.4956 1.79032 18.1786 3.32157C16.7277 4.96443 15.875 6.99568 16.0581 9.28585C18.2188 9.45103 20.192 8.33943 21.817 6.4421Z" fill="#00111C"/>
</svg>
