<svg width="99" height="20" viewBox="0 0 99 20" fill="none" xmlns="http://www.w3.org/2000/svg">
<g opacity="0.6">
<path d="M16.6668 17.5V15.8333C16.6668 14.9493 16.3156 14.1014 15.6905 13.4763C15.0654 12.8512 14.2176 12.5 13.3335 12.5H6.66683C5.78277 12.5 4.93493 12.8512 4.30981 13.4763C3.68469 14.1014 3.3335 14.9493 3.3335 15.8333V17.5" stroke="white" stroke-width="2" stroke-linecap="round" stroke-linejoin="round"/>
<path d="M9.99984 9.16667C11.8408 9.16667 13.3332 7.67428 13.3332 5.83333C13.3332 3.99238 11.8408 2.5 9.99984 2.5C8.15889 2.5 6.6665 3.99238 6.6665 5.83333C6.6665 7.67428 8.15889 9.16667 9.99984 9.16667Z" fill="white" fill-opacity="0.5" stroke="white" stroke-width="2" stroke-linecap="round" stroke-linejoin="round"/>
<path d="M33.408 17.192C32.6613 17.192 31.968 17.0533 31.328 16.776C30.688 16.488 30.144 16.0987 29.696 15.608C29.248 15.1173 28.9173 14.552 28.704 13.912L30.304 13.24C30.592 13.976 31.0133 14.5413 31.568 14.936C32.1227 15.3307 32.7627 15.528 33.488 15.528C33.9147 15.528 34.288 15.464 34.608 15.336C34.928 15.1973 35.1733 15.0053 35.344 14.76C35.5253 14.5147 35.616 14.232 35.616 13.912C35.616 13.4747 35.4933 13.128 35.248 12.872C35.0027 12.616 34.64 12.4133 34.16 12.264L31.92 11.56C31.024 11.2827 30.3413 10.8613 29.872 10.296C29.4027 9.72 29.168 9.048 29.168 8.28C29.168 7.608 29.3333 7.02133 29.664 6.52C29.9947 6.008 30.448 5.608 31.024 5.32C31.6107 5.032 32.2773 4.888 33.024 4.888C33.7387 4.888 34.3893 5.016 34.976 5.272C35.5627 5.51733 36.064 5.85867 36.48 6.296C36.9067 6.73333 37.216 7.24 37.408 7.816L35.84 8.504C35.6053 7.87467 35.2373 7.38933 34.736 7.048C34.2453 6.70667 33.6747 6.536 33.024 6.536C32.6293 6.536 32.2827 6.60533 31.984 6.744C31.6853 6.872 31.4507 7.064 31.28 7.32C31.12 7.56533 31.04 7.85333 31.04 8.184C31.04 8.568 31.1627 8.90933 31.408 9.208C31.6533 9.50667 32.0267 9.73067 32.528 9.88L34.608 10.536C35.5573 10.824 36.272 11.24 36.752 11.784C37.232 12.3173 37.472 12.984 37.472 13.784C37.472 14.4453 37.296 15.032 36.944 15.544C36.6027 16.056 36.128 16.4613 35.52 16.76C34.912 17.048 34.208 17.192 33.408 17.192ZM43.1594 17.096C42.2527 17.096 41.5487 16.84 41.0474 16.328C40.546 15.816 40.2954 15.096 40.2954 14.168V9.976H38.7754V8.344H39.0154C39.4207 8.344 39.7354 8.22667 39.9594 7.992C40.1834 7.75733 40.2954 7.43733 40.2954 7.032V6.36H42.1034V8.344H44.0714V9.976H42.1034V14.088C42.1034 14.3867 42.1514 14.6427 42.2474 14.856C42.3434 15.0587 42.498 15.2187 42.7114 15.336C42.9247 15.4427 43.202 15.496 43.5434 15.496C43.6287 15.496 43.7247 15.4907 43.8314 15.48C43.938 15.4693 44.0394 15.4587 44.1354 15.448V17C43.986 17.0213 43.8207 17.0427 43.6394 17.064C43.458 17.0853 43.298 17.096 43.1594 17.096ZM48.9878 17.192C48.3371 17.192 47.7664 17.048 47.2758 16.76C46.7851 16.4613 46.4011 16.0507 46.1238 15.528C45.8571 14.9947 45.7238 14.3813 45.7238 13.688V8.344H47.5318V13.528C47.5318 13.9227 47.6118 14.2693 47.7718 14.568C47.9318 14.8667 48.1558 15.1013 48.4438 15.272C48.7318 15.432 49.0624 15.512 49.4358 15.512C49.8198 15.512 50.1558 15.4267 50.4438 15.256C50.7318 15.0853 50.9558 14.8453 51.1158 14.536C51.2864 14.2267 51.3718 13.864 51.3718 13.448V8.344H53.1638V17H51.4518V15.304L51.6438 15.528C51.4411 16.0613 51.1051 16.472 50.6358 16.76C50.1664 17.048 49.6171 17.192 48.9878 17.192ZM59.2748 17.192C58.4428 17.192 57.6961 16.9947 57.0348 16.6C56.3841 16.1947 55.8668 15.6507 55.4828 14.968C55.1094 14.2853 54.9228 13.5173 54.9228 12.664C54.9228 11.8107 55.1148 11.0427 55.4988 10.36C55.8828 9.67733 56.4001 9.13867 57.0508 8.744C57.7014 8.34933 58.4374 8.152 59.2588 8.152C59.9521 8.152 60.5654 8.29067 61.0988 8.568C61.6321 8.84533 62.0534 9.22933 62.3628 9.72L62.0908 10.136V4.888H63.8828V17H62.1708V15.24L62.3788 15.576C62.0801 16.0987 61.6534 16.4987 61.0988 16.776C60.5441 17.0533 59.9361 17.192 59.2748 17.192ZM59.4508 15.512C59.9521 15.512 60.4001 15.3893 60.7948 15.144C61.2001 14.8987 61.5148 14.5627 61.7388 14.136C61.9734 13.6987 62.0908 13.208 62.0908 12.664C62.0908 12.12 61.9734 11.6347 61.7388 11.208C61.5148 10.7813 61.2001 10.4453 60.7948 10.2C60.4001 9.95467 59.9521 9.832 59.4508 9.832C58.9494 9.832 58.4961 9.95467 58.0908 10.2C57.6854 10.4453 57.3708 10.7813 57.1468 11.208C56.9228 11.6347 56.8108 12.12 56.8108 12.664C56.8108 13.208 56.9228 13.6987 57.1468 14.136C57.3708 14.5627 57.6801 14.8987 58.0748 15.144C58.4801 15.3893 58.9388 15.512 59.4508 15.512ZM70.0575 17.192C69.1935 17.192 68.4255 16.9947 67.7535 16.6C67.0922 16.1947 66.5748 15.6507 66.2015 14.968C65.8282 14.2747 65.6415 13.5013 65.6415 12.648C65.6415 11.7733 65.8282 11 66.2015 10.328C66.5855 9.656 67.0975 9.128 67.7375 8.744C68.3775 8.34933 69.1028 8.152 69.9135 8.152C70.5642 8.152 71.1455 8.264 71.6575 8.488C72.1695 8.712 72.6015 9.02133 72.9535 9.416C73.3055 9.8 73.5722 10.2427 73.7535 10.744C73.9455 11.2453 74.0415 11.7787 74.0415 12.344C74.0415 12.4827 74.0362 12.6267 74.0255 12.776C74.0148 12.9253 73.9935 13.064 73.9615 13.192H67.0655V11.752H72.9375L72.0735 12.408C72.1802 11.8853 72.1428 11.4213 71.9615 11.016C71.7908 10.6 71.5242 10.2747 71.1615 10.04C70.8095 9.79467 70.3935 9.672 69.9135 9.672C69.4335 9.672 69.0068 9.79467 68.6335 10.04C68.2602 10.2747 67.9722 10.616 67.7695 11.064C67.5668 11.5013 67.4868 12.0347 67.5295 12.664C67.4762 13.2507 67.5562 13.7627 67.7695 14.2C67.9935 14.6373 68.3028 14.9787 68.6975 15.224C69.1028 15.4693 69.5615 15.592 70.0735 15.592C70.5962 15.592 71.0388 15.4747 71.4015 15.24C71.7748 15.0053 72.0682 14.7013 72.2815 14.328L73.7535 15.048C73.5828 15.4533 73.3162 15.8213 72.9535 16.152C72.6015 16.472 72.1748 16.728 71.6735 16.92C71.1828 17.1013 70.6442 17.192 70.0575 17.192ZM75.806 17V8.344H77.534V10.04L77.326 9.816C77.5393 9.272 77.8807 8.86133 78.35 8.584C78.8193 8.296 79.3633 8.152 79.982 8.152C80.622 8.152 81.1873 8.29067 81.678 8.568C82.1687 8.84533 82.5527 9.22933 82.83 9.72C83.1073 10.2107 83.246 10.776 83.246 11.416V17H81.454V11.896C81.454 11.4587 81.374 11.0907 81.214 10.792C81.054 10.4827 80.8247 10.248 80.526 10.088C80.238 9.91733 79.9073 9.832 79.534 9.832C79.1607 9.832 78.8247 9.91733 78.526 10.088C78.238 10.248 78.014 10.4827 77.854 10.792C77.694 11.1013 77.614 11.4693 77.614 11.896V17H75.806ZM88.925 17.096C88.0183 17.096 87.3143 16.84 86.813 16.328C86.3117 15.816 86.061 15.096 86.061 14.168V9.976H84.541V8.344H84.781C85.1863 8.344 85.501 8.22667 85.725 7.992C85.949 7.75733 86.061 7.43733 86.061 7.032V6.36H87.869V8.344H89.837V9.976H87.869V14.088C87.869 14.3867 87.917 14.6427 88.013 14.856C88.109 15.0587 88.2637 15.2187 88.477 15.336C88.6903 15.4427 88.9677 15.496 89.309 15.496C89.3943 15.496 89.4903 15.4907 89.597 15.48C89.7037 15.4693 89.805 15.4587 89.901 15.448V17C89.7517 17.0213 89.5863 17.0427 89.405 17.064C89.2237 17.0853 89.0637 17.096 88.925 17.096ZM94.8654 17.192C93.98 17.192 93.2014 16.9733 92.5294 16.536C91.868 16.0987 91.404 15.512 91.1374 14.776L92.5294 14.12C92.764 14.6107 93.084 15 93.4894 15.288C93.9054 15.576 94.364 15.72 94.8654 15.72C95.292 15.72 95.6387 15.624 95.9054 15.432C96.172 15.24 96.3054 14.9787 96.3054 14.648C96.3054 14.4347 96.2467 14.264 96.1294 14.136C96.012 13.9973 95.8627 13.8853 95.6814 13.8C95.5107 13.7147 95.3347 13.6507 95.1534 13.608L93.7934 13.224C93.0467 13.0107 92.4867 12.6907 92.1134 12.264C91.7507 11.8267 91.5694 11.32 91.5694 10.744C91.5694 10.2213 91.7027 9.768 91.9694 9.384C92.236 8.98933 92.604 8.68533 93.0734 8.472C93.5427 8.25867 94.0707 8.152 94.6574 8.152C95.4467 8.152 96.1507 8.34933 96.7694 8.744C97.388 9.128 97.8254 9.66667 98.0814 10.36L96.6894 11.016C96.5187 10.6 96.2467 10.2693 95.8734 10.024C95.5107 9.77867 95.1 9.656 94.6414 9.656C94.2467 9.656 93.932 9.752 93.6974 9.944C93.4627 10.1253 93.3454 10.3653 93.3454 10.664C93.3454 10.8667 93.3987 11.0373 93.5054 11.176C93.612 11.304 93.7507 11.4107 93.9214 11.496C94.092 11.5707 94.268 11.6347 94.4494 11.688L95.8574 12.104C96.572 12.3067 97.1214 12.6267 97.5054 13.064C97.8894 13.4907 98.0814 14.0027 98.0814 14.6C98.0814 15.112 97.9427 15.5653 97.6654 15.96C97.3987 16.344 97.0254 16.648 96.5454 16.872C96.0654 17.0853 95.5054 17.192 94.8654 17.192Z" fill="white"/>
</g>
</svg>
