<svg width="37" height="40" viewBox="0 0 37 40" fill="none" xmlns="http://www.w3.org/2000/svg">
<g clip-path="url(#clip0_142_214)">
<path d="M21.9973 18.2661L27.299 13.2596L3.71011 0.295125C3.36228 0.105402 2.99338 0.0210804 2.63501 0L21.9973 18.2661Z" fill="#52B469"/>
<path d="M0.316206 1.27539C0.115942 1.62322 0 2.03428 0 2.48751V37.5125C0 37.9658 0.115942 38.3663 0.316206 38.7247L20.1634 20.0053L0.316206 1.27539Z" fill="#3EB2E1"/>
<path d="M35.5625 17.8026L29.6179 14.5352L23.8313 19.995L29.6179 25.4548L35.5625 22.1873C37.2911 21.2387 37.2911 18.7512 35.5625 17.7921V17.8026Z" fill="#F2B116"/>
<path d="M21.9973 21.7339L2.63501 40C2.99338 39.9789 3.36228 39.9052 3.71011 39.7049L27.299 26.7405L21.9973 21.7339Z" fill="#E24755"/>
</g>
<defs>
<clipPath id="clip0_142_214">
<rect width="36.859" height="40" fill="white"/>
</clipPath>
</defs>
</svg>
