<svg width="40" height="40" viewBox="0 0 40 40" fill="none" xmlns="http://www.w3.org/2000/svg">
<path d="M27.671 39.5395C22.5791 40.1505 17.4253 40.1505 12.3246 39.5395C6.10804 38.7868 1.21098 33.8897 0.458269 27.6732C-0.152756 22.5725 -0.152756 17.4275 0.458269 12.3267C1.21098 6.11023 6.10804 1.21318 12.3246 0.460466C17.4164 -0.150559 22.5703 -0.150559 27.671 0.460466C33.8875 1.21318 38.7846 6.11023 39.5373 12.3267C40.1483 17.4186 40.1483 22.5725 39.5373 27.6732C38.7846 33.8897 33.8875 38.7868 27.671 39.5395Z" fill="#00ADE6"/>
<path d="M31.5232 8.46582H19.9934V19.9956H31.5232V8.46582Z" fill="white"/>
<path d="M19.9934 19.9956H8.46362V31.5254H19.9934V19.9956Z" fill="#00223A"/>
</svg>
