<svg width="332" height="208" viewBox="0 0 332 208" fill="none" xmlns="http://www.w3.org/2000/svg">
<g opacity="0.8">
<rect x="0.1" y="31.1" width="331.8" height="71.8" rx="23.9" fill="#00111C"/>
<rect x="0.1" y="31.1" width="331.8" height="71.8" rx="23.9" stroke="url(#paint0_linear_511_1167)" stroke-width="0.2"/>
<g clip-path="url(#clip0_511_1167)">
<path d="M44.4393 89.4941C38.8337 90.1695 33.1665 90.1695 27.5609 89.4941C20.7211 88.6691 15.3311 83.2791 14.5061 76.4393C13.8307 70.8337 13.8307 65.1665 14.5061 59.5609C15.3311 52.7211 20.7211 47.3311 27.5609 46.5061C33.1665 45.8307 38.8337 45.8307 44.4393 46.5061C51.2791 47.3311 56.6691 52.7211 57.4941 59.5609C58.1695 65.1665 58.1695 70.8337 57.4941 76.4393C56.6691 83.2791 51.2791 88.6691 44.4393 89.4941Z" fill="#00ADE6"/>
<path d="M48.6874 55.3125H36V67.9999H48.6874V55.3125Z" fill="white"/>
<path d="M35.9999 68H23.3125V80.6874H35.9999V68Z" fill="#00223A"/>
</g>
<path d="M79.2637 63.2461C78.4342 63.2461 77.7165 63.0934 77.1104 62.7881C76.5042 62.4827 76.0348 62.0566 75.7021 61.5098C75.374 60.9629 75.21 60.3271 75.21 59.6025V53.1357H76.9668V59.459C76.9668 59.9102 77.0557 60.3066 77.2334 60.6484C77.4157 60.9857 77.6777 61.25 78.0195 61.4414C78.3613 61.6283 78.7783 61.7217 79.2705 61.7217C79.7581 61.7217 80.1729 61.6283 80.5146 61.4414C80.8564 61.25 81.1162 60.9857 81.2939 60.6484C81.4717 60.3066 81.5605 59.9102 81.5605 59.459V53.1357H83.3174V59.6025C83.3174 60.3271 83.1533 60.9629 82.8252 61.5098C82.4971 62.0566 82.0299 62.4827 81.4238 62.7881C80.8223 63.0934 80.1022 63.2461 79.2637 63.2461ZM85.3364 65.4814V55.5283H87.0386V56.6973H87.1548C87.2915 56.4284 87.4692 56.1982 87.688 56.0068C87.9113 55.8154 88.1688 55.6673 88.4604 55.5625C88.7521 55.4577 89.0734 55.4053 89.4243 55.4053C90.0486 55.4053 90.5887 55.5625 91.0444 55.877C91.5047 56.1914 91.8602 56.638 92.1108 57.2168C92.366 57.791 92.4936 58.4723 92.4936 59.2607V59.2744C92.4936 60.0674 92.3683 60.751 92.1177 61.3252C91.867 61.8994 91.5115 62.3438 91.0513 62.6582C90.5955 62.9681 90.0532 63.123 89.4243 63.123C89.0825 63.123 88.7635 63.0706 88.4673 62.9658C88.171 62.8564 87.9113 62.7038 87.688 62.5078C87.4647 62.3118 87.2869 62.0794 87.1548 61.8105H87.0386V65.4814H85.3364ZM88.8911 61.6875C89.2785 61.6875 89.6111 61.5918 89.8891 61.4004C90.1671 61.2044 90.3813 60.9264 90.5317 60.5664C90.6821 60.2018 90.7573 59.7712 90.7573 59.2744V59.2607C90.7573 58.7549 90.6821 58.3219 90.5317 57.9619C90.3813 57.6019 90.1671 57.3262 89.8891 57.1348C89.6111 56.9388 89.2785 56.8408 88.8911 56.8408C88.5037 56.8408 88.1688 56.9388 87.8862 57.1348C87.6082 57.3262 87.3917 57.6019 87.2368 57.9619C87.0864 58.3219 87.0112 58.7526 87.0112 59.2539V59.2676C87.0112 59.7689 87.0864 60.2018 87.2368 60.5664C87.3917 60.9264 87.6105 61.2044 87.893 61.4004C88.1756 61.5918 88.5083 61.6875 88.8911 61.6875ZM97.1855 63.1504C96.4336 63.1504 95.791 62.9954 95.2578 62.6855C94.7246 62.3757 94.3167 61.929 94.0341 61.3457C93.7516 60.7624 93.6103 60.0651 93.6103 59.2539V59.2402C93.6103 58.4336 93.7516 57.7432 94.0341 57.1689C94.3167 56.5947 94.7246 56.1549 95.2578 55.8496C95.791 55.5397 96.4313 55.3848 97.1787 55.3848C97.8213 55.3848 98.3727 55.4964 98.833 55.7197C99.2978 55.9385 99.6647 56.2438 99.9336 56.6357C100.207 57.0231 100.376 57.4766 100.439 57.9961V58.0234H98.833L98.8261 58.0029C98.7487 57.6383 98.5709 57.3398 98.2929 57.1074C98.0195 56.875 97.6504 56.7588 97.1855 56.7588C96.7981 56.7588 96.4655 56.8568 96.1875 57.0527C95.914 57.2487 95.7044 57.5312 95.5586 57.9004C95.4127 58.2695 95.3398 58.7161 95.3398 59.2402V59.2539C95.3398 59.7826 95.4127 60.236 95.5586 60.6143C95.7089 60.988 95.9209 61.2751 96.1943 61.4756C96.4677 61.6715 96.7981 61.7695 97.1855 61.7695C97.6276 61.7695 97.983 61.6693 98.2519 61.4688C98.5254 61.2682 98.7145 60.972 98.8193 60.5801L98.833 60.5527L100.433 60.5459L100.426 60.6074C100.344 61.1133 100.166 61.5576 99.8925 61.9404C99.6237 62.3232 99.2636 62.6217 98.8125 62.8359C98.3613 63.0456 97.819 63.1504 97.1855 63.1504ZM105.056 63.1504C104.313 63.1504 103.673 62.9954 103.135 62.6855C102.597 62.3711 102.183 61.9245 101.891 61.3457C101.604 60.7669 101.46 60.0742 101.46 59.2676V59.2539C101.46 58.4564 101.606 57.7682 101.898 57.1895C102.19 56.6061 102.602 56.1595 103.135 55.8496C103.673 55.5397 104.313 55.3848 105.056 55.3848C105.799 55.3848 106.437 55.5397 106.97 55.8496C107.508 56.1595 107.923 56.6038 108.214 57.1826C108.506 57.7614 108.652 58.4518 108.652 59.2539V59.2676C108.652 60.0742 108.506 60.7669 108.214 61.3457C107.927 61.9245 107.515 62.3711 106.977 62.6855C106.444 62.9954 105.803 63.1504 105.056 63.1504ZM105.056 61.7695C105.448 61.7695 105.781 61.6715 106.054 61.4756C106.332 61.2751 106.544 60.9902 106.69 60.6211C106.836 60.2474 106.909 59.7985 106.909 59.2744V59.2607C106.909 58.7321 106.836 58.2832 106.69 57.9141C106.544 57.5404 106.332 57.2555 106.054 57.0596C105.781 56.859 105.448 56.7588 105.056 56.7588C104.664 56.7588 104.329 56.859 104.051 57.0596C103.773 57.2555 103.561 57.5404 103.415 57.9141C103.27 58.2832 103.197 58.7321 103.197 59.2607V59.2744C103.197 59.7985 103.27 60.2474 103.415 60.6211C103.561 60.9948 103.771 61.2796 104.044 61.4756C104.322 61.6715 104.66 61.7695 105.056 61.7695ZM110.131 63V55.5283H111.833V56.6904H111.949C112.109 56.2757 112.366 55.9544 112.722 55.7266C113.082 55.4987 113.508 55.3848 114 55.3848C114.337 55.3848 114.64 55.4395 114.909 55.5488C115.183 55.6582 115.417 55.8132 115.613 56.0137C115.809 56.2142 115.96 56.4535 116.064 56.7314H116.187C116.31 56.4626 116.481 56.2279 116.7 56.0273C116.923 55.8223 117.183 55.665 117.479 55.5557C117.78 55.4417 118.104 55.3848 118.45 55.3848C118.951 55.3848 119.38 55.485 119.735 55.6855C120.095 55.8815 120.371 56.1641 120.562 56.5332C120.758 56.9023 120.856 57.3444 120.856 57.8594V63H119.154V58.2764C119.154 57.9482 119.104 57.6771 119.004 57.4629C118.908 57.2487 118.76 57.0869 118.559 56.9775C118.359 56.8682 118.106 56.8135 117.801 56.8135C117.504 56.8135 117.247 56.8818 117.028 57.0186C116.809 57.1507 116.639 57.3307 116.516 57.5586C116.397 57.7865 116.338 58.0439 116.338 58.3311V63H114.636V58.1533C114.636 57.8753 114.581 57.6361 114.472 57.4355C114.367 57.235 114.212 57.0824 114.007 56.9775C113.806 56.8682 113.567 56.8135 113.289 56.8135C113.011 56.8135 112.76 56.8864 112.537 57.0322C112.318 57.1735 112.145 57.3695 112.018 57.6201C111.894 57.8662 111.833 58.1442 111.833 58.4541V63H110.131ZM122.65 63V55.5283H124.345V63H122.65ZM123.504 54.2773C123.226 54.2773 122.987 54.1794 122.787 53.9834C122.586 53.7874 122.486 53.5527 122.486 53.2793C122.486 52.9967 122.586 52.7598 122.787 52.5684C122.987 52.3724 123.226 52.2744 123.504 52.2744C123.782 52.2744 124.019 52.3724 124.215 52.5684C124.416 52.7598 124.516 52.9967 124.516 53.2793C124.516 53.5527 124.416 53.7874 124.215 53.9834C124.019 54.1794 123.782 54.2773 123.504 54.2773ZM126.214 63V55.5283H127.916V56.6768H128.032C128.21 56.2712 128.479 55.9544 128.839 55.7266C129.199 55.4987 129.648 55.3848 130.185 55.3848C131.019 55.3848 131.657 55.6263 132.099 56.1094C132.542 56.5924 132.763 57.2783 132.763 58.167V63H131.06V58.5635C131.06 57.9801 130.937 57.5426 130.691 57.251C130.45 56.9593 130.071 56.8135 129.557 56.8135C129.219 56.8135 128.928 56.8887 128.682 57.0391C128.435 57.1895 128.246 57.4014 128.114 57.6748C127.982 57.9482 127.916 58.2718 127.916 58.6455V63H126.214ZM137.755 65.625C137.099 65.625 136.532 65.5384 136.053 65.3652C135.579 65.1921 135.205 64.946 134.932 64.627C134.659 64.3125 134.492 63.9456 134.433 63.5264L134.44 63.5059H136.135L136.149 63.5264C136.203 63.7633 136.37 63.957 136.648 64.1074C136.93 64.2624 137.309 64.3398 137.783 64.3398C138.366 64.3398 138.817 64.21 139.136 63.9502C139.46 63.6904 139.621 63.3213 139.621 62.8428V61.4072H139.505C139.364 61.6761 139.179 61.904 138.952 62.0908C138.728 62.2777 138.471 62.4189 138.179 62.5146C137.892 62.6058 137.575 62.6514 137.229 62.6514C136.6 62.6514 136.055 62.501 135.595 62.2002C135.135 61.8949 134.779 61.4733 134.529 60.9355C134.283 60.3978 134.16 59.7757 134.16 59.0693V59.0557C134.16 58.3356 134.285 57.7021 134.536 57.1553C134.786 56.6084 135.142 56.18 135.602 55.8701C136.067 55.5602 136.62 55.4053 137.263 55.4053C137.609 55.4053 137.926 55.46 138.213 55.5693C138.505 55.6787 138.76 55.8337 138.979 56.0342C139.202 56.2347 139.384 56.4762 139.526 56.7588H139.615V55.5283H141.317V62.8154C141.317 63.3896 141.171 63.8864 140.879 64.3057C140.592 64.7295 140.182 65.0553 139.649 65.2832C139.116 65.5111 138.484 65.625 137.755 65.625ZM137.755 61.2979C138.147 61.2979 138.484 61.2044 138.767 61.0176C139.05 60.8262 139.266 60.5641 139.416 60.2314C139.571 59.8988 139.649 59.5114 139.649 59.0693V59.0557C139.649 58.6136 139.571 58.2262 139.416 57.8936C139.266 57.5563 139.05 57.2943 138.767 57.1074C138.484 56.916 138.147 56.8203 137.755 56.8203C137.359 56.8203 137.022 56.916 136.744 57.1074C136.47 57.2943 136.26 57.5563 136.115 57.8936C135.973 58.2262 135.903 58.6136 135.903 59.0557V59.0693C135.903 59.5068 135.973 59.8942 136.115 60.2314C136.26 60.5641 136.47 60.8262 136.744 61.0176C137.022 61.2044 137.359 61.2979 137.755 61.2979ZM149.614 63.0342C148.757 63.0342 148.139 62.877 147.761 62.5625C147.383 62.248 147.194 61.7331 147.194 61.0176V56.8477H146.032V55.5283H147.194V53.6963H148.923V55.5283H150.495V56.8477H148.923V60.6143C148.923 60.9834 149.001 61.2546 149.156 61.4277C149.315 61.5964 149.57 61.6807 149.921 61.6807C150.044 61.6807 150.145 61.6784 150.222 61.6738C150.304 61.6647 150.395 61.6556 150.495 61.6465V62.959C150.377 62.9818 150.24 63 150.085 63.0137C149.935 63.0273 149.778 63.0342 149.614 63.0342ZM155.098 63.1504C154.356 63.1504 153.718 62.9932 153.184 62.6787C152.656 62.3643 152.248 61.9176 151.961 61.3389C151.674 60.7601 151.53 60.0742 151.53 59.2812V59.2744C151.53 58.4906 151.671 57.807 151.954 57.2236C152.241 56.6403 152.647 56.1891 153.171 55.8701C153.695 55.5465 154.31 55.3848 155.016 55.3848C155.727 55.3848 156.338 55.542 156.848 55.8564C157.363 56.1663 157.76 56.6016 158.038 57.1621C158.316 57.7227 158.455 58.3789 158.455 59.1309V59.6914H152.385V58.5498H157.621L156.814 59.6162V58.9395C156.814 58.4427 156.739 58.0303 156.589 57.7021C156.438 57.374 156.229 57.1279 155.96 56.9639C155.695 56.7998 155.388 56.7178 155.037 56.7178C154.686 56.7178 154.374 56.8044 154.1 56.9775C153.832 57.1462 153.617 57.3968 153.458 57.7295C153.303 58.0576 153.225 58.4609 153.225 58.9395V59.623C153.225 60.0833 153.303 60.4775 153.458 60.8057C153.613 61.1292 153.832 61.3799 154.114 61.5576C154.401 61.7308 154.741 61.8174 155.133 61.8174C155.438 61.8174 155.7 61.7741 155.919 61.6875C156.142 61.5964 156.322 61.4893 156.459 61.3662C156.596 61.2386 156.691 61.1178 156.746 61.0039L156.766 60.9561H158.38L158.366 61.0176C158.307 61.2591 158.197 61.5052 158.038 61.7559C157.883 62.002 157.671 62.2321 157.402 62.4463C157.138 62.6559 156.814 62.8268 156.431 62.959C156.049 63.0866 155.604 63.1504 155.098 63.1504ZM162.75 63.1504C162.117 63.1504 161.57 63.0615 161.11 62.8838C160.654 62.7015 160.294 62.4508 160.03 62.1318C159.765 61.8083 159.608 61.4346 159.558 61.0107V60.9971H161.246L161.253 61.0107C161.344 61.2705 161.515 61.4824 161.766 61.6465C162.017 61.8105 162.354 61.8926 162.778 61.8926C163.06 61.8926 163.309 61.8538 163.523 61.7764C163.737 61.6943 163.906 61.5827 164.029 61.4414C164.152 61.3001 164.213 61.1361 164.213 60.9492V60.9355C164.213 60.7168 164.124 60.5345 163.947 60.3887C163.769 60.2383 163.475 60.1175 163.065 60.0264L161.855 59.7529C161.381 59.6481 160.989 59.5023 160.679 59.3154C160.369 59.1286 160.137 58.8984 159.982 58.625C159.831 58.3516 159.756 58.0326 159.756 57.668V57.6611C159.756 57.21 159.881 56.8135 160.132 56.4717C160.387 56.1299 160.741 55.8633 161.192 55.6719C161.643 55.4805 162.162 55.3848 162.75 55.3848C163.356 55.3848 163.878 55.4759 164.316 55.6582C164.753 55.8405 165.095 56.0911 165.341 56.4102C165.587 56.7292 165.728 57.0915 165.765 57.4971V57.5107H164.165L164.158 57.4902C164.095 57.2533 163.942 57.0527 163.7 56.8887C163.463 56.7201 163.144 56.6357 162.743 56.6357C162.493 56.6357 162.267 56.6745 162.067 56.752C161.871 56.8294 161.716 56.9388 161.602 57.0801C161.492 57.2168 161.438 57.3786 161.438 57.5654V57.5723C161.438 57.7181 161.474 57.8457 161.547 57.9551C161.625 58.0645 161.745 58.1602 161.909 58.2422C162.074 58.3242 162.29 58.3971 162.559 58.4609L163.769 58.7275C164.503 58.8916 165.045 59.1354 165.396 59.459C165.747 59.7826 165.922 60.2178 165.922 60.7646V60.7783C165.922 61.2523 165.785 61.667 165.512 62.0225C165.239 62.3779 164.863 62.6559 164.384 62.8564C163.906 63.0524 163.361 63.1504 162.75 63.1504ZM170.306 63.0342C169.45 63.0342 168.832 62.877 168.454 62.5625C168.076 62.248 167.886 61.7331 167.886 61.0176V56.8477H166.724V55.5283H167.886V53.6963H169.616V55.5283H171.188V56.8477H169.616V60.6143C169.616 60.9834 169.693 61.2546 169.848 61.4277C170.008 61.5964 170.263 61.6807 170.614 61.6807C170.737 61.6807 170.837 61.6784 170.915 61.6738C170.997 61.6647 171.088 61.6556 171.188 61.6465V62.959C171.07 62.9818 170.933 63 170.778 63.0137C170.628 63.0273 170.47 63.0342 170.306 63.0342Z" fill="white"/>
<path opacity="0.6" d="M267.385 53.3457C267.771 53.3457 268.152 53.4199 268.527 53.5684C268.906 53.7168 269.248 53.957 269.553 54.2891C269.861 54.6211 270.107 55.0605 270.291 55.6074C270.475 56.1504 270.566 56.8203 270.566 57.6172V57.6289C270.566 58.5898 270.438 59.4121 270.18 60.0957C269.922 60.7754 269.551 61.2969 269.066 61.6602C268.582 62.0195 267.998 62.1992 267.314 62.1992C266.842 62.1992 266.414 62.1133 266.031 61.9414C265.652 61.7656 265.336 61.5215 265.082 61.209C264.828 60.8965 264.652 60.5332 264.555 60.1191L264.537 60.043H265.598L265.621 60.1074C265.707 60.3418 265.828 60.5449 265.984 60.7168C266.145 60.8887 266.336 61.0215 266.559 61.1152C266.785 61.209 267.041 61.2559 267.326 61.2559C267.838 61.2559 268.254 61.1074 268.574 60.8105C268.895 60.5098 269.133 60.1113 269.289 59.6152C269.445 59.1191 269.533 58.5781 269.553 57.9922C269.557 57.9375 269.559 57.8848 269.559 57.834C269.559 57.7793 269.559 57.7266 269.559 57.6758L269.307 56.2695C269.307 55.8984 269.221 55.5625 269.049 55.2617C268.881 54.9609 268.652 54.7227 268.363 54.5469C268.078 54.3672 267.756 54.2773 267.396 54.2773C267.045 54.2773 266.725 54.3652 266.436 54.541C266.146 54.7129 265.916 54.9473 265.744 55.2441C265.572 55.5371 265.486 55.8672 265.486 56.2344V56.2461C265.486 56.6211 265.568 56.9551 265.732 57.248C265.896 57.5371 266.121 57.7656 266.406 57.9336C266.691 58.0977 267.016 58.1797 267.379 58.1797C267.746 58.1797 268.074 58.0977 268.363 57.9336C268.652 57.7695 268.881 57.5449 269.049 57.2598C269.221 56.9707 269.307 56.6426 269.307 56.2754V56.2695H269.652V57.793H269.447C269.346 58.0234 269.189 58.2383 268.979 58.4375C268.771 58.6367 268.518 58.7969 268.217 58.918C267.92 59.0391 267.58 59.0996 267.197 59.0996C266.67 59.0996 266.197 58.9766 265.779 58.7305C265.361 58.4844 265.031 58.1484 264.789 57.7227C264.547 57.293 264.426 56.8086 264.426 56.2695V56.2578C264.426 55.6953 264.553 55.1953 264.807 54.7578C265.064 54.3164 265.416 53.9707 265.861 53.7207C266.311 53.4707 266.818 53.3457 267.385 53.3457ZM273.098 60.7988C272.891 60.7988 272.711 60.7246 272.559 60.5762C272.41 60.4238 272.336 60.2441 272.336 60.0371C272.336 59.8262 272.41 59.6465 272.559 59.498C272.711 59.3496 272.891 59.2754 273.098 59.2754C273.309 59.2754 273.488 59.3496 273.637 59.498C273.785 59.6465 273.859 59.8262 273.859 60.0371C273.859 60.2441 273.785 60.4238 273.637 60.5762C273.488 60.7246 273.309 60.7988 273.098 60.7988ZM273.098 56.2637C272.891 56.2637 272.711 56.1895 272.559 56.041C272.41 55.8887 272.336 55.709 272.336 55.502C272.336 55.291 272.41 55.1113 272.559 54.9629C272.711 54.8145 272.891 54.7402 273.098 54.7402C273.309 54.7402 273.488 54.8145 273.637 54.9629C273.785 55.1113 273.859 55.291 273.859 55.502C273.859 55.709 273.785 55.8887 273.637 56.041C273.488 56.1895 273.309 56.2637 273.098 56.2637ZM279.684 62V60.248H275.564V59.2871C275.795 58.9043 276.029 58.5176 276.268 58.127C276.506 57.7324 276.746 57.3398 276.988 56.9492C277.234 56.5547 277.48 56.1641 277.727 55.7773C277.973 55.3906 278.217 55.0098 278.459 54.6348C278.705 54.2598 278.947 53.8965 279.186 53.5449H280.715V59.3047H281.916V60.248H280.715V62H279.684ZM276.643 59.3105H279.689V54.5234H279.619C279.428 54.8086 279.232 55.1055 279.033 55.4141C278.834 55.7188 278.631 56.0312 278.424 56.3516C278.221 56.6719 278.018 56.9941 277.814 57.3184C277.611 57.6426 277.41 57.9668 277.211 58.291C277.016 58.6113 276.826 58.9277 276.643 59.2402V59.3105ZM285.496 62V54.7168H285.402L283.252 56.2754V55.1621L285.502 53.5449H286.551V62H285.496ZM291.83 62L294.947 53.5449H295.756V54.9102H295.422L292.938 62H291.83ZM293.242 59.5801L293.57 58.6836H297.391L297.719 59.5801H293.242ZM298 62L295.516 54.9102V53.5449H295.99L299.107 62H298ZM300.59 62V53.5449H301.814L304.709 60.5996H304.803L307.697 53.5449H308.922V62H307.938V55.543H307.422L308.605 53.7793L305.201 62H304.311L300.912 53.7793L302.09 55.543H301.574V62H300.59Z" fill="white"/>
<path d="M74.4043 82L77.5215 73.5449H78.3301V74.9102H77.9961L75.5117 82H74.4043ZM75.8164 79.5801L76.1445 78.6836H79.9648L80.293 79.5801H75.8164ZM80.5742 82L78.0898 74.9102V73.5449H78.5645L81.6816 82H80.5742ZM82.8637 82V73.1758H83.8833V82H82.8637ZM88.1884 82.1113C87.5869 82.1113 87.0693 81.9785 86.6357 81.7129C86.206 81.4473 85.874 81.0723 85.6396 80.5879C85.4091 80.0996 85.2939 79.5254 85.2939 78.8652V78.8594C85.2939 78.207 85.4091 77.6348 85.6396 77.1426C85.874 76.6504 86.2041 76.2656 86.6298 75.9883C87.0556 75.7109 87.5537 75.5723 88.124 75.5723C88.6982 75.5723 89.1904 75.7051 89.6005 75.9707C90.0146 76.2363 90.331 76.6074 90.5498 77.084C90.7724 77.5566 90.8837 78.1074 90.8837 78.7363V79.1348H85.8212V78.3203H90.3623L89.8584 79.0645V78.6602C89.8584 78.1641 89.7841 77.7559 89.6357 77.4355C89.4873 77.1152 89.2822 76.877 89.0205 76.7207C88.7587 76.5605 88.458 76.4805 88.1181 76.4805C87.7783 76.4805 87.4736 76.5645 87.2041 76.7324C86.9384 76.8965 86.7275 77.1406 86.5712 77.4648C86.415 77.7891 86.3369 78.1875 86.3369 78.6602V79.0645C86.3369 79.5137 86.413 79.8984 86.5654 80.2188C86.7177 80.5352 86.9345 80.7793 87.2158 80.9512C87.497 81.1191 87.8291 81.2031 88.2119 81.2031C88.497 81.2031 88.7451 81.1641 88.956 81.0859C89.167 81.0078 89.3408 80.9082 89.4775 80.7871C89.6142 80.666 89.7099 80.543 89.7646 80.418L89.788 80.3652H90.8076L90.7959 80.4121C90.7412 80.627 90.6435 80.8359 90.5029 81.0391C90.3662 81.2383 90.1884 81.4199 89.9697 81.584C89.7509 81.7441 89.4912 81.873 89.1904 81.9707C88.8935 82.0645 88.5595 82.1113 88.1884 82.1113ZM91.4975 82L93.6596 78.8418L91.4741 75.6836H92.6752L94.1752 78.0332H94.269L95.7514 75.6836H96.894L94.7495 78.8008L96.9233 82H95.728L94.2338 79.6152H94.1401L92.6401 82H91.4975ZM97.8066 84.1504L98.3163 80.8164H99.4823L98.5624 84.1504H97.8066ZM105.081 84.2148C105.015 84.2148 104.94 84.2109 104.858 84.2031C104.776 84.1992 104.7 84.1914 104.63 84.1797V83.3418C104.692 83.3535 104.761 83.3613 104.835 83.3652C104.909 83.3691 104.981 83.3711 105.052 83.3711C105.341 83.3711 105.577 83.2969 105.761 83.1484C105.948 83 106.099 82.7441 106.212 82.3809L106.329 82.0059L103.991 75.6836H105.081L107.026 81.5195L106.622 80.8809H107.102L106.698 81.5195L108.638 75.6836H109.71L107.243 82.3867C107.071 82.8594 106.89 83.2285 106.698 83.4941C106.507 83.7598 106.282 83.9453 106.024 84.0508C105.77 84.1602 105.456 84.2148 105.081 84.2148ZM113.189 82.1113C112.591 82.1113 112.074 81.9805 111.636 81.7188C111.202 81.4531 110.867 81.0762 110.628 80.5879C110.394 80.0996 110.277 79.5195 110.277 78.8477V78.8359C110.277 78.1602 110.394 77.5781 110.628 77.0898C110.867 76.6016 111.202 76.2266 111.636 75.9648C112.074 75.7031 112.591 75.5723 113.189 75.5723C113.79 75.5723 114.308 75.7031 114.742 75.9648C115.175 76.2266 115.509 76.6016 115.744 77.0898C115.982 77.5781 116.101 78.1602 116.101 78.8359V78.8477C116.101 79.5195 115.982 80.0996 115.744 80.5879C115.509 81.0762 115.175 81.4531 114.742 81.7188C114.308 81.9805 113.79 82.1113 113.189 82.1113ZM113.189 81.209C113.587 81.209 113.925 81.1152 114.202 80.9277C114.48 80.7402 114.691 80.4707 114.835 80.1191C114.984 79.7676 115.058 79.3438 115.058 78.8477V78.8359C115.058 78.3359 114.984 77.9102 114.835 77.5586C114.691 77.207 114.48 76.9395 114.202 76.7559C113.925 76.5684 113.587 76.4746 113.189 76.4746C112.79 76.4746 112.452 76.5684 112.175 76.7559C111.898 76.9395 111.685 77.207 111.536 77.5586C111.392 77.9102 111.32 78.3359 111.32 78.8359V78.8477C111.32 79.3438 111.392 79.7676 111.536 80.1191C111.685 80.4707 111.898 80.7402 112.175 80.9277C112.452 81.1152 112.79 81.209 113.189 81.209ZM119.568 82.1113C119.092 82.1113 118.691 82.0215 118.367 81.8418C118.043 81.6582 117.799 81.3926 117.635 81.0449C117.474 80.6934 117.394 80.2695 117.394 79.7734V75.6836H118.414V79.5273C118.414 80.0938 118.523 80.5156 118.742 80.793C118.965 81.0703 119.328 81.209 119.832 81.209C120.109 81.209 120.353 81.168 120.564 81.0859C120.779 81.0039 120.959 80.8867 121.103 80.7344C121.248 80.5781 121.355 80.3906 121.426 80.1719C121.5 79.9492 121.537 79.6992 121.537 79.4219V75.6836H122.556V82H121.537V81.0566H121.443C121.342 81.2793 121.203 81.4707 121.027 81.6309C120.851 81.7871 120.64 81.9062 120.394 81.9883C120.152 82.0703 119.877 82.1113 119.568 82.1113ZM127.434 82V73.1758H128.454V76.6328H128.548C128.708 76.2969 128.938 76.0371 129.239 75.8535C129.54 75.666 129.923 75.5723 130.388 75.5723C130.86 75.5723 131.261 75.6641 131.589 75.8477C131.917 76.0273 132.167 76.291 132.339 76.6387C132.511 76.9863 132.596 77.4102 132.596 77.9102V82H131.577V78.1562C131.577 77.5859 131.456 77.1641 131.214 76.8906C130.975 76.6133 130.604 76.4746 130.1 76.4746C129.764 76.4746 129.473 76.5469 129.227 76.6914C128.981 76.8359 128.79 77.041 128.653 77.3066C128.52 77.5723 128.454 77.8906 128.454 78.2617V82H127.434ZM135.947 82.1113C135.548 82.1113 135.189 82.0352 134.868 81.8828C134.552 81.7305 134.3 81.5137 134.113 81.2324C133.929 80.9512 133.837 80.6191 133.837 80.2363V80.2246C133.837 79.8496 133.927 79.5293 134.107 79.2637C134.286 78.9941 134.548 78.7832 134.892 78.6309C135.236 78.4785 135.652 78.3887 136.14 78.3613L138.46 78.2207V79.0352L136.263 79.1758C135.783 79.2031 135.431 79.3027 135.208 79.4746C134.99 79.6465 134.88 79.8887 134.88 80.2012V80.2129C134.88 80.5332 135.001 80.7832 135.243 80.9629C135.486 81.1387 135.79 81.2266 136.158 81.2266C136.505 81.2266 136.814 81.1582 137.083 81.0215C137.353 80.8809 137.564 80.6914 137.716 80.4531C137.872 80.2148 137.95 79.9453 137.95 79.6445V77.6758C137.95 77.2852 137.831 76.9883 137.593 76.7852C137.359 76.5781 137.005 76.4746 136.533 76.4746C136.154 76.4746 135.843 76.543 135.601 76.6797C135.359 76.8125 135.197 77.002 135.115 77.248L135.109 77.2656H134.089L134.095 77.2305C134.15 76.8984 134.286 76.6094 134.505 76.3633C134.728 76.1133 135.015 75.9199 135.366 75.7832C135.718 75.6426 136.118 75.5723 136.568 75.5723C137.083 75.5723 137.519 75.6562 137.874 75.8242C138.234 75.9922 138.505 76.2344 138.689 76.5508C138.876 76.8633 138.97 77.2383 138.97 77.6758V82H137.95V81.0684H137.857C137.724 81.291 137.562 81.4805 137.37 81.6367C137.183 81.793 136.97 81.9121 136.732 81.9941C136.493 82.0723 136.232 82.1113 135.947 82.1113ZM142.156 82L139.818 75.6836H140.896L142.625 80.8867H142.719L144.447 75.6836H145.525L143.187 82H142.156ZM148.987 82.1113C148.385 82.1113 147.867 81.9785 147.434 81.7129C147.004 81.4473 146.672 81.0723 146.438 80.5879C146.207 80.0996 146.092 79.5254 146.092 78.8652V78.8594C146.092 78.207 146.207 77.6348 146.438 77.1426C146.672 76.6504 147.002 76.2656 147.428 75.9883C147.854 75.7109 148.352 75.5723 148.922 75.5723C149.496 75.5723 149.989 75.7051 150.399 75.9707C150.813 76.2363 151.129 76.6074 151.348 77.084C151.571 77.5566 151.682 78.1074 151.682 78.7363V79.1348H146.619V78.3203H151.16L150.656 79.0645V78.6602C150.656 78.1641 150.582 77.7559 150.434 77.4355C150.285 77.1152 150.08 76.877 149.819 76.7207C149.557 76.5605 149.256 76.4805 148.916 76.4805C148.576 76.4805 148.272 76.5645 148.002 76.7324C147.737 76.8965 147.526 77.1406 147.369 77.4648C147.213 77.7891 147.135 78.1875 147.135 78.6602V79.0645C147.135 79.5137 147.211 79.8984 147.364 80.2188C147.516 80.5352 147.733 80.7793 148.014 80.9512C148.295 81.1191 148.627 81.2031 149.01 81.2031C149.295 81.2031 149.543 81.1641 149.754 81.0859C149.965 81.0078 150.139 80.9082 150.276 80.7871C150.412 80.666 150.508 80.543 150.563 80.418L150.586 80.3652H151.606L151.594 80.4121C151.539 80.627 151.442 80.8359 151.301 81.0391C151.164 81.2383 150.987 81.4199 150.768 81.584C150.549 81.7441 150.289 81.873 149.989 81.9707C149.692 82.0645 149.358 82.1113 148.987 82.1113ZM157.913 82.1113C157.515 82.1113 157.155 82.0352 156.835 81.8828C156.519 81.7305 156.267 81.5137 156.079 81.2324C155.896 80.9512 155.804 80.6191 155.804 80.2363V80.2246C155.804 79.8496 155.894 79.5293 156.073 79.2637C156.253 78.9941 156.515 78.7832 156.859 78.6309C157.202 78.4785 157.618 78.3887 158.107 78.3613L160.427 78.2207V79.0352L158.23 79.1758C157.749 79.2031 157.398 79.3027 157.175 79.4746C156.956 79.6465 156.847 79.8887 156.847 80.2012V80.2129C156.847 80.5332 156.968 80.7832 157.21 80.9629C157.452 81.1387 157.757 81.2266 158.124 81.2266C158.472 81.2266 158.78 81.1582 159.05 81.0215C159.32 80.8809 159.53 80.6914 159.683 80.4531C159.839 80.2148 159.917 79.9453 159.917 79.6445V77.6758C159.917 77.2852 159.798 76.9883 159.56 76.7852C159.325 76.5781 158.972 76.4746 158.499 76.4746C158.12 76.4746 157.81 76.543 157.568 76.6797C157.325 76.8125 157.163 77.002 157.081 77.248L157.075 77.2656H156.056L156.062 77.2305C156.116 76.8984 156.253 76.6094 156.472 76.3633C156.695 76.1133 156.982 75.9199 157.333 75.7832C157.685 75.6426 158.085 75.5723 158.534 75.5723C159.05 75.5723 159.486 75.6562 159.841 75.8242C160.2 75.9922 160.472 76.2344 160.655 76.5508C160.843 76.8633 160.937 77.2383 160.937 77.6758V82H159.917V81.0684H159.823C159.691 81.291 159.529 81.4805 159.337 81.6367C159.15 81.793 158.937 81.9121 158.698 81.9941C158.46 82.0723 158.198 82.1113 157.913 82.1113ZM167.959 82.0469C167.311 82.0469 166.84 81.916 166.547 81.6543C166.258 81.3926 166.113 80.9609 166.113 80.3594V76.5273H165.117V75.6836H166.113V74.0488H167.168V75.6836H168.551V76.5273H167.168V80.1016C167.168 80.4727 167.238 80.7402 167.379 80.9043C167.52 81.0645 167.754 81.1445 168.082 81.1445C168.172 81.1445 168.248 81.1426 168.311 81.1387C168.377 81.1348 168.457 81.1289 168.551 81.1211V81.9883C168.453 82.0039 168.356 82.0176 168.258 82.0293C168.16 82.041 168.061 82.0469 167.959 82.0469ZM172.34 82.1113C171.739 82.1113 171.221 81.9785 170.788 81.7129C170.358 81.4473 170.026 81.0723 169.792 80.5879C169.561 80.0996 169.446 79.5254 169.446 78.8652V78.8594C169.446 78.207 169.561 77.6348 169.792 77.1426C170.026 76.6504 170.356 76.2656 170.782 75.9883C171.208 75.7109 171.706 75.5723 172.276 75.5723C172.85 75.5723 173.342 75.7051 173.753 75.9707C174.167 76.2363 174.483 76.6074 174.702 77.084C174.924 77.5566 175.036 78.1074 175.036 78.7363V79.1348H169.973V78.3203H174.514L174.01 79.0645V78.6602C174.01 78.1641 173.936 77.7559 173.788 77.4355C173.639 77.1152 173.434 76.877 173.173 76.7207C172.911 76.5605 172.61 76.4805 172.27 76.4805C171.93 76.4805 171.626 76.5645 171.356 76.7324C171.09 76.8965 170.88 77.1406 170.723 77.4648C170.567 77.7891 170.489 78.1875 170.489 78.6602V79.0645C170.489 79.5137 170.565 79.8984 170.717 80.2188C170.87 80.5352 171.087 80.7793 171.368 80.9512C171.649 81.1191 171.981 81.2031 172.364 81.2031C172.649 81.2031 172.897 81.1641 173.108 81.0859C173.319 81.0078 173.493 80.9082 173.63 80.7871C173.766 80.666 173.862 80.543 173.917 80.418L173.94 80.3652H174.96L174.948 80.4121C174.893 80.627 174.796 80.8359 174.655 81.0391C174.518 81.2383 174.34 81.4199 174.122 81.584C173.903 81.7441 173.643 81.873 173.342 81.9707C173.046 82.0645 172.712 82.1113 172.34 82.1113ZM178.556 82.1113C178.087 82.1113 177.673 82.041 177.314 81.9004C176.954 81.7559 176.665 81.5547 176.446 81.2969C176.232 81.0391 176.105 80.7363 176.066 80.3887H177.109C177.194 80.6504 177.362 80.8613 177.612 81.0215C177.862 81.1816 178.189 81.2617 178.591 81.2617C178.876 81.2617 179.126 81.2207 179.341 81.1387C179.56 81.0527 179.732 80.9375 179.857 80.793C179.982 80.6445 180.044 80.4746 180.044 80.2832V80.2715C180.044 80.0566 179.958 79.875 179.786 79.7266C179.614 79.5742 179.333 79.4512 178.942 79.3574L177.964 79.123C177.569 79.0293 177.245 78.9082 176.991 78.7598C176.737 78.6074 176.55 78.4219 176.429 78.2031C176.308 77.9805 176.247 77.7188 176.247 77.418V77.4121C176.247 77.0605 176.349 76.7461 176.552 76.4688C176.759 76.1914 177.04 75.9727 177.396 75.8125C177.751 75.6523 178.151 75.5723 178.597 75.5723C179.038 75.5723 179.429 75.6426 179.769 75.7832C180.112 75.9199 180.388 76.1152 180.595 76.3691C180.806 76.623 180.935 76.9219 180.982 77.2656H179.98C179.913 77.0156 179.761 76.8125 179.523 76.6562C179.284 76.5 178.974 76.4219 178.591 76.4219C178.341 76.4219 178.118 76.4629 177.923 76.5449C177.728 76.623 177.573 76.7324 177.46 76.873C177.347 77.0137 177.29 77.1777 177.29 77.3652V77.377C177.29 77.5176 177.327 77.6426 177.401 77.752C177.476 77.8613 177.591 77.957 177.747 78.0391C177.903 78.1211 178.105 78.1934 178.351 78.2559L179.323 78.4902C179.917 78.6348 180.359 78.8418 180.648 79.1113C180.941 79.3809 181.087 79.7422 181.087 80.1953V80.207C181.087 80.582 180.976 80.9141 180.753 81.2031C180.53 81.4883 180.228 81.7109 179.845 81.8711C179.466 82.0312 179.036 82.1113 178.556 82.1113ZM184.625 82.0469C183.976 82.0469 183.505 81.916 183.213 81.6543C182.923 81.3926 182.779 80.9609 182.779 80.3594V76.5273H181.783V75.6836H182.779V74.0488H183.834V75.6836H185.216V76.5273H183.834V80.1016C183.834 80.4727 183.904 80.7402 184.045 80.9043C184.185 81.0645 184.42 81.1445 184.748 81.1445C184.838 81.1445 184.914 81.1426 184.976 81.1387C185.043 81.1348 185.123 81.1289 185.216 81.1211V81.9883C185.119 82.0039 185.021 82.0176 184.923 82.0293C184.826 82.041 184.726 82.0469 184.625 82.0469ZM189.678 82V75.6836H190.698V82H189.678ZM190.194 74.4648C190.003 74.4648 189.836 74.3965 189.696 74.2598C189.559 74.1191 189.491 73.9531 189.491 73.7617C189.491 73.5664 189.559 73.4004 189.696 73.2637C189.836 73.127 190.003 73.0586 190.194 73.0586C190.389 73.0586 190.555 73.127 190.692 73.2637C190.829 73.4004 190.897 73.5664 190.897 73.7617C190.897 73.9531 190.829 74.1191 190.692 74.2598C190.555 74.3965 190.389 74.4648 190.194 74.4648ZM192.39 82V75.6836H193.409V76.6328H193.503C193.663 76.2969 193.894 76.0371 194.194 75.8535C194.495 75.666 194.878 75.5723 195.343 75.5723C196.054 75.5723 196.599 75.7754 196.978 76.1816C197.36 76.584 197.552 77.1602 197.552 77.9102V82H196.532V78.1562C196.532 77.5859 196.411 77.1641 196.169 76.8906C195.931 76.6133 195.56 76.4746 195.056 76.4746C194.72 76.4746 194.429 76.5469 194.183 76.6914C193.937 76.8359 193.745 77.041 193.608 77.3066C193.476 77.5723 193.409 77.8906 193.409 78.2617V82H192.39ZM202.307 82V81.2734L205.166 78.1797C205.525 77.7891 205.807 77.4668 206.01 77.2129C206.213 76.9551 206.355 76.7227 206.438 76.5156C206.52 76.3086 206.561 76.082 206.561 75.8359V75.8242C206.561 75.5273 206.496 75.2617 206.367 75.0273C206.238 74.793 206.055 74.6074 205.816 74.4707C205.578 74.334 205.293 74.2656 204.961 74.2656C204.625 74.2656 204.33 74.3359 204.076 74.4766C203.822 74.6133 203.625 74.8066 203.484 75.0566C203.344 75.3027 203.273 75.5918 203.273 75.9238L203.268 75.9355L202.26 75.9297L202.248 75.9238C202.252 75.4238 202.373 74.9805 202.611 74.5938C202.85 74.2031 203.178 73.8984 203.596 73.6797C204.014 73.457 204.492 73.3457 205.031 73.3457C205.523 73.3457 205.967 73.4492 206.361 73.6562C206.756 73.8594 207.066 74.1387 207.293 74.4941C207.523 74.8496 207.639 75.2559 207.639 75.7129V75.7246C207.639 76.0449 207.582 76.3535 207.469 76.6504C207.359 76.9473 207.164 77.2773 206.883 77.6406C206.602 78 206.205 78.4434 205.693 78.9707L203.508 81.2266L203.771 80.7402V81.2266L203.514 81.0508H207.779V82H202.307ZM212.528 82V73.1758H213.548V76.6328H213.642C213.802 76.2969 214.032 76.0371 214.333 75.8535C214.634 75.666 215.017 75.5723 215.481 75.5723C215.954 75.5723 216.354 75.6641 216.683 75.8477C217.011 76.0273 217.261 76.291 217.433 76.6387C217.604 76.9863 217.69 77.4102 217.69 77.9102V82H216.671V78.1562C216.671 77.5859 216.55 77.1641 216.308 76.8906C216.069 76.6133 215.698 76.4746 215.194 76.4746C214.858 76.4746 214.567 76.5469 214.321 76.6914C214.075 76.8359 213.884 77.041 213.747 77.3066C213.614 77.5723 213.548 77.8906 213.548 78.2617V82H212.528ZM221.902 82.1113C221.304 82.1113 220.787 81.9805 220.349 81.7188C219.915 81.4531 219.58 81.0762 219.341 80.5879C219.107 80.0996 218.99 79.5195 218.99 78.8477V78.8359C218.99 78.1602 219.107 77.5781 219.341 77.0898C219.58 76.6016 219.915 76.2266 220.349 75.9648C220.787 75.7031 221.304 75.5723 221.902 75.5723C222.503 75.5723 223.021 75.7031 223.455 75.9648C223.888 76.2266 224.222 76.6016 224.456 77.0898C224.695 77.5781 224.814 78.1602 224.814 78.8359V78.8477C224.814 79.5195 224.695 80.0996 224.456 80.5879C224.222 81.0762 223.888 81.4531 223.455 81.7188C223.021 81.9805 222.503 82.1113 221.902 82.1113ZM221.902 81.209C222.3 81.209 222.638 81.1152 222.915 80.9277C223.193 80.7402 223.404 80.4707 223.548 80.1191C223.697 79.7676 223.771 79.3438 223.771 78.8477V78.8359C223.771 78.3359 223.697 77.9102 223.548 77.5586C223.404 77.207 223.193 76.9395 222.915 76.7559C222.638 76.5684 222.3 76.4746 221.902 76.4746C221.503 76.4746 221.165 76.5684 220.888 76.7559C220.611 76.9395 220.398 77.207 220.249 77.5586C220.105 77.9102 220.033 78.3359 220.033 78.8359V78.8477C220.033 79.3438 220.105 79.7676 220.249 80.1191C220.398 80.4707 220.611 80.7402 220.888 80.9277C221.165 81.1152 221.503 81.209 221.902 81.209ZM228.281 82.1113C227.805 82.1113 227.404 82.0215 227.08 81.8418C226.756 81.6582 226.512 81.3926 226.348 81.0449C226.187 80.6934 226.107 80.2695 226.107 79.7734V75.6836H227.127V79.5273C227.127 80.0938 227.236 80.5156 227.455 80.793C227.678 81.0703 228.041 81.209 228.545 81.209C228.822 81.209 229.066 81.168 229.277 81.0859C229.492 81.0039 229.672 80.8867 229.816 80.7344C229.961 80.5781 230.068 80.3906 230.139 80.1719C230.213 79.9492 230.25 79.6992 230.25 79.4219V75.6836H231.269V82H230.25V81.0566H230.156C230.055 81.2793 229.916 81.4707 229.74 81.6309C229.564 81.7871 229.353 81.9062 229.107 81.9883C228.865 82.0703 228.59 82.1113 228.281 82.1113ZM232.944 82V75.6836H233.963V76.6211H234.057C234.178 76.2891 234.383 76.0312 234.672 75.8477C234.961 75.6641 235.319 75.5723 235.745 75.5723C235.842 75.5723 235.938 75.5781 236.032 75.5898C236.129 75.5977 236.204 75.6055 236.254 75.6133V76.6035C236.149 76.584 236.045 76.5703 235.944 76.5625C235.846 76.5508 235.741 76.5449 235.627 76.5449C235.303 76.5449 235.016 76.6094 234.766 76.7383C234.516 76.8672 234.319 77.0469 234.174 77.2773C234.034 77.5078 233.963 77.7773 233.963 78.0859V82H232.944ZM239.335 82.1113C238.866 82.1113 238.452 82.041 238.093 81.9004C237.733 81.7559 237.444 81.5547 237.225 81.2969C237.011 81.0391 236.884 80.7363 236.845 80.3887H237.888C237.974 80.6504 238.141 80.8613 238.391 81.0215C238.641 81.1816 238.968 81.2617 239.37 81.2617C239.655 81.2617 239.905 81.2207 240.12 81.1387C240.339 81.0527 240.511 80.9375 240.636 80.793C240.761 80.6445 240.823 80.4746 240.823 80.2832V80.2715C240.823 80.0566 240.737 79.875 240.565 79.7266C240.393 79.5742 240.112 79.4512 239.722 79.3574L238.743 79.123C238.349 79.0293 238.024 78.9082 237.77 78.7598C237.516 78.6074 237.329 78.4219 237.208 78.2031C237.087 77.9805 237.026 77.7188 237.026 77.418V77.4121C237.026 77.0605 237.128 76.7461 237.331 76.4688C237.538 76.1914 237.819 75.9727 238.175 75.8125C238.53 75.6523 238.931 75.5723 239.376 75.5723C239.817 75.5723 240.208 75.6426 240.548 75.7832C240.891 75.9199 241.167 76.1152 241.374 76.3691C241.585 76.623 241.714 76.9219 241.761 77.2656H240.759C240.692 77.0156 240.54 76.8125 240.302 76.6562C240.063 76.5 239.753 76.4219 239.37 76.4219C239.12 76.4219 238.897 76.4629 238.702 76.5449C238.507 76.623 238.352 76.7324 238.239 76.873C238.126 77.0137 238.069 77.1777 238.069 77.3652V77.377C238.069 77.5176 238.106 77.6426 238.181 77.752C238.255 77.8613 238.37 77.957 238.526 78.0391C238.682 78.1211 238.884 78.1934 239.13 78.2559L240.102 78.4902C240.696 78.6348 241.138 78.8418 241.427 79.1113C241.72 79.3809 241.866 79.7422 241.866 80.1953V80.207C241.866 80.582 241.755 80.9141 241.532 81.2031C241.309 81.4883 241.007 81.7109 240.624 81.8711C240.245 82.0312 239.815 82.1113 239.335 82.1113Z" fill="white"/>
<g opacity="0.4">
<path d="M43 103H289V107.8C289 117.321 289 122.081 287.147 125.718C285.517 128.917 282.917 131.517 279.718 133.147C276.081 135 271.321 135 261.8 135H70.2C60.6791 135 55.9187 135 52.2822 133.147C49.0834 131.517 46.4827 128.917 44.8529 125.718C43 122.081 43 117.321 43 107.8V103Z" fill="#00111C" fill-opacity="0.6"/>
<path opacity="0.4" d="M100.315 116.176C99.7686 116.176 99.2933 116.091 98.8896 115.922C98.4893 115.753 98.1735 115.517 97.9424 115.214C97.7113 114.911 97.5811 114.558 97.5518 114.154L97.5469 114.086H98.7676L98.7725 114.135C98.792 114.333 98.8701 114.506 99.0068 114.652C99.1468 114.799 99.3324 114.914 99.5635 114.999C99.7946 115.08 100.058 115.121 100.354 115.121C100.638 115.121 100.888 115.077 101.106 114.989C101.325 114.901 101.495 114.781 101.619 114.628C101.743 114.472 101.805 114.293 101.805 114.091V114.086C101.805 113.832 101.705 113.625 101.507 113.466C101.308 113.303 100.981 113.173 100.525 113.075L99.7686 112.919C99.0459 112.766 98.5202 112.522 98.1914 112.187C97.8659 111.848 97.7031 111.417 97.7031 110.893V110.888C97.7031 110.468 97.8138 110.1 98.0352 109.784C98.2598 109.468 98.5674 109.223 98.958 109.047C99.3519 108.868 99.8027 108.778 100.311 108.778C100.831 108.778 101.282 108.866 101.663 109.042C102.044 109.215 102.343 109.451 102.562 109.75C102.78 110.049 102.902 110.388 102.928 110.766L102.933 110.829H101.731L101.722 110.771C101.692 110.585 101.616 110.424 101.492 110.287C101.372 110.147 101.211 110.036 101.009 109.955C100.807 109.874 100.571 109.833 100.301 109.833C100.044 109.833 99.8141 109.874 99.6123 109.955C99.4105 110.033 99.251 110.144 99.1338 110.287C99.0199 110.43 98.9629 110.603 98.9629 110.805V110.81C98.9629 111.057 99.0589 111.262 99.251 111.425C99.4463 111.588 99.7637 111.715 100.203 111.806L100.96 111.967C101.455 112.071 101.857 112.209 102.166 112.382C102.475 112.554 102.701 112.769 102.845 113.026C102.991 113.28 103.064 113.586 103.064 113.944V113.949C103.064 114.405 102.952 114.799 102.728 115.131C102.506 115.463 102.189 115.72 101.775 115.902C101.365 116.085 100.879 116.176 100.315 116.176ZM106.564 116.107C106.026 116.107 105.567 115.997 105.187 115.775C104.806 115.554 104.514 115.235 104.313 114.818C104.111 114.402 104.01 113.904 104.01 113.324V113.314C104.01 112.738 104.111 112.245 104.313 111.835C104.514 111.425 104.806 111.111 105.187 110.893C105.567 110.671 106.025 110.561 106.559 110.561C107.018 110.561 107.412 110.64 107.74 110.8C108.072 110.956 108.334 111.174 108.526 111.454C108.722 111.731 108.842 112.055 108.888 112.426V112.445H107.74L107.735 112.431C107.68 112.17 107.553 111.957 107.355 111.791C107.159 111.625 106.896 111.542 106.564 111.542C106.287 111.542 106.049 111.612 105.851 111.752C105.655 111.892 105.506 112.094 105.401 112.357C105.297 112.621 105.245 112.94 105.245 113.314V113.324C105.245 113.702 105.297 114.026 105.401 114.296C105.509 114.563 105.66 114.768 105.856 114.911C106.051 115.051 106.287 115.121 106.564 115.121C106.879 115.121 107.133 115.049 107.325 114.906C107.521 114.763 107.656 114.551 107.731 114.271L107.74 114.252L108.883 114.247L108.878 114.291C108.819 114.652 108.692 114.97 108.497 115.243C108.305 115.517 108.048 115.73 107.726 115.883C107.403 116.033 107.016 116.107 106.564 116.107ZM112.27 116.107C111.739 116.107 111.282 115.997 110.898 115.775C110.514 115.551 110.217 115.232 110.009 114.818C109.804 114.405 109.701 113.91 109.701 113.334V113.324C109.701 112.755 109.805 112.263 110.014 111.85C110.222 111.433 110.517 111.114 110.898 110.893C111.282 110.671 111.739 110.561 112.27 110.561C112.8 110.561 113.256 110.671 113.637 110.893C114.021 111.114 114.317 111.431 114.526 111.845C114.734 112.258 114.838 112.751 114.838 113.324V113.334C114.838 113.91 114.734 114.405 114.526 114.818C114.32 115.232 114.026 115.551 113.642 115.775C113.261 115.997 112.804 116.107 112.27 116.107ZM112.27 115.121C112.55 115.121 112.787 115.051 112.983 114.911C113.181 114.768 113.333 114.564 113.437 114.301C113.541 114.034 113.593 113.713 113.593 113.339V113.329C113.593 112.951 113.541 112.631 113.437 112.367C113.333 112.1 113.181 111.897 112.983 111.757C112.787 111.614 112.55 111.542 112.27 111.542C111.99 111.542 111.75 111.614 111.552 111.757C111.353 111.897 111.202 112.1 111.098 112.367C110.994 112.631 110.942 112.951 110.942 113.329V113.339C110.942 113.713 110.994 114.034 111.098 114.301C111.202 114.568 111.352 114.771 111.547 114.911C111.746 115.051 111.986 115.121 112.27 115.121ZM118.283 116.107C117.753 116.107 117.295 115.997 116.911 115.775C116.527 115.551 116.231 115.232 116.023 114.818C115.818 114.405 115.715 113.91 115.715 113.334V113.324C115.715 112.755 115.819 112.263 116.028 111.85C116.236 111.433 116.531 111.114 116.911 110.893C117.295 110.671 117.753 110.561 118.283 110.561C118.814 110.561 119.27 110.671 119.651 110.893C120.035 111.114 120.331 111.431 120.539 111.845C120.748 112.258 120.852 112.751 120.852 113.324V113.334C120.852 113.91 120.748 114.405 120.539 114.818C120.334 115.232 120.04 115.551 119.656 115.775C119.275 115.997 118.817 116.107 118.283 116.107ZM118.283 115.121C118.563 115.121 118.801 115.051 118.996 114.911C119.195 114.768 119.346 114.564 119.45 114.301C119.555 114.034 119.607 113.713 119.607 113.339V113.329C119.607 112.951 119.555 112.631 119.45 112.367C119.346 112.1 119.195 111.897 118.996 111.757C118.801 111.614 118.563 111.542 118.283 111.542C118.003 111.542 117.764 111.614 117.566 111.757C117.367 111.897 117.216 112.1 117.112 112.367C117.007 112.631 116.955 112.951 116.955 113.329V113.339C116.955 113.713 117.007 114.034 117.112 114.301C117.216 114.568 117.365 114.771 117.561 114.911C117.759 115.051 118 115.121 118.283 115.121ZM122.041 116V108.598H123.257V116H122.041ZM126.722 116.107C126.27 116.107 125.879 116.044 125.55 115.917C125.225 115.787 124.968 115.608 124.779 115.38C124.59 115.149 124.478 114.882 124.442 114.579V114.569H125.648L125.653 114.579C125.718 114.765 125.84 114.916 126.019 115.033C126.198 115.15 126.439 115.209 126.742 115.209C126.943 115.209 127.121 115.181 127.274 115.126C127.427 115.067 127.547 114.988 127.635 114.887C127.723 114.786 127.767 114.669 127.767 114.535V114.525C127.767 114.369 127.704 114.239 127.577 114.135C127.45 114.027 127.24 113.941 126.947 113.876L126.082 113.681C125.744 113.606 125.464 113.502 125.243 113.368C125.021 113.235 124.855 113.07 124.745 112.875C124.637 112.68 124.583 112.452 124.583 112.191V112.187C124.583 111.864 124.673 111.581 124.852 111.337C125.034 111.093 125.287 110.902 125.609 110.766C125.931 110.629 126.302 110.561 126.722 110.561C127.155 110.561 127.528 110.626 127.84 110.756C128.153 110.886 128.397 111.065 128.573 111.293C128.748 111.521 128.849 111.78 128.875 112.069V112.079H127.733L127.728 112.064C127.682 111.895 127.573 111.752 127.401 111.635C127.232 111.514 127.004 111.454 126.717 111.454C126.538 111.454 126.377 111.482 126.234 111.537C126.094 111.592 125.983 111.671 125.902 111.771C125.824 111.869 125.785 111.985 125.785 112.118V112.123C125.785 112.227 125.811 112.318 125.863 112.396C125.918 112.475 126.004 112.543 126.121 112.602C126.239 112.66 126.393 112.712 126.585 112.758L127.45 112.948C127.974 113.065 128.361 113.24 128.612 113.471C128.862 113.702 128.988 114.013 128.988 114.403V114.413C128.988 114.752 128.89 115.048 128.695 115.302C128.499 115.556 128.231 115.754 127.889 115.897C127.547 116.037 127.158 116.107 126.722 116.107ZM130.133 117.772V110.663H131.349V111.498H131.432C131.53 111.306 131.657 111.142 131.813 111.005C131.972 110.868 132.156 110.762 132.365 110.688C132.573 110.613 132.803 110.575 133.053 110.575C133.499 110.575 133.885 110.688 134.21 110.912C134.539 111.137 134.793 111.456 134.972 111.869C135.154 112.279 135.246 112.766 135.246 113.329V113.339C135.246 113.905 135.156 114.394 134.977 114.804C134.798 115.214 134.544 115.531 134.215 115.756C133.89 115.977 133.502 116.088 133.053 116.088C132.809 116.088 132.581 116.05 132.37 115.976C132.158 115.897 131.972 115.788 131.813 115.648C131.653 115.508 131.527 115.342 131.432 115.15H131.349V117.772H130.133ZM132.672 115.062C132.949 115.062 133.187 114.994 133.385 114.857C133.584 114.717 133.737 114.519 133.844 114.262C133.952 114.001 134.005 113.694 134.005 113.339V113.329C134.005 112.968 133.952 112.659 133.844 112.401C133.737 112.144 133.584 111.947 133.385 111.811C133.187 111.671 132.949 111.601 132.672 111.601C132.396 111.601 132.156 111.671 131.955 111.811C131.756 111.947 131.601 112.144 131.491 112.401C131.383 112.659 131.33 112.966 131.33 113.324V113.334C131.33 113.692 131.383 114.001 131.491 114.262C131.601 114.519 131.758 114.717 131.959 114.857C132.161 114.994 132.399 115.062 132.672 115.062ZM137.846 116.088C137.511 116.088 137.21 116.023 136.943 115.893C136.679 115.762 136.471 115.578 136.318 115.341C136.168 115.1 136.093 114.817 136.093 114.491V114.481C136.093 114.166 136.171 113.894 136.328 113.666C136.484 113.435 136.713 113.254 137.016 113.124C137.319 112.994 137.687 112.917 138.12 112.895L140.092 112.772V113.573L138.291 113.69C137.949 113.71 137.697 113.782 137.534 113.905C137.371 114.029 137.29 114.201 137.29 114.423V114.433C137.29 114.66 137.376 114.838 137.548 114.965C137.724 115.092 137.947 115.155 138.217 115.155C138.461 115.155 138.68 115.106 138.872 115.009C139.064 114.911 139.215 114.779 139.326 114.613C139.436 114.444 139.492 114.254 139.492 114.042V112.353C139.492 112.086 139.407 111.882 139.238 111.742C139.069 111.599 138.818 111.527 138.486 111.527C138.209 111.527 137.983 111.576 137.807 111.674C137.631 111.768 137.513 111.903 137.451 112.079L137.446 112.099H136.298L136.303 112.055C136.342 111.755 136.46 111.493 136.655 111.269C136.85 111.044 137.109 110.87 137.431 110.746C137.753 110.622 138.125 110.561 138.544 110.561C139.007 110.561 139.397 110.632 139.716 110.775C140.035 110.915 140.278 111.12 140.444 111.391C140.61 111.658 140.693 111.978 140.693 112.353V116H139.492V115.268H139.409C139.311 115.437 139.184 115.583 139.028 115.707C138.875 115.831 138.699 115.925 138.501 115.99C138.302 116.055 138.084 116.088 137.846 116.088ZM144.363 116.107C143.826 116.107 143.367 115.997 142.986 115.775C142.605 115.554 142.314 115.235 142.112 114.818C141.91 114.402 141.809 113.904 141.809 113.324V113.314C141.809 112.738 141.91 112.245 142.112 111.835C142.314 111.425 142.605 111.111 142.986 110.893C143.367 110.671 143.824 110.561 144.358 110.561C144.817 110.561 145.211 110.64 145.54 110.8C145.872 110.956 146.134 111.174 146.326 111.454C146.521 111.731 146.642 112.055 146.687 112.426V112.445H145.54L145.535 112.431C145.479 112.17 145.353 111.957 145.154 111.791C144.959 111.625 144.695 111.542 144.363 111.542C144.086 111.542 143.849 111.612 143.65 111.752C143.455 111.892 143.305 112.094 143.201 112.357C143.097 112.621 143.045 112.94 143.045 113.314V113.324C143.045 113.702 143.097 114.026 143.201 114.296C143.308 114.563 143.46 114.768 143.655 114.911C143.85 115.051 144.086 115.121 144.363 115.121C144.679 115.121 144.933 115.049 145.125 114.906C145.32 114.763 145.455 114.551 145.53 114.271L145.54 114.252L146.682 114.247L146.677 114.291C146.619 114.652 146.492 114.97 146.297 115.243C146.104 115.517 145.847 115.73 145.525 115.883C145.203 116.033 144.815 116.107 144.363 116.107ZM150.05 116.107C149.519 116.107 149.063 115.995 148.682 115.771C148.305 115.546 148.013 115.227 147.808 114.813C147.603 114.4 147.501 113.91 147.501 113.344V113.339C147.501 112.779 147.602 112.291 147.803 111.874C148.009 111.457 148.298 111.135 148.673 110.907C149.047 110.676 149.486 110.561 149.991 110.561C150.499 110.561 150.935 110.673 151.3 110.897C151.667 111.119 151.951 111.43 152.149 111.83C152.348 112.23 152.447 112.699 152.447 113.236V113.637H148.111V112.821H151.851L151.275 113.583V113.1C151.275 112.745 151.221 112.45 151.114 112.216C151.007 111.981 150.857 111.806 150.665 111.688C150.476 111.571 150.256 111.513 150.006 111.513C149.755 111.513 149.532 111.575 149.337 111.698C149.145 111.819 148.992 111.998 148.878 112.235C148.767 112.47 148.712 112.758 148.712 113.1V113.588C148.712 113.917 148.767 114.198 148.878 114.433C148.988 114.664 149.145 114.843 149.346 114.97C149.551 115.093 149.794 115.155 150.074 115.155C150.292 115.155 150.479 115.124 150.635 115.062C150.795 114.997 150.924 114.921 151.021 114.833C151.119 114.742 151.187 114.656 151.226 114.574L151.241 114.54H152.393L152.384 114.584C152.341 114.757 152.263 114.932 152.149 115.111C152.038 115.287 151.887 115.451 151.695 115.604C151.506 115.754 151.275 115.876 151.002 115.971C150.728 116.062 150.411 116.107 150.05 116.107Z" fill="white"/>
<path opacity="0.4" d="M165.735 116.166C165.097 116.166 164.546 116.016 164.08 115.717C163.615 115.417 163.255 114.993 163.001 114.442C162.75 113.892 162.625 113.24 162.625 112.484V112.475C162.625 111.716 162.75 111.062 163.001 110.512C163.255 109.962 163.613 109.537 164.075 109.237C164.541 108.938 165.092 108.788 165.73 108.788C166.225 108.788 166.674 108.886 167.078 109.081C167.485 109.273 167.82 109.542 168.084 109.887C168.348 110.229 168.514 110.624 168.582 111.073L168.577 111.083H167.693L167.688 111.073C167.61 110.771 167.479 110.51 167.293 110.292C167.107 110.071 166.881 109.9 166.614 109.779C166.351 109.659 166.056 109.599 165.73 109.599C165.281 109.599 164.891 109.716 164.559 109.95C164.23 110.185 163.976 110.517 163.797 110.946C163.618 111.376 163.528 111.885 163.528 112.475V112.484C163.528 113.07 163.618 113.578 163.797 114.008C163.976 114.438 164.23 114.77 164.559 115.004C164.891 115.238 165.283 115.355 165.735 115.355C166.064 115.355 166.362 115.303 166.629 115.199C166.896 115.092 167.12 114.94 167.303 114.745C167.485 114.547 167.612 114.312 167.684 114.042L167.693 114.032H168.582V114.042C168.504 114.472 168.335 114.846 168.074 115.165C167.814 115.481 167.483 115.727 167.083 115.902C166.686 116.078 166.237 116.166 165.735 116.166ZM169.918 116V108.646H170.768V116H169.918ZM173.764 116.093C173.432 116.093 173.132 116.029 172.865 115.902C172.602 115.775 172.392 115.595 172.236 115.36C172.083 115.126 172.006 114.849 172.006 114.53V114.521C172.006 114.208 172.081 113.941 172.231 113.72C172.38 113.495 172.598 113.319 172.885 113.192C173.171 113.065 173.518 112.991 173.925 112.968L175.859 112.851V113.529L174.028 113.646C173.627 113.669 173.334 113.752 173.149 113.896C172.966 114.039 172.875 114.241 172.875 114.501V114.511C172.875 114.778 172.976 114.986 173.178 115.136C173.38 115.282 173.634 115.355 173.94 115.355C174.229 115.355 174.486 115.299 174.711 115.185C174.936 115.067 175.111 114.91 175.238 114.711C175.369 114.512 175.434 114.288 175.434 114.037V112.396C175.434 112.071 175.334 111.824 175.136 111.654C174.941 111.482 174.646 111.396 174.252 111.396C173.936 111.396 173.678 111.452 173.476 111.566C173.274 111.677 173.139 111.835 173.07 112.04L173.066 112.055H172.216L172.221 112.025C172.266 111.749 172.38 111.508 172.563 111.303C172.748 111.094 172.987 110.933 173.28 110.819C173.573 110.702 173.907 110.644 174.281 110.644C174.711 110.644 175.074 110.714 175.37 110.854C175.67 110.993 175.896 111.195 176.049 111.459C176.205 111.719 176.283 112.032 176.283 112.396V116H175.434V115.224H175.356C175.245 115.409 175.11 115.567 174.95 115.697C174.794 115.827 174.617 115.927 174.418 115.995C174.22 116.06 174.001 116.093 173.764 116.093ZM179.563 116.093C179.172 116.093 178.827 116.034 178.528 115.917C178.228 115.797 177.987 115.629 177.805 115.414C177.626 115.199 177.52 114.947 177.488 114.657H178.357C178.428 114.875 178.568 115.051 178.777 115.185C178.985 115.318 179.257 115.385 179.592 115.385C179.83 115.385 180.038 115.351 180.217 115.282C180.399 115.211 180.543 115.115 180.647 114.994C180.751 114.87 180.803 114.729 180.803 114.569V114.56C180.803 114.381 180.731 114.229 180.588 114.105C180.445 113.979 180.211 113.876 179.885 113.798L179.07 113.603C178.741 113.524 178.471 113.424 178.259 113.3C178.047 113.173 177.891 113.018 177.79 112.836C177.689 112.65 177.639 112.432 177.639 112.182V112.177C177.639 111.884 177.724 111.622 177.893 111.391C178.065 111.16 178.3 110.977 178.596 110.844C178.892 110.71 179.226 110.644 179.597 110.644C179.965 110.644 180.29 110.702 180.573 110.819C180.86 110.933 181.089 111.096 181.262 111.308C181.438 111.519 181.545 111.768 181.584 112.055H180.749C180.694 111.846 180.567 111.677 180.368 111.547C180.17 111.417 179.911 111.352 179.592 111.352C179.384 111.352 179.198 111.386 179.035 111.454C178.873 111.519 178.744 111.61 178.65 111.728C178.555 111.845 178.508 111.981 178.508 112.138V112.147C178.508 112.265 178.539 112.369 178.601 112.46C178.663 112.551 178.759 112.631 178.889 112.699C179.019 112.768 179.187 112.828 179.392 112.88L180.202 113.075C180.697 113.196 181.065 113.368 181.306 113.593C181.55 113.817 181.672 114.118 181.672 114.496V114.506C181.672 114.818 181.579 115.095 181.394 115.336C181.208 115.574 180.956 115.759 180.637 115.893C180.321 116.026 179.963 116.093 179.563 116.093ZM184.619 116.093C184.229 116.093 183.884 116.034 183.584 115.917C183.285 115.797 183.044 115.629 182.862 115.414C182.683 115.199 182.577 114.947 182.544 114.657H183.413C183.485 114.875 183.625 115.051 183.833 115.185C184.042 115.318 184.313 115.385 184.649 115.385C184.886 115.385 185.095 115.351 185.274 115.282C185.456 115.211 185.599 115.115 185.703 114.994C185.808 114.87 185.86 114.729 185.86 114.569V114.56C185.86 114.381 185.788 114.229 185.645 114.105C185.502 113.979 185.267 113.876 184.942 113.798L184.126 113.603C183.798 113.524 183.527 113.424 183.316 113.3C183.104 113.173 182.948 113.018 182.847 112.836C182.746 112.65 182.696 112.432 182.696 112.182V112.177C182.696 111.884 182.78 111.622 182.95 111.391C183.122 111.16 183.356 110.977 183.653 110.844C183.949 110.71 184.283 110.644 184.654 110.644C185.021 110.644 185.347 110.702 185.63 110.819C185.917 110.933 186.146 111.096 186.319 111.308C186.494 111.519 186.602 111.768 186.641 112.055H185.806C185.751 111.846 185.624 111.677 185.425 111.547C185.227 111.417 184.968 111.352 184.649 111.352C184.44 111.352 184.255 111.386 184.092 111.454C183.929 111.519 183.801 111.61 183.706 111.728C183.612 111.845 183.565 111.981 183.565 112.138V112.147C183.565 112.265 183.596 112.369 183.658 112.46C183.719 112.551 183.815 112.631 183.946 112.699C184.076 112.768 184.243 112.828 184.449 112.88L185.259 113.075C185.754 113.196 186.122 113.368 186.363 113.593C186.607 113.817 186.729 114.118 186.729 114.496V114.506C186.729 114.818 186.636 115.095 186.451 115.336C186.265 115.574 186.013 115.759 185.694 115.893C185.378 116.026 185.02 116.093 184.619 116.093ZM190.7 116V110.736H191.549V111.527H191.627C191.761 111.247 191.953 111.031 192.204 110.878C192.454 110.722 192.773 110.644 193.161 110.644C193.753 110.644 194.207 110.813 194.523 111.151C194.842 111.487 195.001 111.967 195.001 112.592V116H194.152V112.797C194.152 112.322 194.051 111.97 193.849 111.742C193.651 111.511 193.341 111.396 192.921 111.396C192.641 111.396 192.399 111.456 192.194 111.576C191.989 111.697 191.829 111.868 191.715 112.089C191.605 112.31 191.549 112.576 191.549 112.885V116H190.7ZM198.623 116.093C198.125 116.093 197.693 115.984 197.329 115.766C196.967 115.544 196.687 115.23 196.489 114.823C196.294 114.416 196.196 113.933 196.196 113.373V113.363C196.196 112.8 196.294 112.315 196.489 111.908C196.687 111.501 196.967 111.189 197.329 110.971C197.693 110.753 198.125 110.644 198.623 110.644C199.124 110.644 199.555 110.753 199.917 110.971C200.278 111.189 200.556 111.501 200.752 111.908C200.95 112.315 201.049 112.8 201.049 113.363V113.373C201.049 113.933 200.95 114.416 200.752 114.823C200.556 115.23 200.278 115.544 199.917 115.766C199.555 115.984 199.124 116.093 198.623 116.093ZM198.623 115.341C198.955 115.341 199.236 115.263 199.467 115.106C199.698 114.95 199.874 114.726 199.995 114.433C200.118 114.14 200.18 113.786 200.18 113.373V113.363C200.18 112.947 200.118 112.592 199.995 112.299C199.874 112.006 199.698 111.783 199.467 111.63C199.236 111.474 198.955 111.396 198.623 111.396C198.291 111.396 198.009 111.474 197.778 111.63C197.547 111.783 197.369 112.006 197.246 112.299C197.125 112.592 197.065 112.947 197.065 113.363V113.373C197.065 113.786 197.125 114.14 197.246 114.433C197.369 114.726 197.547 114.95 197.778 115.106C198.009 115.263 198.291 115.341 198.623 115.341ZM204.158 116.039C203.617 116.039 203.225 115.93 202.981 115.712C202.74 115.494 202.62 115.134 202.62 114.633V111.439H201.79V110.736H202.62V109.374H203.499V110.736H204.651V111.439H203.499V114.418C203.499 114.727 203.557 114.95 203.674 115.087C203.792 115.22 203.987 115.287 204.26 115.287C204.335 115.287 204.399 115.285 204.451 115.282C204.506 115.279 204.573 115.274 204.651 115.268V115.99C204.57 116.003 204.488 116.015 204.407 116.024C204.325 116.034 204.242 116.039 204.158 116.039ZM207.921 116.093C207.419 116.093 206.988 115.982 206.627 115.761C206.269 115.539 205.992 115.227 205.797 114.823C205.605 114.416 205.509 113.938 205.509 113.388V113.383C205.509 112.839 205.605 112.362 205.797 111.952C205.992 111.542 206.267 111.221 206.622 110.99C206.977 110.759 207.392 110.644 207.867 110.644C208.345 110.644 208.756 110.754 209.097 110.976C209.442 111.197 209.706 111.506 209.888 111.903C210.074 112.297 210.167 112.756 210.167 113.28V113.612H205.948V112.934H209.732L209.312 113.554V113.217C209.312 112.803 209.25 112.463 209.127 112.196C209.003 111.929 208.832 111.731 208.614 111.601C208.396 111.467 208.145 111.4 207.862 111.4C207.579 111.4 207.325 111.47 207.1 111.61C206.879 111.747 206.703 111.951 206.573 112.221C206.443 112.491 206.378 112.823 206.378 113.217V113.554C206.378 113.928 206.441 114.249 206.568 114.516C206.695 114.779 206.876 114.983 207.11 115.126C207.344 115.266 207.621 115.336 207.94 115.336C208.178 115.336 208.384 115.303 208.56 115.238C208.736 115.173 208.881 115.09 208.995 114.989C209.109 114.888 209.189 114.786 209.234 114.682L209.254 114.638H210.103L210.093 114.677C210.048 114.856 209.967 115.03 209.849 115.199C209.735 115.365 209.587 115.517 209.405 115.653C209.223 115.787 209.006 115.894 208.756 115.976C208.508 116.054 208.23 116.093 207.921 116.093ZM214.022 116.093C213.778 116.093 213.552 116.055 213.344 115.98C213.135 115.906 212.95 115.8 212.787 115.663C212.624 115.523 212.489 115.355 212.382 115.16H212.304V116H211.454V108.646H212.304V111.566H212.382C212.479 111.378 212.61 111.215 212.772 111.078C212.938 110.941 213.127 110.836 213.339 110.761C213.554 110.683 213.781 110.644 214.022 110.644C214.468 110.644 214.856 110.756 215.184 110.98C215.516 111.205 215.774 111.521 215.956 111.928C216.138 112.335 216.229 112.813 216.229 113.363V113.373C216.229 113.92 216.138 114.398 215.956 114.809C215.774 115.215 215.516 115.531 215.184 115.756C214.856 115.98 214.468 116.093 214.022 116.093ZM213.827 115.341C214.149 115.341 214.424 115.263 214.652 115.106C214.88 114.947 215.054 114.721 215.175 114.428C215.298 114.132 215.36 113.78 215.36 113.373V113.363C215.36 112.953 215.298 112.602 215.175 112.309C215.054 112.016 214.88 111.791 214.652 111.635C214.424 111.475 214.149 111.396 213.827 111.396C213.508 111.396 213.233 111.475 213.002 111.635C212.771 111.794 212.593 112.021 212.47 112.313C212.346 112.606 212.284 112.956 212.284 113.363V113.373C212.284 113.777 212.346 114.127 212.47 114.423C212.593 114.716 212.771 114.942 213.002 115.102C213.233 115.261 213.508 115.341 213.827 115.341ZM219.631 116.093C219.133 116.093 218.701 115.984 218.337 115.766C217.975 115.544 217.696 115.23 217.497 114.823C217.302 114.416 217.204 113.933 217.204 113.373V113.363C217.204 112.8 217.302 112.315 217.497 111.908C217.696 111.501 217.975 111.189 218.337 110.971C218.701 110.753 219.133 110.644 219.631 110.644C220.132 110.644 220.563 110.753 220.925 110.971C221.286 111.189 221.564 111.501 221.76 111.908C221.958 112.315 222.057 112.8 222.057 113.363V113.373C222.057 113.933 221.958 114.416 221.76 114.823C221.564 115.23 221.286 115.544 220.925 115.766C220.563 115.984 220.132 116.093 219.631 116.093ZM219.631 115.341C219.963 115.341 220.244 115.263 220.475 115.106C220.707 114.95 220.882 114.726 221.003 114.433C221.127 114.14 221.188 113.786 221.188 113.373V113.363C221.188 112.947 221.127 112.592 221.003 112.299C220.882 112.006 220.707 111.783 220.475 111.63C220.244 111.474 219.963 111.396 219.631 111.396C219.299 111.396 219.017 111.474 218.786 111.63C218.555 111.783 218.377 112.006 218.254 112.299C218.133 112.592 218.073 112.947 218.073 113.363V113.373C218.073 113.786 218.133 114.14 218.254 114.433C218.377 114.726 218.555 114.95 218.786 115.106C219.017 115.263 219.299 115.341 219.631 115.341ZM225.459 116.093C224.961 116.093 224.53 115.984 224.165 115.766C223.804 115.544 223.524 115.23 223.325 114.823C223.13 114.416 223.032 113.933 223.032 113.373V113.363C223.032 112.8 223.13 112.315 223.325 111.908C223.524 111.501 223.804 111.189 224.165 110.971C224.53 110.753 224.961 110.644 225.459 110.644C225.96 110.644 226.392 110.753 226.753 110.971C227.114 111.189 227.393 111.501 227.588 111.908C227.786 112.315 227.886 112.8 227.886 113.363V113.373C227.886 113.933 227.786 114.416 227.588 114.823C227.393 115.23 227.114 115.544 226.753 115.766C226.392 115.984 225.96 116.093 225.459 116.093ZM225.459 115.341C225.791 115.341 226.073 115.263 226.304 115.106C226.535 114.95 226.711 114.726 226.831 114.433C226.955 114.14 227.017 113.786 227.017 113.373V113.363C227.017 112.947 226.955 112.592 226.831 112.299C226.711 112.006 226.535 111.783 226.304 111.63C226.073 111.474 225.791 111.396 225.459 111.396C225.127 111.396 224.845 111.474 224.614 111.63C224.383 111.783 224.206 112.006 224.082 112.299C223.962 112.592 223.901 112.947 223.901 113.363V113.373C223.901 113.786 223.962 114.14 224.082 114.433C224.206 114.726 224.383 114.95 224.614 115.106C224.845 115.263 225.127 115.341 225.459 115.341ZM229.173 116V108.646H230.022V116H229.173ZM232.488 116L230.433 113.422L231.058 112.88L233.558 116H232.488ZM229.915 114.105L229.876 113.036H230.101L232.376 110.736H233.406L230.906 113.148L230.701 113.349L229.915 114.105Z" fill="white"/>
<g clip-path="url(#clip1_511_1167)">
<g clip-path="url(#clip2_511_1167)">
<path d="M76.5211 121.609C72.1895 122.131 67.8103 122.131 63.4787 121.609C58.1934 120.971 54.0284 116.806 53.3909 111.521C52.869 107.19 52.869 102.81 53.3909 98.4787C54.0284 93.1934 58.1934 89.0284 63.4787 88.3909C67.8103 87.869 72.1895 87.869 76.5211 88.3909C81.8064 89.0284 85.9714 93.1934 86.6089 98.4787C87.1308 102.81 87.1308 107.19 86.6089 111.521C85.9714 116.806 81.8064 120.971 76.5211 121.609Z" fill="#00ADE6"/>
<path d="M79.8039 95.1963H70V105H79.8039V95.1963Z" fill="white"/>
<path d="M70.0002 105H60.1963V114.804H70.0002V105Z" fill="#00223A"/>
</g>
</g>
</g>
<g opacity="0.1">
<path d="M66 135H266V138.4C266 145.961 266 149.741 264.529 152.629C263.234 155.169 261.169 157.234 258.629 158.529C255.741 160 251.961 160 244.4 160H87.6C80.0393 160 76.2589 160 73.3711 158.529C70.8309 157.234 68.7657 155.169 67.4714 152.629C66 149.741 66 145.961 66 138.4V135Z" fill="#00111C"/>
</g>
</g>
<defs>
<linearGradient id="paint0_linear_511_1167" x1="-37.35" y1="25.4875" x2="-3.84219" y2="179.996" gradientUnits="userSpaceOnUse">
<stop stop-color="#9DE7FF"/>
<stop offset="0.869325" stop-color="#9DE7FF" stop-opacity="0"/>
</linearGradient>
<clipPath id="clip0_511_1167">
<rect width="44" height="44" fill="white" transform="translate(14 46)"/>
</clipPath>
<clipPath id="clip1_511_1167">
<rect width="35" height="21" fill="white" transform="translate(52 103)"/>
</clipPath>
<clipPath id="clip2_511_1167">
<rect width="34" height="34" fill="white" transform="translate(53 88)"/>
</clipPath>
</defs>
</svg>
