<?xml version="1.0" encoding="UTF-8"?>
<svg id="Layer_1" data-name="Layer 1" xmlns="http://www.w3.org/2000/svg" viewBox="0 0 1666.96 360.17">
  <defs>
    <style>
      .cls-1 {
        fill: #fff;
      }

      .cls-2 {
        fill: #00ade9;
      }

      .cls-3 {
        fill: #00233c;
      }
    </style>
  </defs>
  <g id="Logomark">
    <path class="cls-2" d="M249.17,356.02h0c-45.89,5.53-92.27,5.53-138.16,0h0c-55.98-6.75-100.1-50.87-106.85-106.85h0c-5.53-45.89-5.53-92.27,0-138.16h0C10.9,55.02,55.02,10.9,111,4.15h0c45.89-5.53,92.27-5.53,138.16,0h0c55.98,6.75,100.1,50.87,106.85,106.85h0c5.53,45.89,5.53,92.27,0,138.16h0c-6.75,55.98-50.87,100.1-106.85,106.85Z"/>
    <g>
      <rect class="cls-1" x="180.08" y="76.23" width="103.85" height="103.85"/>
      <rect class="cls-3" x="76.23" y="180.08" width="103.85" height="103.85"/>
    </g>
  </g>
  <g>
    <path class="cls-1" d="M495.92,265.19c-10.26,0-19.7-1.88-28.29-5.64-8.6-3.76-15.97-9-22.12-15.72-6.15-6.72-10.59-14.42-13.33-23.09l21.68-9.11c3.9,9.97,9.61,17.64,17.13,22.98,7.51,5.35,16.19,8.02,26.02,8.02,5.78,0,10.8-.9,15.07-2.71,4.26-1.81,7.59-4.37,9.97-7.7,2.38-3.32,3.58-7.15,3.58-11.49,0-5.78-1.66-10.44-4.99-13.99-3.33-3.54-8.17-6.25-14.53-8.13l-30.57-9.54c-12.14-3.76-21.36-9.54-27.65-17.35-6.29-7.81-9.43-16.91-9.43-27.32,0-8.96,2.2-16.91,6.61-23.85,4.41-6.94,10.55-12.36,18.43-16.26,7.88-3.9,16.95-5.85,27.21-5.85,9.68,0,18.5,1.7,26.45,5.1,7.95,3.4,14.78,8.1,20.49,14.09,5.71,6,9.87,12.9,12.47,20.71l-21.25,9.11c-3.33-8.53-8.31-15.07-14.96-19.62-6.65-4.55-14.38-6.83-23.2-6.83-5.35,0-10.05.9-14.09,2.71-4.05,1.81-7.19,4.37-9.43,7.7-2.24,3.33-3.36,7.23-3.36,11.71,0,5.2,1.66,9.83,4.99,13.88,3.32,4.05,8.31,7.08,14.96,9.11l28.4,8.89c12.86,3.9,22.55,9.51,29.05,16.8,6.5,7.3,9.76,16.37,9.76,27.21,0,8.96-2.35,16.91-7.05,23.85-4.7,6.94-11.17,12.4-19.41,16.37-8.24,3.97-17.78,5.96-28.62,5.96Z"/>
    <path class="cls-1" d="M632.95,265.19c-11.71,0-22.12-2.71-31.22-8.13-9.11-5.42-16.26-12.76-21.47-22.01-5.2-9.25-7.81-19.73-7.81-31.44s2.6-21.97,7.81-31.22c5.2-9.25,12.36-16.51,21.47-21.79,9.11-5.28,19.51-7.91,31.22-7.91,7.95,0,15.39,1.41,22.33,4.23s12.97,6.69,18.1,11.6c5.13,4.92,8.92,10.7,11.38,17.35l-21.68,9.76c-2.46-6.07-6.36-10.95-11.71-14.64-5.35-3.69-11.49-5.53-18.43-5.53s-12.61,1.66-17.89,4.99c-5.28,3.33-9.43,7.88-12.47,13.66-3.04,5.78-4.55,12.36-4.55,19.73s1.52,13.99,4.55,19.84c3.04,5.85,7.19,10.44,12.47,13.77,5.27,3.33,11.24,4.99,17.89,4.99s13.08-1.84,18.43-5.53c5.35-3.69,9.25-8.64,11.71-14.85l21.68,10.19c-2.31,6.22-6.04,11.82-11.17,16.8-5.13,4.99-11.17,8.93-18.11,11.82s-14.46,4.34-22.55,4.34Z"/>
    <path class="cls-1" d="M765.2,265.19c-11.42,0-21.76-2.67-31.01-8.02-9.25-5.35-16.62-12.65-22.12-21.9-5.5-9.25-8.24-19.73-8.24-31.44s2.71-22.37,8.13-31.55c5.42-9.18,12.76-16.4,22.01-21.68,9.25-5.28,19.66-7.91,31.22-7.91s21.93,2.64,31.11,7.91c9.18,5.28,16.48,12.5,21.9,21.68,5.42,9.18,8.13,19.7,8.13,31.55s-2.75,22.41-8.24,31.66c-5.5,9.25-12.87,16.52-22.12,21.79-9.25,5.28-19.51,7.91-30.79,7.91ZM765.2,242.42c6.79,0,12.86-1.66,18.21-4.99,5.35-3.32,9.57-7.91,12.68-13.77,3.11-5.85,4.66-12.47,4.66-19.84s-1.56-13.91-4.66-19.62c-3.11-5.71-7.34-10.26-12.68-13.66-5.35-3.39-11.42-5.1-18.21-5.1s-12.9,1.7-18.32,5.1c-5.42,3.4-9.69,7.95-12.79,13.66-3.11,5.71-4.66,12.25-4.66,19.62s1.55,13.99,4.66,19.84c3.11,5.85,7.37,10.44,12.79,13.77,5.42,3.33,11.53,4.99,18.32,4.99Z"/>
    <path class="cls-1" d="M906.79,265.19c-11.42,0-21.76-2.67-31.01-8.02-9.25-5.35-16.62-12.65-22.12-21.9-5.5-9.25-8.24-19.73-8.24-31.44s2.71-22.37,8.13-31.55c5.42-9.18,12.76-16.4,22.01-21.68,9.25-5.28,19.66-7.91,31.22-7.91s21.93,2.64,31.11,7.91c9.18,5.28,16.48,12.5,21.9,21.68,5.42,9.18,8.13,19.7,8.13,31.55s-2.75,22.41-8.24,31.66c-5.5,9.25-12.87,16.52-22.12,21.79-9.25,5.28-19.51,7.91-30.79,7.91ZM906.79,242.42c6.79,0,12.86-1.66,18.21-4.99,5.35-3.32,9.57-7.91,12.68-13.77,3.11-5.85,4.66-12.47,4.66-19.84s-1.56-13.91-4.66-19.62c-3.11-5.71-7.34-10.26-12.68-13.66-5.35-3.39-11.42-5.1-18.21-5.1s-12.9,1.7-18.32,5.1c-5.42,3.4-9.69,7.95-12.79,13.66-3.11,5.71-4.66,12.25-4.66,19.62s1.55,13.99,4.66,19.84c3.11,5.85,7.37,10.44,12.79,13.77,5.42,3.33,11.53,4.99,18.32,4.99Z"/>
    <path class="cls-1" d="M991.79,262.58V98.45h24.5v164.14h-24.5Z"/>
    <path class="cls-1" d="M1088.27,265.19c-12.14,0-22.7-2.96-31.66-8.89-8.96-5.93-15.25-13.88-18.86-23.85l18.86-8.89c3.18,6.65,7.55,11.93,13.12,15.83,5.56,3.9,11.74,5.85,18.54,5.85,5.78,0,10.48-1.3,14.09-3.9,3.61-2.6,5.42-6.14,5.42-10.62,0-2.74-.8-5.02-2.38-6.83-1.59-1.81-3.58-3.29-5.96-4.44-2.38-1.16-4.81-2.09-7.26-2.82l-18.43-5.2c-10.27-2.89-17.89-7.23-22.87-13.01-4.99-5.78-7.48-12.58-7.48-20.38,0-7.08,1.81-13.3,5.42-18.65,3.61-5.35,8.6-9.47,14.96-12.36,6.36-2.89,13.59-4.34,21.68-4.34,10.7,0,20.24,2.64,28.62,7.91,8.38,5.28,14.31,12.61,17.78,22.01l-19.08,9.11c-2.31-5.78-5.93-10.33-10.84-13.66-4.92-3.32-10.48-4.99-16.7-4.99-5.35,0-9.62,1.27-12.79,3.79-3.18,2.53-4.77,5.82-4.77,9.87,0,2.75.72,5.02,2.17,6.83,1.44,1.81,3.32,3.25,5.64,4.34,2.31,1.08,4.7,1.99,7.16,2.71l19.08,5.64c9.68,2.75,17.13,7.05,22.33,12.9,5.2,5.85,7.81,12.83,7.81,20.92,0,6.94-1.84,13.05-5.53,18.32-3.69,5.28-8.78,9.4-15.29,12.36-6.5,2.96-14.09,4.44-22.77,4.44Z"/>
    <path class="cls-1" d="M1155.92,305.95v-160.67h23.42v24.28l-2.82-5.64c4.34-6.65,10.12-11.85,17.35-15.61,7.23-3.76,15.47-5.64,24.72-5.64,11.13,0,21.14,2.68,30.03,8.02,8.89,5.35,15.9,12.65,21.03,21.9,5.13,9.25,7.7,19.66,7.7,31.22s-2.57,21.97-7.7,31.22c-5.13,9.25-12.11,16.59-20.92,22.01-8.82,5.42-18.86,8.13-30.14,8.13-9.11,0-17.38-1.88-24.83-5.64-7.45-3.76-13.19-9.18-17.24-16.26l3.9-4.55v67.22h-24.5ZM1215.98,242.42c6.94,0,13.12-1.66,18.54-4.99,5.42-3.32,9.65-7.91,12.68-13.77,3.04-5.85,4.55-12.47,4.55-19.84s-1.52-13.91-4.55-19.62c-3.04-5.71-7.26-10.26-12.68-13.66-5.42-3.39-11.6-5.1-18.54-5.1s-12.68,1.66-18.1,4.99c-5.42,3.33-9.69,7.91-12.79,13.77-3.11,5.85-4.66,12.4-4.66,19.62s1.55,13.99,4.66,19.84c3.11,5.85,7.37,10.44,12.79,13.77,5.42,3.33,11.45,4.99,18.1,4.99Z"/>
    <path class="cls-1" d="M1336.31,265.19c-7.95,0-14.93-1.38-20.92-4.12-6-2.74-10.66-6.65-13.99-11.71-3.33-5.06-4.99-10.98-4.99-17.78,0-6.36,1.41-12.07,4.23-17.13,2.82-5.06,7.16-9.32,13.01-12.79,5.85-3.47,13.33-5.93,22.44-7.37l40.76-6.72v19.51l-35.99,6.07c-6.5,1.16-11.27,3.25-14.31,6.29-3.04,3.04-4.55,6.8-4.55,11.28s1.7,8.13,5.1,10.95c3.39,2.82,7.77,4.23,13.12,4.23,6.51,0,12.25-1.44,17.24-4.34,4.99-2.89,8.89-6.76,11.71-11.6,2.82-4.84,4.23-10.22,4.23-16.15v-30.14c0-5.64-2.17-10.3-6.5-13.99s-10.05-5.53-17.13-5.53c-6.36,0-11.96,1.66-16.8,4.99-4.84,3.33-8.42,7.73-10.73,13.23l-20.6-10.19c2.31-5.78,5.89-10.91,10.73-15.39,4.84-4.48,10.55-7.95,17.13-10.41,6.58-2.46,13.62-3.69,21.14-3.69,9.25,0,17.45,1.73,24.61,5.2s12.72,8.28,16.7,14.42c3.97,6.15,5.96,13.26,5.96,21.36v78.92h-23.42v-21.03l4.77.43c-2.75,4.77-6.22,8.89-10.41,12.36-4.19,3.47-9.04,6.15-14.53,8.02-5.5,1.88-11.49,2.82-18,2.82Z"/>
    <path class="cls-1" d="M1482.23,265.19c-11.71,0-22.12-2.71-31.22-8.13-9.11-5.42-16.26-12.76-21.47-22.01-5.2-9.25-7.81-19.73-7.81-31.44s2.6-21.97,7.81-31.22c5.2-9.25,12.36-16.51,21.47-21.79,9.11-5.28,19.51-7.91,31.22-7.91,7.95,0,15.39,1.41,22.33,4.23s12.97,6.69,18.1,11.6c5.13,4.92,8.92,10.7,11.38,17.35l-21.68,9.76c-2.46-6.07-6.36-10.95-11.71-14.64-5.35-3.69-11.49-5.53-18.43-5.53s-12.61,1.66-17.89,4.99c-5.28,3.33-9.43,7.88-12.47,13.66-3.04,5.78-4.55,12.36-4.55,19.73s1.52,13.99,4.55,19.84c3.04,5.85,7.19,10.44,12.47,13.77,5.27,3.33,11.24,4.99,17.89,4.99s13.08-1.84,18.43-5.53c5.35-3.69,9.25-8.64,11.71-14.85l21.68,10.19c-2.31,6.22-6.04,11.82-11.17,16.8-5.13,4.99-11.17,8.93-18.11,11.82s-14.46,4.34-22.55,4.34Z"/>
    <path class="cls-1" d="M1612.76,265.19c-11.71,0-22.04-2.71-31.01-8.13-8.96-5.42-15.97-12.79-21.03-22.12-5.06-9.32-7.59-19.76-7.59-31.33s2.53-22.33,7.59-31.44c5.06-9.11,11.96-16.3,20.71-21.57,8.74-5.28,18.54-7.91,29.38-7.91,8.96,0,16.91,1.52,23.85,4.55,6.94,3.04,12.79,7.19,17.56,12.47,4.77,5.28,8.42,11.31,10.95,18.1,2.53,6.8,3.79,14.02,3.79,21.68,0,1.88-.07,3.83-.22,5.85-.15,2.03-.43,3.9-.87,5.64h-93.45v-19.51h79.36l-11.49,8.89c1.3-7.08.79-13.41-1.52-18.97-2.31-5.56-5.93-9.97-10.84-13.23-4.92-3.25-10.62-4.88-17.13-4.88s-12.07,1.63-17.13,4.88c-5.06,3.25-8.96,7.91-11.71,13.99-2.75,6.07-3.83,13.3-3.25,21.68-.73,7.95.4,14.89,3.36,20.82,2.96,5.93,7.16,10.55,12.58,13.88,5.42,3.33,11.53,4.99,18.32,4.99,7.23,0,13.3-1.59,18.21-4.77,4.91-3.18,8.89-7.3,11.92-12.36l19.95,9.97c-2.31,5.5-5.89,10.41-10.73,14.74-4.84,4.34-10.62,7.77-17.35,10.3-6.72,2.53-14.13,3.79-22.22,3.79Z"/>
  </g>
</svg>