<?xml version="1.0" encoding="UTF-8"?>
<svg id="Layer_2" xmlns="http://www.w3.org/2000/svg" xmlns:xlink="http://www.w3.org/1999/xlink" version="1.1" viewBox="0 0 1812 906">
  <!-- Generator: Adobe Illustrator 29.0.1, SVG Export Plug-In . SVG Version: 2.1.0 Build 192)  -->
  <defs>
    <style>
      .st0 {
        fill: none;
      }

      .st1 {
        font-family: SFProDisplay-Regular, 'SF Pro Display';
        font-size: 47.3px;
        letter-spacing: 0em;
      }

      .st1, .st2 {
        isolation: isolate;
      }

      .st1, .st3 {
        fill: #00011c;
      }

      .st4 {
        stroke: #5dd9f6;
        stroke-miterlimit: 10;
        stroke-width: .2px;
      }

      .st4, .st5 {
        fill: #fff;
      }

      .st6 {
        clip-path: url(#clippath-1);
      }

      .st7 {
        fill: #00ade9;
      }

      .st8 {
        opacity: .8;
      }

      .st9 {
        opacity: .5;
      }

      .st10 {
        opacity: .2;
      }

      .st11 {
        clip-path: url(#clippath);
      }

      .st12 {
        fill: #00223a;
      }
    </style>
    <clipPath id="clippath">
      <rect class="st0" width="1812" height="906"/>
    </clipPath>
    <clipPath id="clippath-1">
      <path class="st0" d="M268.6,134.7c-22.7,0-41.2,18.4-41.2,41.2h0v101.7c0,22.7,18.4,41.2,41.2,41.2h101.7c22.7,0,41.2-18.4,41.2-41.2h0v-101.7c0-22.7-18.4-41.2-41.2-41.2h-101.7Z"/>
    </clipPath>
  </defs>
  <g id="Layer_2-2">
    <g class="st11">
      <g>
        <g class="st10">
          <rect class="st4" x="461.6" y="379.9" width="1670.1" height="285.9" rx="99.8" ry="99.8"/>
        </g>
        <g class="st9">
          <rect class="st4" x="371.3" y="289.6" width="1670.1" height="285.9" rx="99.8" ry="99.8"/>
        </g>
        <g class="st8">
          <rect class="st4" x="267.1" y="185.4" width="1670.1" height="285.9" rx="99.8" ry="99.8"/>
        </g>
        <g>
          <rect class="st4" x="165.5" y="83.8" width="1670.1" height="285.9" rx="99.8" ry="99.8"/>
          <g class="st2">
            <g class="st2">
              <path class="st3" d="M461,248.7h4.1l12.4,33.3h-4.4l-3.4-9.5h-13.4l-3.4,9.5h-4.4l12.4-33.3ZM457.6,268.9h10.9l-5.4-15.3h0l-5.4,15.3Z"/>
              <path class="st3" d="M480.8,248.7h4v33.3h-4v-33.3Z"/>
            </g>
            <g class="st2">
              <path class="st3" d="M489.1,270.1h0c0-7.5,4.2-12.6,10.8-12.6s10.6,4.9,10.6,12.1v1.5h-17.3c0,4.9,2.8,7.8,7.1,7.8s5.2-1.5,5.9-3.6v-.2h4v.2c-.8,4-4.8,7.1-10,7.1s-11.1-4.8-11.1-12.4ZM493.2,267.9h13.1c-.4-4.7-3-6.9-6.5-6.9s-6.2,2.4-6.6,6.9Z"/>
            </g>
            <g class="st2">
              <path class="st3" d="M520.4,270l-8-12h4.5l5.8,9h0l5.7-9h4.5l-8.1,11.8,8,12.2h-4.5l-5.7-9.1h0l-5.8,9.1h-4.5l8.2-12Z"/>
            </g>
            <g class="st2">
              <path class="st3" d="M536.6,277.2h4.2l-3.4,11.3h-2.9l2-11.3Z"/>
            </g>
            <g class="st2">
              <path class="st3" d="M553.9,289.9v-3.3c.3,0,.8.1,1.3.1,2.5,0,3.9-.6,4.9-3.4l.5-1.4-8.9-24h4.3l6.6,20h0l6.6-20h4.2l-9.4,25.5c-1.7,4.6-3.8,6.6-8.1,6.6s-1.6,0-2.1-.2Z"/>
            </g>
            <g class="st2">
              <path class="st3" d="M574.6,270h0c0-7.7,4.5-12.5,11.1-12.5s11.1,4.8,11.1,12.4h0c0,7.7-4.5,12.5-11.1,12.5s-11.1-4.8-11.1-12.5ZM592.8,270h0c0-5.7-2.8-8.9-7-8.9s-7,3.3-7,8.9h0c0,5.7,2.8,9,7,9s7-3.3,7-8.9Z"/>
              <path class="st3" d="M600.8,273.6v-15.6h4v14.9c0,3.9,1.8,6,5.5,6s6.3-2.7,6.3-6.8v-14.1h4v24h-4v-3.4h0c-1.3,2.2-3.7,3.9-7.4,3.9-5.3,0-8.3-3.4-8.3-8.9Z"/>
              <path class="st3" d="M635.7,248.7h4v13.1h0c1.3-2.7,3.9-4.3,7.5-4.3,5.1,0,8.6,3.9,8.6,9.8v14.7h-4v-14c0-4.3-2.2-6.9-6-6.9s-6.2,2.8-6.2,6.9v14h-4v-33.3Z"/>
              <path class="st3" d="M660.1,275.2h0c0-4.1,3.2-6.7,8.7-7l6.9-.4v-2c0-2.9-1.9-4.7-5.3-4.7s-5,1.5-5.5,3.6v.2h-3.9v-.3c.4-3.9,3.8-7.1,9.5-7.1s9.2,3.1,9.2,7.9v16.6h-4v-3.9h0c-1.4,2.6-4.3,4.4-7.5,4.4-4.8,0-8-2.9-8-7.2ZM668.9,279c3.8,0,6.7-2.6,6.7-6.1v-2l-6.4.4c-3.2.2-5.1,1.6-5.1,3.9h0c0,2.4,1.9,3.8,4.8,3.8Z"/>
            </g>
            <g class="st2">
              <path class="st3" d="M682.7,258h4.2l6.6,19.7h0l6.6-19.7h4.2l-8.8,24h-4.1l-8.8-24Z"/>
            </g>
            <g class="st2">
              <path class="st3" d="M705.5,270.1h0c0-7.5,4.2-12.6,10.8-12.6s10.6,4.9,10.6,12.1v1.5h-17.3c0,4.9,2.8,7.8,7.1,7.8s5.2-1.5,5.9-3.6v-.2h4v.2c-.8,4-4.8,7.1-10,7.1s-11.1-4.8-11.1-12.4ZM709.6,267.9h13.1c-.4-4.7-3-6.9-6.5-6.9s-6.2,2.4-6.6,6.9Z"/>
              <path class="st3" d="M739.6,275.2h0c0-4.1,3.2-6.7,8.7-7l6.9-.4v-2c0-2.9-1.9-4.7-5.3-4.7s-5,1.5-5.5,3.6v.2h-3.9v-.3c.4-3.9,3.8-7.1,9.5-7.1s9.2,3.1,9.2,7.9v16.6h-4v-3.9h0c-1.4,2.6-4.3,4.4-7.5,4.4-4.8,0-8-2.9-8-7.2ZM748.5,279c3.8,0,6.7-2.6,6.7-6.1v-2l-6.4.4c-3.2.2-5.1,1.6-5.1,3.9h0c0,2.4,1.9,3.8,4.8,3.8Z"/>
              <path class="st3" d="M771.9,258h4.2l6.6,19.7h0l6.6-19.7h4.2l-8.8,24h-4.1l-8.8-24Z"/>
              <path class="st3" d="M796.6,251.4c0-1.4,1.1-2.5,2.5-2.5s2.5,1.1,2.5,2.5-1.1,2.5-2.5,2.5-2.5-1.1-2.5-2.5ZM797.1,258h4v24h-4v-24Z"/>
            </g>
            <g class="st2">
              <path class="st3" d="M806.6,258h4v4.1h0c.8-2.8,2.9-4.5,5.6-4.5s1.3.1,1.6.2v3.9c-.3-.1-1.2-.2-2.1-.2-3.1,0-5.1,2.2-5.1,5.8v14.8h-4v-24Z"/>
            </g>
            <g class="st2">
              <path class="st3" d="M823.6,275.9v-14.6h-3.5v-3.3h3.5v-6.5h4.2v6.5h4.6v3.3h-4.6v14.5c0,2.6,1.1,3.3,3.3,3.3s.9,0,1.3,0v3.3c-.5,0-1.4.2-2.1.2-4.4,0-6.6-2-6.6-6.6Z"/>
              <path class="st3" d="M836.5,273.6v-15.6h4v14.9c0,3.9,1.8,6,5.5,6s6.3-2.7,6.3-6.8v-14.1h4v24h-4v-3.4h0c-1.3,2.2-3.7,3.9-7.4,3.9-5.3,0-8.3-3.4-8.3-8.9Z"/>
              <path class="st3" d="M860.5,275.2h0c0-4.1,3.2-6.7,8.7-7l6.9-.4v-2c0-2.9-1.9-4.7-5.3-4.7s-5,1.5-5.5,3.6v.2h-3.9v-.3c.4-3.9,3.8-7.1,9.5-7.1s9.2,3.1,9.2,7.9v16.6h-4v-3.9h0c-1.4,2.6-4.3,4.4-7.5,4.4-4.8,0-8-2.9-8-7.2ZM869.4,279c3.8,0,6.7-2.6,6.7-6.1v-2l-6.4.4c-3.2.2-5.1,1.6-5.1,3.9h0c0,2.4,1.9,3.8,4.8,3.8Z"/>
              <path class="st3" d="M885.4,248.7h4v33.3h-4v-33.3Z"/>
              <path class="st3" d="M903.4,270h0c0-7.6,4.4-12.4,11.1-12.4s9.5,4,10,8.1v.2s-3.9,0-3.9,0v-.2c-.6-2.4-2.6-4.5-6.1-4.5s-7,3.5-7,8.9h0c0,5.6,2.9,8.9,7,8.9s5.4-1.8,6-4.5v-.2h4v.2c-.7,4.6-4.6,8.1-10,8.1s-11.1-4.8-11.1-12.5Z"/>
              <path class="st3" d="M928.5,248.7h4v33.3h-4v-33.3Z"/>
              <path class="st3" d="M937,275.2h0c0-4.1,3.2-6.7,8.7-7l6.9-.4v-2c0-2.9-1.9-4.7-5.3-4.7s-5,1.5-5.5,3.6v.2h-3.9v-.3c.4-3.9,3.8-7.1,9.5-7.1s9.2,3.1,9.2,7.9v16.6h-4v-3.9h0c-1.4,2.6-4.3,4.4-7.5,4.4-4.8,0-8-2.9-8-7.2ZM945.8,279c3.8,0,6.7-2.6,6.7-6.1v-2l-6.4.4c-3.2.2-5.1,1.6-5.1,3.9h0c0,2.4,1.9,3.8,4.8,3.8Z"/>
              <path class="st3" d="M960.6,275.3v-.2s4,0,4,0v.2c.5,2.4,2.3,3.8,5.6,3.8s5.2-1.4,5.2-3.5h0c0-1.8-.9-2.7-3.6-3.4l-3.8-.9c-4.5-1.1-6.7-3.2-6.7-6.6h0c0-4.2,3.6-7.1,8.8-7.1s8.6,3.1,8.9,7.1v.3s-3.8,0-3.8,0v-.2c-.3-2.3-2.1-3.9-5.1-3.9s-4.7,1.4-4.7,3.5h0c0,1.7,1.1,2.8,3.7,3.4l3.8.9c4.8,1.2,6.6,3.1,6.6,6.5h0c0,4.2-4,7.2-9.3,7.2s-9.1-2.9-9.6-7.2Z"/>
              <path class="st3" d="M982.6,275.3v-.2s4,0,4,0v.2c.5,2.4,2.3,3.8,5.6,3.8s5.2-1.4,5.2-3.5h0c0-1.8-.9-2.7-3.6-3.4l-3.8-.9c-4.5-1.1-6.7-3.2-6.7-6.6h0c0-4.2,3.6-7.1,8.8-7.1s8.6,3.1,8.9,7.1v.3s-3.8,0-3.8,0v-.2c-.3-2.3-2.1-3.9-5.1-3.9s-4.7,1.4-4.7,3.5h0c0,1.7,1.1,2.8,3.7,3.4l3.8.9c4.8,1.2,6.6,3.1,6.6,6.5h0c0,4.2-4,7.2-9.3,7.2s-9.1-2.9-9.6-7.2Z"/>
              <path class="st3" d="M1015.1,251.4c0-1.4,1.1-2.5,2.5-2.5s2.5,1.1,2.5,2.5-1.1,2.5-2.5,2.5-2.5-1.1-2.5-2.5ZM1015.6,258h4v24h-4v-24Z"/>
              <path class="st3" d="M1025.1,258h4v3.4h0c1.3-2.2,3.7-3.9,7.4-3.9,5.3,0,8.3,3.4,8.3,8.9v15.6h-4v-14.9c0-3.9-1.8-6-5.5-6s-6.3,2.7-6.3,6.8v14.1h-4v-24Z"/>
              <path class="st3" d="M1068.3,253.1h0l-8.8,6.1v-4.2l8.9-6.4h4.1v33.3h-4v-28.9Z"/>
              <path class="st3" d="M1080.2,265.3h0c0-10.6,4.5-17.2,12.2-17.2s12.3,6.6,12.3,17.2h0c0,10.6-4.6,17.2-12.3,17.2s-12.2-6.6-12.2-17.2ZM1100.5,265.3h0c0-8.4-3-13.6-8.1-13.6s-8,5.2-8,13.5h0c0,8.4,3,13.6,8,13.6s8.1-5.2,8.1-13.6Z"/>
              <path class="st3" d="M1119.1,258h4v3.5h0c1.1-2.4,3.5-4,6.6-4s5.7,1.7,6.7,4.6h0c1.3-2.9,4.2-4.6,7.5-4.6s7.8,3.1,7.8,7.9v16.6h-4v-15.7c0-3.3-1.8-5.3-5-5.3s-5.4,2.4-5.4,5.7v15.3h-4v-16.1c0-2.9-1.9-4.8-4.9-4.8s-5.5,2.5-5.5,5.9v15.1h-4v-24Z"/>
              <path class="st3" d="M1156.8,251.4c0-1.4,1.1-2.5,2.5-2.5s2.5,1.1,2.5,2.5-1.1,2.5-2.5,2.5-2.5-1.1-2.5-2.5ZM1157.3,258h4v24h-4v-24Z"/>
              <path class="st3" d="M1166.8,258h4v3.4h0c1.3-2.2,3.7-3.9,7.4-3.9,5.3,0,8.3,3.4,8.3,8.9v15.6h-4v-14.9c0-3.9-1.8-6-5.5-6s-6.3,2.7-6.3,6.8v14.1h-4v-24Z"/>
              <path class="st3" d="M1191.6,273.6v-15.6h4v14.9c0,3.9,1.8,6,5.5,6s6.3-2.7,6.3-6.8v-14.1h4v24h-4v-3.4h0c-1.3,2.2-3.7,3.9-7.4,3.9-5.3,0-8.3-3.4-8.3-8.9Z"/>
            </g>
            <g class="st2">
              <path class="st3" d="M1217.8,275.9v-14.6h-3.5v-3.3h3.5v-6.5h4.2v6.5h4.6v3.3h-4.6v14.5c0,2.6,1.1,3.3,3.3,3.3s.9,0,1.3,0v3.3c-.5,0-1.4.2-2.1.2-4.4,0-6.6-2-6.6-6.6Z"/>
            </g>
            <g class="st2">
              <path class="st3" d="M1229,270.1h0c0-7.5,4.2-12.6,10.8-12.6s10.6,4.9,10.6,12.1v1.5h-17.3c0,4.9,2.8,7.8,7.1,7.8s5.2-1.5,5.9-3.6v-.2h4v.2c-.8,4-4.8,7.1-10,7.1s-11.1-4.8-11.1-12.4ZM1233.1,267.9h13.1c-.4-4.7-3-6.9-6.5-6.9s-6.2,2.4-6.6,6.9Z"/>
              <path class="st3" d="M1253.3,275.3v-.2s4,0,4,0v.2c.5,2.4,2.3,3.8,5.6,3.8s5.2-1.4,5.2-3.5h0c0-1.8-.9-2.7-3.6-3.4l-3.8-.9c-4.5-1.1-6.7-3.2-6.7-6.6h0c0-4.2,3.6-7.1,8.8-7.1s8.6,3.1,8.9,7.1v.3s-3.8,0-3.8,0v-.2c-.3-2.3-2.1-3.9-5.1-3.9s-4.7,1.4-4.7,3.5h0c0,1.7,1.1,2.8,3.7,3.4l3.8.9c4.8,1.2,6.6,3.1,6.6,6.5h0c0,4.2-4,7.2-9.3,7.2s-9.1-2.9-9.6-7.2Z"/>
            </g>
            <g class="st2">
              <path class="st3" d="M1276.8,277.2h4.2l-3.4,11.3h-2.9l2-11.3Z"/>
            </g>
            <g class="st2">
              <path class="st3" d="M1293.6,284.2v-.2s4,0,4,0v.2c.9,1.7,3.1,2.8,6.4,2.8s6.6-2.3,6.6-6v-3.1h0c-1.4,2.7-4.2,4.4-7.6,4.4-6,0-10.2-4.9-10.2-12.4h0c0-7.5,4.2-12.3,10.3-12.3s6.1,1.8,7.5,4.5h0v-4.1h4v23.3c0,5.6-4.1,9.2-10.6,9.2s-9.7-2.8-10.5-6.3ZM1310.7,269.8h0c0-5.3-2.8-8.8-6.9-8.8s-6.9,3.4-6.9,8.7h0c0,5.5,2.7,8.8,6.9,8.8s6.9-3.5,6.9-8.8Z"/>
              <path class="st3" d="M1318.7,270.1h0c0-7.5,4.2-12.6,10.8-12.6s10.6,4.9,10.6,12.1v1.5h-17.3c0,4.9,2.8,7.8,7.1,7.8s5.2-1.5,5.9-3.6v-.2h4v.2c-.8,4-4.8,7.1-10,7.1s-11.1-4.8-11.1-12.4ZM1322.8,267.9h13.1c-.4-4.7-3-6.9-6.5-6.9s-6.2,2.4-6.6,6.9Z"/>
              <path class="st3" d="M1345.3,275.9v-14.6h-3.5v-3.3h3.5v-6.5h4.2v6.5h4.6v3.3h-4.6v14.5c0,2.6,1.1,3.3,3.3,3.3s.9,0,1.3,0v3.3c-.5,0-1.4.2-2.1.2-4.4,0-6.6-2-6.6-6.6Z"/>
            </g>
            <text class="st1" transform="translate(1365.4 282)"><tspan x="0" y="0">r</tspan></text>
            <g class="st2">
              <path class="st3" d="M1380.3,270.1h0c0-7.5,4.2-12.6,10.8-12.6s10.6,4.9,10.6,12.1v1.5h-17.3c0,4.9,2.8,7.8,7.1,7.8s5.2-1.5,5.9-3.6v-.2h4v.2c-.8,4-4.8,7.1-10,7.1s-11.1-4.8-11.1-12.4ZM1384.4,267.9h13.1c-.4-4.7-3-6.9-6.5-6.9s-6.2,2.4-6.6,6.9Z"/>
              <path class="st3" d="M1404.7,275.2h0c0-4.1,3.2-6.7,8.7-7l6.9-.4v-2c0-2.9-1.9-4.7-5.3-4.7s-5,1.5-5.5,3.6v.2h-3.9v-.3c.4-3.9,3.8-7.1,9.5-7.1s9.2,3.1,9.2,7.9v16.6h-4v-3.9h0c-1.4,2.6-4.3,4.4-7.5,4.4-4.8,0-8-2.9-8-7.2ZM1413.6,279c3.8,0,6.7-2.6,6.7-6.1v-2l-6.4.4c-3.2.2-5.1,1.6-5.1,3.9h0c0,2.4,1.9,3.8,4.8,3.8Z"/>
              <path class="st3" d="M1428.3,270h0c0-7.6,4.1-12.5,10.1-12.5s6.2,1.7,7.7,4.5h0v-13.3h4v33.3h-4v-4.1h0c-1.5,2.8-4.2,4.5-7.6,4.5-6.1,0-10.2-4.9-10.2-12.5ZM1446.2,270h0c0-5.4-2.9-8.9-6.9-8.9s-6.9,3.4-6.9,8.9h0c0,5.5,2.6,8.9,6.9,8.9s6.9-3.5,6.9-8.9Z"/>
              <path class="st3" d="M1455.8,289.9v-3.3c.3,0,.8.1,1.3.1,2.5,0,3.9-.6,4.9-3.4l.5-1.4-8.9-24h4.3l6.6,20h0l6.6-20h4.2l-9.4,25.5c-1.7,4.6-3.8,6.6-8.1,6.6s-1.6,0-2.1-.2Z"/>
            </g>
          </g>
          <g class="st2">
            <g class="st2">
              <path class="st3" d="M1627.7,204.7l11.7-12.2c4.5-4.7,5.5-6.5,5.5-9.3h0c0-3.4-2.6-5.9-6.2-5.9s-7.2,2.9-7.2,6.4h0c0,.1-4,.1-4,.1h0c0-5.9,5-10.2,11.2-10.2s10.4,4,10.4,9.3h0c0,3.7-1.7,6.4-7.8,12.7l-7.9,8.1h0c0,0,16.3,0,16.3,0v3.7h-22v-2.9Z"/>
              <path class="st3" d="M1654.4,183.6h4v3.5h0c1.1-2.4,3.5-4,6.6-4s5.7,1.7,6.7,4.6h0c1.3-2.9,4.2-4.6,7.5-4.6s7.8,3.1,7.8,7.9v16.6h-4v-15.7c0-3.3-1.8-5.3-5-5.3s-5.4,2.4-5.4,5.7v15.3h-4v-16.1c0-2.9-1.9-4.8-4.9-4.8s-5.5,2.5-5.5,5.9v15.1h-4v-24Z"/>
              <path class="st3" d="M1701.1,200.8h0c0-4.1,3.2-6.7,8.7-7l6.9-.4v-2c0-2.9-1.9-4.7-5.3-4.7s-5,1.5-5.5,3.6v.2h-3.9v-.3c.4-3.9,3.8-7.1,9.5-7.1s9.2,3.1,9.2,7.9v16.6h-4v-3.9h0c-1.4,2.6-4.3,4.4-7.5,4.4-4.8,0-8-2.9-8-7.2ZM1710,204.6c3.8,0,6.7-2.6,6.7-6.1v-2l-6.4.4c-3.2.2-5.1,1.6-5.1,3.9h0c0,2.4,1.9,3.8,4.8,3.8Z"/>
              <path class="st3" d="M1725.5,209.8v-.2s4,0,4,0v.2c.9,1.7,3.1,2.8,6.4,2.8s6.6-2.3,6.6-6v-3.1h0c-1.4,2.7-4.2,4.4-7.6,4.4-6,0-10.2-4.9-10.2-12.4h0c0-7.5,4.2-12.3,10.3-12.3s6.1,1.8,7.5,4.5h0v-4.1h4v23.3c0,5.6-4.1,9.2-10.6,9.2s-9.7-2.8-10.5-6.3ZM1742.5,195.4h0c0-5.3-2.8-8.8-6.9-8.8s-6.9,3.4-6.9,8.7h0c0,5.5,2.7,8.8,6.9,8.8s6.9-3.5,6.9-8.8Z"/>
              <path class="st3" d="M1750.5,195.6h0c0-7.7,4.5-12.5,11.1-12.5s11.1,4.8,11.1,12.4h0c0,7.7-4.5,12.5-11.1,12.5s-11.1-4.8-11.1-12.5ZM1768.7,195.6h0c0-5.7-2.8-8.9-7-8.9s-7,3.3-7,8.9h0c0,5.7,2.8,9,7,9s7-3.3,7-8.9Z"/>
            </g>
          </g>
          <g class="st2">
            <g class="st2">
              <path class="st3" d="M449.9,185.2h0c0-14.5,8.3-23.5,21.3-23.5s18.1,6.5,19.3,15.8v.3s-7.9,0-7.9,0l-.2-.6c-1.3-5.2-5.3-8.4-11.2-8.4s-13,6.3-13,16.4h0c0,10.1,5.1,16.5,13,16.5s9.9-3.1,11.3-8.7v-.3h8.1v.3c-1.2,9.3-8.9,15.8-19.4,15.8s-21.3-9-21.3-23.5Z"/>
              <path class="st3" d="M496.2,162.5h7.8v45.4h-7.8v-45.4Z"/>
              <path class="st3" d="M509.4,198.4h0c0-6,4.6-9.5,12.7-10l8.7-.5v-2.3c0-3.4-2.2-5.4-6.2-5.4s-6,1.7-6.5,4.2v.3h-7.3v-.4c.5-5.9,5.6-10.4,14.1-10.4s13.7,4.4,13.7,11.1v22.9h-7.8v-5.1h-.2c-1.9,3.5-5.6,5.7-10,5.7-6.7,0-11.2-4.1-11.2-10.1ZM522.9,202.5c4.5,0,7.9-3,7.9-7v-2.5l-7.6.5c-3.9.3-6,1.9-6,4.6h0c0,2.8,2.3,4.4,5.7,4.4Z"/>
              <path class="st3" d="M543.5,198.2v-.3s7.7,0,7.7,0v.3c.7,2.9,2.8,4.6,6.8,4.6s6.1-1.5,6.1-4h0c0-2-1.2-3.2-4.6-4l-5.5-1.2c-6.4-1.4-9.6-4.5-9.6-9.5h0c0-6.1,5.3-10.3,13.4-10.3s13.2,4.6,13.4,10.3v.3s-7.3,0-7.3,0v-.3c-.4-2.7-2.5-4.6-6.2-4.6s-5.6,1.6-5.6,4.1h0c0,2,1.3,3.2,4.8,4l5.6,1.2c6.9,1.5,9.6,4.2,9.6,9.1h0c0,6.3-5.8,10.5-14,10.5s-13.8-4.2-14.4-10.4Z"/>
              <path class="st3" d="M575.5,198.2v-.3s7.7,0,7.7,0v.3c.7,2.9,2.8,4.6,6.8,4.6s6.1-1.5,6.1-4h0c0-2-1.2-3.2-4.6-4l-5.5-1.2c-6.4-1.4-9.6-4.5-9.6-9.5h0c0-6.1,5.3-10.3,13.4-10.3s13.2,4.6,13.4,10.3v.3s-7.3,0-7.3,0v-.3c-.4-2.7-2.5-4.6-6.2-4.6s-5.6,1.6-5.6,4.1h0c0,2,1.3,3.2,4.8,4l5.6,1.2c6.9,1.5,9.6,4.2,9.6,9.1h0c0,6.3-5.8,10.5-14,10.5s-13.8-4.2-14.4-10.4Z"/>
            </g>
            <g class="st2">
              <path class="st3" d="M609,174.5h7.8v5.8h.2c1-4,3.8-6.5,7.6-6.5s1.9.2,2.5.3v7.1c-.7-.3-1.9-.4-3.2-.4-4.4,0-7.1,2.8-7.1,7.7v19.4h-7.8v-33.4Z"/>
            </g>
            <g class="st2">
              <path class="st3" d="M628.5,191.2h0c0-10.8,6.4-17.4,16.1-17.4s16.2,6.5,16.2,17.3h0c0,10.9-6.4,17.4-16.1,17.4s-16.1-6.5-16.1-17.3ZM652.8,191.2h0c0-7-3.2-11-8.2-11s-8.1,4-8.1,11h0c0,7.1,3.2,11.1,8.2,11.1s8.1-4,8.1-11Z"/>
              <path class="st3" d="M664.5,191.2h0c0-10.8,6.4-17.4,16.1-17.4s16.2,6.5,16.2,17.3h0c0,10.9-6.4,17.4-16.1,17.4s-16.1-6.5-16.1-17.3ZM688.8,191.2h0c0-7-3.2-11-8.2-11s-8.1,4-8.1,11h0c0,7.1,3.2,11.1,8.2,11.1s8.1-4,8.1-11Z"/>
              <path class="st3" d="M701.8,174.5h7.8v5.4h.2c1.4-3.7,4.8-6,9.3-6s8,2.5,9.3,6.7h.2c1.6-4.2,5.6-6.7,10.4-6.7s10.9,4.5,10.9,11.1v22.9h-7.8v-21c0-4.1-2.1-6.5-6-6.5s-6.4,2.8-6.4,6.8v20.6h-7.6v-21.4c0-3.7-2.3-6.1-5.9-6.1s-6.4,3-6.4,7v20.4h-7.8v-33.4Z"/>
              <path class="st3" d="M768.8,196.1v-21.6h7.8v20c0,4.7,2.2,7.4,6.7,7.4s7.4-3.2,7.4-8.1v-19.3h7.8v33.4h-7.8v-5.2h-.2c-1.7,3.6-5.2,5.9-10.2,5.9-7.3,0-11.5-4.7-11.5-12.5Z"/>
              <path class="st3" d="M804.9,174.5h7.8v5.8h.2c1.9-4,5.6-6.5,10.4-6.5,8.5,0,13.8,6.6,13.8,17.4h0c0,10.7-5.4,17.3-13.7,17.3s-8.6-2.4-10.5-6.3h-.2v16.7h-7.8v-44.4ZM829.1,191.2h0c0-6.7-3.1-10.8-8.2-10.8s-8.2,4.2-8.2,10.8h0c0,6.5,3.4,10.7,8.2,10.7s8.2-4.1,8.2-10.7Z"/>
              <path class="st3" d="M840.8,191.2h0c0-10.8,5.4-17.4,13.8-17.4s8.5,2.4,10.4,6.4h.2v-17.8h7.8v45.4h-7.8v-5.7h-.2c-1.9,3.9-5.6,6.3-10.4,6.3-8.4,0-13.8-6.6-13.8-17.3ZM865.1,191.2h0c0-6.5-3.4-10.8-8.2-10.8s-8.2,4.1-8.2,10.7h0c0,6.7,3.1,10.8,8.2,10.8s8.2-4.2,8.2-10.7Z"/>
              <path class="st3" d="M878.2,198.4h0c0-6,4.6-9.5,12.7-10l8.7-.5v-2.3c0-3.4-2.2-5.4-6.2-5.4s-6,1.7-6.5,4.2v.3h-7.3v-.4c.5-5.9,5.6-10.4,14.1-10.4s13.7,4.4,13.7,11.1v22.9h-7.8v-5.1h-.2c-1.9,3.5-5.6,5.7-10,5.7-6.7,0-11.2-4.1-11.2-10.1ZM891.7,202.5c4.5,0,7.9-3,7.9-7v-2.5l-7.6.5c-3.9.3-6,1.9-6,4.6h0c0,2.8,2.3,4.4,5.7,4.4Z"/>
            </g>
            <g class="st2">
              <path class="st3" d="M915.9,198.9v-18.3h-4.7v-6h4.7v-8.5h8v8.5h6.2v6h-6.2v17.6c0,3.3,1.4,4.3,4.3,4.3s1.4,0,1.9-.1v5.9c-.9.1-2.3.3-3.9.3-7,0-10.3-2.8-10.3-9.7Z"/>
            </g>
            <g class="st2">
              <path class="st3" d="M933.4,191.3h0c0-10.5,6.1-17.5,15.7-17.5s15.5,6.7,15.5,16.8v2.5h-23.4c.1,5.9,3.3,9.3,8.4,9.3s6.5-2.1,7.2-4.3v-.2h7.4v.3c-1.1,5.1-6,10.3-14.8,10.3s-16.1-6.6-16.1-17.3ZM941.3,187.9h15.6c-.6-5.3-3.6-7.9-7.7-7.9s-7.3,2.8-7.9,7.9Z"/>
            </g>
          </g>
          <g>
            <rect x="227.4" y="134.7" width="184.1" height="184.1" rx="41.2" ry="41.2"/>
            <g class="st6">
              <g id="Logomark">
                <rect class="st7" x="224.4" y="131.7" width="190.1" height="190.1"/>
                <g>
                  <rect class="st5" x="319.4" y="166.7" width="60" height="60"/>
                  <rect class="st12" x="259.4" y="226.8" width="60" height="60"/>
                </g>
              </g>
            </g>
          </g>
        </g>
      </g>
    </g>
  </g>
</svg>