<svg width="31" height="30" viewBox="0 0 31 30" fill="none" xmlns="http://www.w3.org/2000/svg">
<rect x="0.940338" y="-0.000488281" width="29.5427" height="29.5427" rx="10" fill="white"/>
<path d="M15.7117 15.6941C16.2216 15.6941 16.6349 15.2807 16.6349 14.7709C16.6349 14.261 16.2216 13.8477 15.7117 13.8477C15.2018 13.8477 14.7885 14.261 14.7885 14.7709C14.7885 15.2807 15.2018 15.6941 15.7117 15.6941Z" stroke="#002138" stroke-opacity="0.8" stroke-width="2" stroke-linecap="round" stroke-linejoin="round"/>
<path d="M22.1742 15.6941C22.684 15.6941 23.0974 15.2807 23.0974 14.7709C23.0974 14.261 22.684 13.8477 22.1742 13.8477C21.6643 13.8477 21.2509 14.261 21.2509 14.7709C21.2509 15.2807 21.6643 15.6941 22.1742 15.6941Z" stroke="#002138" stroke-opacity="0.8" stroke-width="2" stroke-linecap="round" stroke-linejoin="round"/>
<path d="M9.24923 15.6941C9.7591 15.6941 10.1724 15.2807 10.1724 14.7709C10.1724 14.261 9.7591 13.8477 9.24923 13.8477C8.73935 13.8477 8.32602 14.261 8.32602 14.7709C8.32602 15.2807 8.73935 15.6941 9.24923 15.6941Z" stroke="#002138" stroke-opacity="0.8" stroke-width="2" stroke-linecap="round" stroke-linejoin="round"/>
</svg>
