<svg width="23" height="23" viewBox="0 0 23 23" fill="none" xmlns="http://www.w3.org/2000/svg">
<rect x="0.0445557" y="0.298096" width="22.157" height="22.157" rx="5" fill="white"/>
<path d="M15.2792 8.79223C15.2792 7.76367 14.8706 6.77725 14.1433 6.04995C13.416 5.32265 12.4296 4.91406 11.401 4.91406C10.3725 4.91406 9.38607 5.32265 8.65877 6.04995C7.93147 6.77725 7.52288 7.76367 7.52288 8.79223C7.52288 13.3167 5.5838 14.6095 5.5838 14.6095H17.2183C17.2183 14.6095 15.2792 13.3167 15.2792 8.79223Z" fill="#002138" fill-opacity="0.8"/>
<path d="M12.5193 17.1948C12.4057 17.3907 12.2426 17.5533 12.0463 17.6664C11.8501 17.7794 11.6276 17.8389 11.4011 17.8389C11.1746 17.8389 10.9521 17.7794 10.7559 17.6664C10.5596 17.5533 10.3965 17.3907 10.2829 17.1948" stroke="#00ADE6" stroke-width="2" stroke-linecap="round" stroke-linejoin="round"/>
</svg>
